{"glyphs":{"0":{"ha":929,"x_min":89,"x_max":856,"o":"m 101 454 q 140 601 110 521 q 222 751 169 681 q 353 867 275 821 q 536 914 432 914 q 704 866 639 914 q 804 748 769 818 q 847 597 839 678 q 847 450 856 517 q 794 270 835 354 q 694 124 753 186 q 562 26 635 61 q 413 -10 489 -10 q 274 27 336 -10 q 169 126 211 64 q 108 273 126 189 q 101 454 89 357 m 122 456 q 129 272 110 354 q 190 132 149 190 q 292 42 232 74 q 418 10 351 10 q 552 40 485 10 q 676 128 619 71 q 774 267 733 185 q 828 449 815 349 q 824 633 840 550 q 767 773 807 715 q 667 863 728 831 q 532 894 607 894 q 389 865 457 894 q 266 777 321 835 q 173 638 211 719 q 122 456 135 557 z "},"1":{"ha":394,"x_min":108,"x_max":288,"o":"m 108 883 l 111 903 l 288 903 l 176 0 l 157 0 l 265 883 l 108 883 z "},"2":{"ha":699,"x_min":50,"x_max":618,"o":"m 103 19 l 603 19 l 600 0 l 50 0 q 253 176 154 89 q 428 349 351 264 q 551 514 504 433 q 597 671 597 594 q 578 778 597 735 q 531 847 560 821 q 468 884 503 874 q 403 894 433 894 q 275 865 325 894 q 196 794 225 836 q 155 704 167 751 q 143 621 143 657 q 182 493 143 540 q 174 488 178 490 q 168 482 171 485 q 135 543 147 510 q 124 621 124 576 q 143 734 124 681 q 199 827 163 788 q 287 890 235 867 q 406 914 339 914 q 494 897 454 914 q 561 848 533 879 q 603 774 589 817 q 618 679 618 731 q 569 508 618 592 q 446 341 521 424 q 280 178 371 258 q 103 19 189 99 z "},"3":{"ha":667,"x_min":50,"x_max":608,"o":"m 219 501 q 390 692 306 597 q 561 883 475 788 l 163 883 l 165 903 l 608 903 q 448 728 528 815 q 289 553 368 640 q 398 538 347 556 q 486 487 449 521 q 544 405 524 453 q 565 300 565 357 q 539 180 565 236 q 468 81 513 124 q 366 14 424 39 q 246 -11 308 -11 q 133 14 183 -11 q 50 81 83 39 q 58 90 53 85 q 67 99 63 94 q 140 33 94 58 q 244 8 186 8 q 357 32 303 8 q 453 95 411 56 q 521 187 496 135 q 546 297 546 239 q 528 390 546 347 q 478 465 510 433 q 402 515 446 497 q 308 533 358 533 q 263 525 286 533 q 219 501 240 517 z "},"4":{"ha":735,"x_min":21,"x_max":667,"o":"m 583 857 q 324 565 453 710 q 65 274 196 421 l 513 274 l 583 857 m 21 254 q 315 584 168 419 q 610 914 463 749 l 532 274 l 667 274 l 664 254 l 529 254 l 499 0 l 479 0 l 510 254 l 21 254 z "},"5":{"ha":663,"x_min":57,"x_max":597,"o":"m 146 474 l 199 903 l 597 903 l 594 883 l 215 883 l 171 517 q 240 540 204 532 q 311 549 275 549 q 412 529 365 549 q 492 476 458 510 q 544 397 525 443 q 564 299 564 351 q 537 180 564 236 q 465 81 510 124 q 363 14 421 39 q 242 -11 304 -11 q 138 10 185 -11 q 57 67 92 31 q 65 74 61 69 q 74 81 69 78 q 146 27 103 46 q 242 8 189 8 q 356 32 301 8 q 451 95 410 56 q 518 187 493 135 q 543 296 543 239 q 525 388 543 344 q 475 462 507 431 q 400 511 443 493 q 306 529 357 529 q 215 513 257 529 q 146 474 174 497 z "},"6":{"ha":736,"x_min":74,"x_max":644,"o":"m 92 242 q 110 150 92 193 q 159 76 128 107 q 233 26 190 44 q 326 8 276 8 q 439 31 385 8 q 535 93 493 54 q 601 184 576 132 q 625 294 625 236 q 607 386 625 343 q 558 461 589 429 q 483 511 526 493 q 390 529 440 529 q 278 506 332 529 q 182 444 224 483 q 116 353 140 406 q 92 242 92 300 m 74 240 q 124 435 74 344 q 253 603 175 525 q 427 750 332 682 q 613 879 522 818 q 618 870 615 875 q 624 861 621 865 q 446 740 524 800 q 310 626 368 681 q 213 523 251 571 q 154 436 175 475 q 260 518 199 488 q 393 549 322 549 q 494 529 447 549 q 574 475 540 510 q 626 394 607 440 q 644 296 644 349 q 618 178 644 233 q 548 80 592 122 q 446 13 504 38 q 325 -11 388 -11 q 224 8 271 -11 q 144 62 178 28 q 92 142 111 96 q 74 240 74 188 z "},"7":{"ha":635,"x_min":110,"x_max":669,"o":"m 110 883 l 113 903 l 669 903 q 411 451 539 675 q 153 0 283 228 l 128 0 q 381 442 256 222 q 635 883 507 661 l 110 883 z "},"8":{"ha":738,"x_min":72,"x_max":642,"o":"m 224 694 q 270 591 224 632 q 389 550 317 550 q 465 563 429 550 q 528 601 501 576 q 572 658 556 625 q 588 729 588 690 q 576 792 588 763 q 544 845 565 822 q 494 881 524 868 q 431 894 465 894 q 351 878 389 894 q 285 833 314 861 q 240 769 257 806 q 224 694 224 733 m 93 244 q 110 153 93 196 q 157 77 126 110 q 229 26 188 44 q 321 7 271 7 q 434 31 379 7 q 531 94 489 54 q 597 186 572 133 q 622 296 622 239 q 604 388 622 344 q 554 462 586 431 q 479 511 522 493 q 385 529 436 529 q 274 506 326 529 q 181 445 221 483 q 117 355 140 407 q 93 244 93 303 m 72 243 q 92 345 72 297 q 144 433 111 393 q 222 500 178 472 q 318 540 267 528 q 236 600 267 557 q 206 700 206 643 q 224 782 206 743 q 274 850 243 821 q 346 897 306 879 q 431 914 386 914 q 501 900 469 914 q 557 861 533 886 q 594 803 581 836 q 607 733 607 771 q 564 614 607 665 q 457 540 521 563 q 533 508 499 531 q 591 454 567 486 q 628 383 615 422 q 642 299 642 343 q 615 180 642 236 q 544 81 589 124 q 441 14 499 39 q 321 -11 383 -11 q 222 8 267 -11 q 143 63 176 28 q 91 144 110 97 q 72 243 72 190 z "},"9":{"ha":735,"x_min":107,"x_max":683,"o":"m 658 600 q 649 701 664 654 q 603 784 635 749 q 525 840 571 819 q 425 860 479 860 q 313 837 367 860 q 217 775 258 814 q 151 684 176 736 q 126 574 126 632 q 144 482 126 525 q 194 407 163 439 q 268 357 225 375 q 361 339 311 339 q 466 359 415 339 q 558 415 517 379 q 625 498 599 450 q 658 600 651 546 m 676 600 q 610 412 664 499 q 481 250 557 325 q 314 110 404 175 q 139 -11 224 46 q 128 7 133 -1 q 306 128 228 68 q 443 242 385 188 q 540 345 501 297 q 599 432 578 393 q 492 350 554 381 q 358 319 429 319 q 258 339 304 319 q 178 393 211 358 q 126 474 144 428 q 107 572 107 519 q 133 690 107 635 q 203 788 160 746 q 306 855 247 831 q 426 879 364 879 q 534 857 485 879 q 617 797 583 835 q 667 709 651 760 q 676 600 683 658 z "},"\u0000":{"ha":0,"x_min":0,"x_max":0,"o":""},"\r":{"ha":417,"x_min":0,"x_max":0,"o":""}," ":{"ha":367,"x_min":0,"x_max":0,"o":""},"t":{"ha":363,"x_min":38,"x_max":360,"o":"m 193 749 l 213 749 l 183 510 l 360 510 l 357 490 l 181 490 l 121 0 l 101 0 l 161 490 l 38 490 l 40 510 l 164 510 l 193 749 z "},"b":{"ha":706,"x_min":58,"x_max":638,"o":"m 611 261 q 603 358 617 313 q 560 439 589 404 q 487 493 531 474 q 392 513 443 513 q 284 490 335 513 q 194 431 233 468 q 131 342 154 393 q 108 236 108 292 q 125 148 108 189 q 172 76 142 107 q 242 28 201 46 q 331 11 282 11 q 431 31 382 11 q 517 84 479 50 q 579 163 554 118 q 611 261 604 208 m 631 261 q 597 156 624 204 q 528 70 569 107 q 435 13 488 33 q 328 -8 383 -8 q 178 40 240 -8 q 96 163 117 88 q 92 119 93 140 q 88 75 90 97 l 78 0 l 58 0 l 186 1042 l 206 1042 q 167 721 183 865 q 152 599 160 660 q 138 490 144 539 q 128 406 132 440 q 122 361 124 371 q 235 484 163 436 q 394 532 308 532 q 497 510 450 532 q 575 453 543 489 q 622 367 607 417 q 631 261 638 317 z "},"l":{"ha":239,"x_min":64,"x_max":211,"o":"m 83 0 l 64 0 l 192 1042 l 211 1042 l 83 0 z "},"m":{"ha":993,"x_min":58,"x_max":903,"o":"m 122 521 l 136 521 l 121 385 q 223 490 157 450 q 368 531 289 531 q 474 492 436 531 q 511 392 511 454 q 613 492 547 454 q 754 531 678 531 q 865 488 828 531 q 896 375 903 444 l 850 0 l 831 0 l 878 385 q 852 472 882 435 q 761 511 822 508 q 672 497 715 511 q 594 456 629 482 q 534 393 558 429 q 503 314 510 357 l 464 0 l 444 0 l 492 385 q 466 472 496 435 q 375 511 436 508 q 283 496 328 511 q 203 453 239 481 q 144 388 168 426 q 115 306 121 350 l 78 0 l 58 0 l 122 521 z "},"i":{"ha":228,"x_min":58,"x_max":182,"o":"m 125 692 q 135 713 125 704 q 157 722 144 722 q 175 715 168 722 q 182 697 182 708 q 172 676 182 685 q 150 667 163 667 q 132 674 139 667 q 125 692 125 681 m 78 0 l 58 0 l 122 521 l 142 521 l 78 0 z "},"h":{"ha":607,"x_min":58,"x_max":517,"o":"m 186 1042 l 206 1042 l 126 393 q 168 447 143 422 q 224 491 193 472 q 292 520 256 510 q 368 531 329 531 q 479 488 442 531 q 510 375 517 444 l 464 0 l 444 0 l 492 385 q 466 472 496 435 q 375 511 436 508 q 283 496 328 511 q 203 453 239 481 q 144 388 168 426 q 115 306 121 350 l 78 0 l 58 0 l 186 1042 z "},"c":{"ha":556,"x_min":46,"x_max":514,"o":"m 450 65 q 456 58 453 63 q 463 51 460 54 q 378 8 424 24 q 285 -8 333 -8 q 188 10 232 -8 q 113 62 144 29 q 64 138 82 94 q 46 233 46 182 q 71 349 46 294 q 138 444 96 403 q 234 508 179 485 q 350 532 289 532 q 440 516 399 532 q 514 472 482 500 q 506 465 511 468 q 499 457 501 461 q 431 498 469 483 q 349 513 393 513 q 241 490 292 513 q 151 431 190 468 q 88 342 111 393 q 65 236 65 292 q 82 148 65 189 q 128 76 99 107 q 197 28 157 46 q 286 11 238 11 q 372 26 331 11 q 450 65 414 40 z "},"q":{"ha":706,"x_min":46,"x_max":619,"o":"m 65 236 q 82 148 65 189 q 128 76 99 107 q 197 28 157 46 q 286 11 238 11 q 393 33 342 11 q 484 92 444 54 q 547 179 524 129 q 569 286 569 229 q 553 375 569 333 q 506 447 536 417 q 435 495 476 478 q 347 513 394 513 q 240 490 290 513 q 150 431 189 468 q 88 342 111 393 q 65 236 65 292 m 46 233 q 71 349 46 294 q 138 444 96 403 q 234 508 179 485 q 350 532 289 532 q 498 484 436 532 q 581 361 560 436 q 587 408 583 381 q 593 461 590 436 q 600 521 597 490 l 619 521 l 525 -250 l 506 -250 l 546 75 q 551 119 549 97 q 557 163 554 140 q 509 94 538 125 q 444 40 481 63 q 367 4 408 17 q 283 -8 326 -8 q 188 10 232 -8 q 113 62 144 29 q 64 138 82 94 q 46 233 46 182 z "},"u":{"ha":607,"x_min":63,"x_max":521,"o":"m 457 0 l 443 0 l 458 136 q 356 30 422 69 q 211 -10 289 -10 q 100 33 138 -10 q 69 146 63 76 l 115 521 l 135 521 l 88 136 q 113 49 83 86 q 204 10 143 13 q 296 25 251 10 q 376 67 340 40 q 435 133 411 94 q 464 215 458 171 l 501 521 l 521 521 l 457 0 z "},"r":{"ha":361,"x_min":58,"x_max":369,"o":"m 367 511 q 278 494 321 510 q 201 451 235 478 q 144 386 167 424 q 115 306 121 349 l 78 0 l 58 0 l 122 521 l 136 521 l 121 385 q 224 490 158 451 q 369 531 290 528 l 367 511 z "},"e":{"ha":603,"x_min":46,"x_max":564,"o":"m 479 64 q 389 11 439 31 q 285 -8 339 -8 q 188 10 232 -8 q 113 62 144 29 q 64 138 82 94 q 46 233 46 182 q 71 349 46 294 q 138 444 96 403 q 235 509 181 485 q 351 533 290 533 q 490 484 438 533 q 564 360 543 435 q 447 315 510 339 q 319 265 383 290 q 191 216 254 240 q 72 169 128 192 q 149 55 92 99 q 286 11 206 11 q 383 28 336 11 q 465 78 429 46 l 479 64 m 539 369 q 470 472 517 432 q 349 513 424 513 q 241 490 292 513 q 151 430 190 468 q 88 340 111 392 q 65 231 65 289 q 65 209 65 221 q 68 188 65 197 q 182 232 122 208 q 303 278 242 256 q 424 325 364 301 q 539 369 485 349 z "},"p":{"ha":707,"x_min":28,"x_max":633,"o":"m 614 288 q 597 376 614 335 q 551 447 581 417 q 480 495 521 478 q 392 513 439 513 q 284 490 335 513 q 194 431 233 468 q 131 342 154 393 q 108 236 108 292 q 125 148 108 189 q 172 76 142 107 q 242 28 201 46 q 331 11 282 11 q 438 33 386 11 q 528 93 489 56 q 591 181 568 131 q 614 288 614 231 m 633 289 q 608 174 633 228 q 542 79 583 119 q 444 15 500 39 q 328 -8 389 -8 q 178 40 240 -8 q 96 163 117 88 l 88 75 l 47 -250 l 28 -250 l 122 521 l 142 521 q 135 461 139 490 q 128 408 132 436 q 122 361 125 381 q 235 484 163 436 q 394 532 308 532 q 490 513 446 532 q 566 462 535 494 q 615 385 597 429 q 633 289 633 340 z "},"á":{"ha":706,"x_min":46,"x_max":619,"o":"m 65 236 q 82 148 65 189 q 128 76 99 107 q 197 28 157 46 q 286 11 238 11 q 393 33 342 11 q 484 92 444 54 q 547 179 524 129 q 569 286 569 229 q 553 375 569 333 q 506 447 536 417 q 435 495 476 478 q 347 513 394 513 q 240 490 290 513 q 150 431 189 468 q 88 342 111 393 q 65 236 65 292 m 46 233 q 71 349 46 294 q 138 444 96 403 q 234 508 179 485 q 350 532 289 532 q 498 484 436 532 q 581 361 560 436 q 592 441 586 401 q 606 521 599 481 l 619 521 l 556 0 l 536 0 l 546 75 q 551 119 549 97 q 557 163 554 140 q 509 94 538 125 q 444 40 481 63 q 367 4 408 17 q 283 -8 326 -8 q 188 10 232 -8 q 113 62 144 29 q 64 138 82 94 q 46 233 46 182 m 378 665 q 451 758 414 711 q 525 850 489 804 l 547 850 q 474 758 511 804 q 400 665 436 711 l 378 665 z "},"é":{"ha":603,"x_min":46,"x_max":564,"o":"m 479 64 q 389 11 439 31 q 285 -8 339 -8 q 188 10 232 -8 q 113 62 144 29 q 64 138 82 94 q 46 233 46 182 q 71 349 46 294 q 138 444 96 403 q 235 509 181 485 q 351 533 290 533 q 490 484 438 533 q 564 360 543 435 q 447 315 510 339 q 319 265 383 290 q 191 216 254 240 q 72 169 128 192 q 149 55 92 99 q 286 11 206 11 q 383 28 336 11 q 465 78 429 46 l 479 64 m 539 369 q 470 472 517 432 q 349 513 424 513 q 241 490 292 513 q 151 430 190 468 q 88 340 111 392 q 65 231 65 289 q 65 209 65 221 q 68 188 65 197 q 182 232 122 208 q 303 278 242 256 q 424 325 364 301 q 539 369 485 349 m 371 665 q 445 758 408 711 q 519 850 482 804 l 542 850 q 467 758 504 804 q 393 665 431 711 l 371 665 z "},"í":{"ha":228,"x_min":58,"x_max":310,"o":"m 78 0 l 58 0 l 122 521 l 142 521 l 78 0 m 140 665 q 214 758 176 711 q 288 850 251 804 l 310 850 q 236 758 274 804 q 163 665 199 711 l 140 665 z "},"ó":{"ha":664,"x_min":40,"x_max":592,"o":"m 47 261 q 81 367 54 317 q 149 453 108 417 q 242 512 190 490 q 350 533 293 533 q 446 515 401 533 q 523 463 490 496 q 574 385 556 429 q 592 289 592 340 q 566 174 592 228 q 498 79 540 119 q 399 15 456 39 q 283 -8 343 -8 q 181 13 226 -8 q 103 70 135 33 q 56 156 71 107 q 47 261 40 204 m 67 261 q 74 163 60 208 q 118 84 89 118 q 190 31 147 50 q 286 11 233 11 q 393 33 342 11 q 484 92 444 54 q 547 179 524 129 q 569 286 569 229 q 553 375 569 333 q 506 447 536 417 q 435 495 476 478 q 347 513 394 513 q 247 493 294 513 q 161 439 199 474 q 98 358 124 404 q 67 261 72 313 m 368 665 q 442 758 404 711 q 515 850 479 804 l 538 850 q 464 758 501 804 q 390 665 426 711 l 368 665 z "},"ú":{"ha":607,"x_min":63,"x_max":540,"o":"m 457 0 l 443 0 l 458 136 q 356 30 422 69 q 211 -10 289 -10 q 100 33 138 -10 q 69 146 63 76 l 115 521 l 135 521 l 88 136 q 113 49 83 86 q 204 10 143 13 q 296 25 251 10 q 376 67 340 40 q 435 133 411 94 q 464 215 458 171 l 501 521 l 521 521 l 457 0 m 371 665 q 444 758 407 711 q 518 850 482 804 l 540 850 q 467 758 504 804 q 393 665 429 711 l 371 665 z "},"ä":{"ha":706,"x_min":46,"x_max":619,"o":"m 65 236 q 82 148 65 189 q 128 76 99 107 q 197 28 157 46 q 286 11 238 11 q 393 33 342 11 q 484 92 444 54 q 547 179 524 129 q 569 286 569 229 q 553 375 569 333 q 506 447 536 417 q 435 495 476 478 q 347 513 394 513 q 240 490 290 513 q 150 431 189 468 q 88 342 111 393 q 65 236 65 292 m 46 233 q 71 349 46 294 q 138 444 96 403 q 234 508 179 485 q 350 532 289 532 q 498 484 436 532 q 581 361 560 436 q 592 441 586 401 q 606 521 599 481 l 619 521 l 556 0 l 536 0 l 546 75 q 551 119 549 97 q 557 163 554 140 q 509 94 538 125 q 444 40 481 63 q 367 4 408 17 q 283 -8 326 -8 q 188 10 232 -8 q 113 62 144 29 q 64 138 82 94 q 46 233 46 182 m 511 692 q 521 713 511 704 q 543 722 531 722 q 561 715 554 722 q 568 697 568 708 q 558 676 568 685 q 536 667 549 667 q 518 674 525 667 q 511 692 511 681 m 282 692 q 292 713 282 704 q 314 722 301 722 q 332 715 325 722 q 339 697 339 708 q 329 676 339 685 q 307 667 319 667 q 289 674 296 667 q 282 692 282 681 z "},"ë":{"ha":603,"x_min":46,"x_max":564,"o":"m 479 64 q 389 11 439 31 q 285 -8 339 -8 q 188 10 232 -8 q 113 62 144 29 q 64 138 82 94 q 46 233 46 182 q 71 349 46 294 q 138 444 96 403 q 235 509 181 485 q 351 533 290 533 q 490 484 438 533 q 564 360 543 435 q 447 315 510 339 q 319 265 383 290 q 191 216 254 240 q 72 169 128 192 q 149 55 92 99 q 286 11 206 11 q 383 28 336 11 q 465 78 429 46 l 479 64 m 539 369 q 470 472 517 432 q 349 513 424 513 q 241 490 292 513 q 151 430 190 468 q 88 340 111 392 q 65 231 65 289 q 65 209 65 221 q 68 188 65 197 q 182 232 122 208 q 303 278 242 256 q 424 325 364 301 q 539 369 485 349 m 457 692 q 466 713 457 704 q 488 722 475 722 q 506 715 499 722 q 513 697 513 708 q 503 676 513 685 q 481 667 493 667 q 463 674 469 667 q 457 692 457 681 m 228 692 q 237 713 228 704 q 258 722 246 722 q 276 715 269 722 q 283 697 283 708 q 274 676 283 685 q 251 667 264 667 q 234 674 240 667 q 228 692 228 681 z "},"ö":{"ha":664,"x_min":40,"x_max":592,"o":"m 47 261 q 81 367 54 317 q 149 453 108 417 q 242 512 190 490 q 350 533 293 533 q 446 515 401 533 q 523 463 490 496 q 574 385 556 429 q 592 289 592 340 q 566 174 592 228 q 498 79 540 119 q 399 15 456 39 q 283 -8 343 -8 q 181 13 226 -8 q 103 70 135 33 q 56 156 71 107 q 47 261 40 204 m 67 261 q 74 163 60 208 q 118 84 89 118 q 190 31 147 50 q 286 11 233 11 q 393 33 342 11 q 484 92 444 54 q 547 179 524 129 q 569 286 569 229 q 553 375 569 333 q 506 447 536 417 q 435 495 476 478 q 347 513 394 513 q 247 493 294 513 q 161 439 199 474 q 98 358 124 404 q 67 261 72 313 m 463 692 q 472 713 463 704 q 494 722 482 722 q 513 715 506 722 q 519 697 519 708 q 510 676 519 685 q 488 667 500 667 q 469 674 476 667 q 463 692 463 681 m 233 692 q 243 713 233 704 q 265 722 253 722 q 283 715 276 722 q 290 697 290 708 q 281 676 290 685 q 258 667 271 667 q 240 674 247 667 q 233 692 233 681 z "},"ü":{"ha":607,"x_min":63,"x_max":557,"o":"m 457 0 l 443 0 l 458 136 q 356 30 422 69 q 211 -10 289 -10 q 100 33 138 -10 q 69 146 63 76 l 115 521 l 135 521 l 88 136 q 113 49 83 86 q 204 10 143 13 q 296 25 251 10 q 376 67 340 40 q 435 133 411 94 q 464 215 458 171 l 501 521 l 521 521 l 457 0 m 500 692 q 510 713 500 704 q 532 722 519 722 q 550 715 543 722 q 557 697 557 708 q 547 676 557 685 q 525 667 538 667 q 507 674 514 667 q 500 692 500 681 m 271 692 q 281 713 271 704 q 303 722 290 722 q 321 715 314 722 q 328 697 328 708 q 318 676 328 685 q 296 667 308 667 q 278 674 285 667 q 271 692 271 681 z "},"à":{"ha":706,"x_min":46,"x_max":619,"o":"m 65 236 q 82 148 65 189 q 128 76 99 107 q 197 28 157 46 q 286 11 238 11 q 393 33 342 11 q 484 92 444 54 q 547 179 524 129 q 569 286 569 229 q 553 375 569 333 q 506 447 536 417 q 435 495 476 478 q 347 513 394 513 q 240 490 290 513 q 150 431 189 468 q 88 342 111 393 q 65 236 65 292 m 46 233 q 71 349 46 294 q 138 444 96 403 q 234 508 179 485 q 350 532 289 532 q 498 484 436 532 q 581 361 560 436 q 592 441 586 401 q 606 521 599 481 l 619 521 l 556 0 l 536 0 l 546 75 q 551 119 549 97 q 557 163 554 140 q 509 94 538 125 q 444 40 481 63 q 367 4 408 17 q 283 -8 326 -8 q 188 10 232 -8 q 113 62 144 29 q 64 138 82 94 q 46 233 46 182 m 314 850 q 365 758 340 804 q 417 665 390 711 l 394 665 q 343 758 368 711 q 292 850 318 804 l 314 850 z "},"è":{"ha":603,"x_min":46,"x_max":564,"o":"m 479 64 q 389 11 439 31 q 285 -8 339 -8 q 188 10 232 -8 q 113 62 144 29 q 64 138 82 94 q 46 233 46 182 q 71 349 46 294 q 138 444 96 403 q 235 509 181 485 q 351 533 290 533 q 490 484 438 533 q 564 360 543 435 q 447 315 510 339 q 319 265 383 290 q 191 216 254 240 q 72 169 128 192 q 149 55 92 99 q 286 11 206 11 q 383 28 336 11 q 465 78 429 46 l 479 64 m 539 369 q 470 472 517 432 q 349 513 424 513 q 241 490 292 513 q 151 430 190 468 q 88 340 111 392 q 65 231 65 289 q 65 209 65 221 q 68 188 65 197 q 182 232 122 208 q 303 278 242 256 q 424 325 364 301 q 539 369 485 349 m 268 850 q 319 758 293 804 q 369 665 344 711 l 347 665 q 297 758 322 711 q 246 850 271 804 l 268 850 z "},"ì":{"ha":228,"x_min":51,"x_max":176,"o":"m 78 0 l 58 0 l 122 521 l 142 521 l 78 0 m 74 850 q 125 758 100 804 q 176 665 150 711 l 154 665 q 103 758 128 711 q 51 850 78 804 l 74 850 z "},"ò":{"ha":664,"x_min":40,"x_max":592,"o":"m 47 261 q 81 367 54 317 q 149 453 108 417 q 242 512 190 490 q 350 533 293 533 q 446 515 401 533 q 523 463 490 496 q 574 385 556 429 q 592 289 592 340 q 566 174 592 228 q 498 79 540 119 q 399 15 456 39 q 283 -8 343 -8 q 181 13 226 -8 q 103 70 135 33 q 56 156 71 107 q 47 261 40 204 m 67 261 q 74 163 60 208 q 118 84 89 118 q 190 31 147 50 q 286 11 233 11 q 393 33 342 11 q 484 92 444 54 q 547 179 524 129 q 569 286 569 229 q 553 375 569 333 q 506 447 536 417 q 435 495 476 478 q 347 513 394 513 q 247 493 294 513 q 161 439 199 474 q 98 358 124 404 q 67 261 72 313 m 264 850 q 315 758 290 804 q 367 665 340 711 l 344 665 q 293 758 318 711 q 242 850 268 804 l 264 850 z "},"ù":{"ha":607,"x_min":63,"x_max":521,"o":"m 457 0 l 443 0 l 458 136 q 356 30 422 69 q 211 -10 289 -10 q 100 33 138 -10 q 69 146 63 76 l 115 521 l 135 521 l 88 136 q 113 49 83 86 q 204 10 143 13 q 296 25 251 10 q 376 67 340 40 q 435 133 411 94 q 464 215 458 171 l 501 521 l 521 521 l 457 0 m 339 850 q 390 758 365 804 q 442 665 415 711 l 419 665 q 368 758 393 711 q 317 850 343 804 l 339 850 z "},",":{"ha":318,"x_min":1,"x_max":175,"o":"m 175 119 q 98 -24 136 47 q 21 -167 60 -94 l 1 -167 q 72 -24 38 -94 q 143 119 107 47 l 175 119 z "},".":{"ha":258,"x_min":61,"x_max":118,"o":"m 61 25 q 71 47 61 38 q 93 56 81 56 q 111 49 104 56 q 118 31 118 42 q 108 9 118 18 q 86 0 99 0 q 68 7 75 0 q 61 25 61 14 z "},"f":{"ha":347,"x_min":54,"x_max":468,"o":"m 54 497 l 57 517 l 147 517 l 172 719 q 210 856 182 796 q 277 956 238 915 q 366 1017 317 996 q 468 1042 415 1039 l 465 1022 q 372 1001 418 1022 q 289 942 326 981 q 226 848 251 903 q 192 725 200 793 l 167 517 l 347 517 l 344 497 l 164 497 l 103 0 l 83 0 l 144 497 l 54 497 z "},"å":{"ha":706,"x_min":46,"x_max":619,"o":"m 306 646 q 324 602 306 621 q 367 583 342 583 q 419 606 396 583 q 443 657 443 628 q 426 701 443 682 q 383 719 408 719 q 330 697 354 719 q 306 646 306 675 m 286 642 q 315 710 286 682 q 385 739 344 739 q 441 717 419 739 q 463 661 463 694 q 433 592 463 621 q 364 564 404 564 q 308 586 329 564 q 286 642 286 608 m 65 236 q 82 148 65 189 q 128 76 99 107 q 197 28 157 46 q 286 11 238 11 q 393 33 342 11 q 484 92 444 54 q 547 179 524 129 q 569 286 569 229 q 553 375 569 333 q 506 447 536 417 q 435 495 476 478 q 347 513 394 513 q 240 490 290 513 q 150 431 189 468 q 88 342 111 393 q 65 236 65 292 m 46 233 q 71 349 46 294 q 138 444 96 403 q 234 508 179 485 q 350 532 289 532 q 498 484 436 532 q 581 361 560 436 q 592 441 586 401 q 606 521 599 481 l 619 521 l 556 0 l 536 0 l 546 75 q 551 119 549 97 q 557 163 554 140 q 509 94 538 125 q 444 40 481 63 q 367 4 408 17 q 283 -8 326 -8 q 188 10 232 -8 q 113 62 144 29 q 64 138 82 94 q 46 233 46 182 z "},"v":{"ha":551,"x_min":47,"x_max":542,"o":"m 226 -32 q 178 106 200 38 q 137 244 157 175 q 95 383 117 314 q 47 521 74 451 l 68 521 q 111 394 92 458 q 149 267 131 331 q 188 139 168 203 q 232 11 208 75 q 376 266 311 139 q 521 521 442 393 l 542 521 q 460 383 499 451 q 384 244 422 314 q 308 106 346 175 q 226 -32 269 38 z "},"j":{"ha":228,"x_min":-47,"x_max":182,"o":"m 125 692 q 135 713 125 704 q 157 722 144 722 q 175 715 168 722 q 182 697 182 708 q 172 676 182 685 q 150 667 163 667 q 132 674 139 667 q 125 692 125 681 m -32 -250 q -40 -244 -36 -247 q -47 -237 -43 -240 q 21 -142 -7 -199 q 57 -15 49 -86 l 122 521 l 142 521 l 76 -10 q 38 -149 67 -89 q -32 -250 10 -210 z "},"s":{"ha":436,"x_min":18,"x_max":365,"o":"m 365 467 q 358 460 363 464 q 350 453 354 456 q 326 477 340 467 q 296 494 313 488 q 263 503 279 500 q 232 507 246 507 q 190 501 213 507 q 147 480 167 494 q 113 442 126 465 q 99 388 99 419 q 117 334 99 354 q 163 300 136 314 q 223 276 190 286 q 283 251 256 265 q 328 213 310 236 q 347 153 347 190 q 335 92 347 122 q 301 40 324 63 q 244 3 278 17 q 168 -11 211 -11 q 87 3 131 -11 q 18 54 43 18 l 35 67 q 58 43 42 54 q 94 24 75 32 q 135 13 114 17 q 172 8 156 8 q 217 15 190 8 q 268 38 243 22 q 310 79 293 53 q 328 146 328 106 q 309 203 328 182 q 263 238 290 224 q 203 263 236 251 q 144 288 171 274 q 98 324 117 301 q 79 383 79 346 q 93 447 79 419 q 129 491 107 474 q 179 517 151 508 q 235 526 207 526 q 303 513 265 526 q 365 467 340 500 z "},"k":{"ha":504,"x_min":58,"x_max":464,"o":"m 453 533 q 458 526 456 531 q 464 519 461 522 q 351 423 404 469 q 238 326 297 376 q 337 163 286 244 q 436 0 388 82 l 411 0 q 315 156 363 79 q 219 313 267 233 q 162 264 190 289 q 104 215 133 239 l 78 0 l 58 0 l 186 1042 l 206 1042 l 108 244 q 280 389 196 319 q 453 533 364 458 z "},"y":{"ha":558,"x_min":50,"x_max":544,"o":"m 114 -250 l 89 -250 l 218 -17 l 50 521 l 71 521 l 235 11 l 524 521 l 544 521 l 114 -250 z "},"ø":{"ha":664,"x_min":40,"x_max":592,"o":"m 54 14 q 121 83 82 42 q 205 171 160 124 q 298 267 250 218 q 391 364 346 317 q 475 452 436 411 q 542 521 514 493 l 553 508 q 486 438 525 479 q 402 351 447 397 q 308 254 357 304 q 215 158 260 204 q 131 70 169 111 q 64 0 92 29 l 54 14 m 47 261 q 81 367 54 317 q 149 453 108 417 q 242 512 190 490 q 350 533 293 533 q 446 515 401 533 q 523 463 490 496 q 574 385 556 429 q 592 289 592 340 q 566 174 592 228 q 498 79 540 119 q 399 15 456 39 q 283 -8 343 -8 q 181 13 226 -8 q 103 70 135 33 q 56 156 71 107 q 47 261 40 204 m 67 261 q 74 163 60 208 q 118 84 89 118 q 190 31 147 50 q 286 11 233 11 q 393 33 342 11 q 484 92 444 54 q 547 179 524 129 q 569 286 569 229 q 553 375 569 333 q 506 447 536 417 q 435 495 476 478 q 347 513 394 513 q 247 493 294 513 q 161 439 199 474 q 98 358 124 404 q 67 261 72 313 z "},"w":{"ha":875,"x_min":47,"x_max":864,"o":"m 419 369 q 400 426 408 399 q 384 476 392 450 q 369 521 376 501 l 390 521 l 554 11 l 843 521 l 864 521 q 820 444 844 486 q 770 356 796 401 q 718 265 744 311 q 667 175 692 218 q 549 -32 610 74 l 428 349 l 226 -32 q 160 175 193 74 q 101 356 132 263 q 47 521 69 450 l 68 521 q 90 450 78 489 q 116 369 103 411 q 144 285 129 328 q 171 203 158 242 q 232 11 201 108 l 419 369 z "},"x":{"ha":485,"x_min":-1,"x_max":460,"o":"m 217 260 q 137 390 176 326 q 57 521 97 454 l 82 521 q 157 398 119 458 q 231 275 194 338 q 334 397 283 338 q 436 519 385 457 l 460 519 q 350 389 404 453 q 240 258 296 325 l 399 0 l 376 0 q 301 122 339 61 q 226 243 264 182 q 125 122 175 182 q 24 0 75 61 l -1 0 q 108 130 54 65 q 217 260 161 194 z "},"z":{"ha":485,"x_min":1,"x_max":460,"o":"m 389 0 l 1 0 l 424 501 l 136 501 q 76 513 93 501 q 61 564 58 524 l 61 569 l 79 569 l 78 553 q 86 531 76 540 q 119 521 96 521 l 460 521 l 38 19 l 392 19 l 389 0 z "},"o":{"ha":664,"x_min":40,"x_max":592,"o":"m 47 261 q 81 367 54 317 q 149 453 108 417 q 242 512 190 490 q 350 533 293 533 q 446 515 401 533 q 523 463 490 496 q 574 385 556 429 q 592 289 592 340 q 566 174 592 228 q 498 79 540 119 q 399 15 456 39 q 283 -8 343 -8 q 181 13 226 -8 q 103 70 135 33 q 56 156 71 107 q 47 261 40 204 m 67 261 q 74 163 60 208 q 118 84 89 118 q 190 31 147 50 q 286 11 233 11 q 393 33 342 11 q 484 92 444 54 q 547 179 524 129 q 569 286 569 229 q 553 375 569 333 q 506 447 536 417 q 435 495 476 478 q 347 513 394 513 q 247 493 294 513 q 161 439 199 474 q 98 358 124 404 q 67 261 72 313 z "},"æ":{"ha":858,"x_min":28,"x_max":819,"o":"m 426 450 q 374 494 411 479 q 271 510 338 510 q 165 496 203 510 q 96 461 128 482 l 86 481 q 166 517 118 503 q 281 532 214 532 q 389 514 350 532 q 444 464 428 496 l 426 450 m 422 104 q 388 51 410 72 q 338 15 367 29 q 274 -5 308 1 q 204 -11 240 -11 q 129 1 163 -11 q 74 32 96 13 q 40 77 51 51 q 28 131 28 103 q 44 192 28 165 q 88 236 61 218 q 147 263 114 254 q 210 271 179 271 l 318 271 l 314 247 l 231 247 q 143 236 178 247 q 88 208 108 225 q 60 171 68 192 q 51 131 51 150 q 66 75 51 97 q 104 38 81 53 q 157 17 128 24 q 217 11 186 11 q 349 47 299 11 q 410 129 399 82 l 422 104 m 735 64 q 644 11 694 31 q 539 -8 593 -8 q 444 10 488 -8 q 369 62 400 29 q 319 138 338 94 q 301 233 301 182 q 326 349 301 294 q 393 444 351 403 q 490 509 435 485 q 606 533 544 533 q 744 484 692 533 q 819 360 797 435 q 702 315 765 339 q 574 265 639 290 q 447 216 510 240 q 328 169 383 192 q 404 55 347 99 q 542 11 461 11 q 638 28 592 11 q 721 78 683 46 l 735 64 m 794 369 q 725 472 772 432 q 603 513 678 513 q 495 490 546 513 q 405 430 444 468 q 342 340 365 392 q 319 231 319 289 q 320 209 319 221 q 324 188 321 197 q 438 232 378 208 q 558 278 497 256 q 680 325 619 301 q 794 369 740 349 z "},"A":{"ha":886,"x_min":-6,"x_max":800,"o":"m 238 442 l 667 442 l 669 461 l 240 461 l 238 442 m 779 0 q 652 469 710 235 q 525 938 594 703 q 521 955 522 946 q 517 972 519 964 q 508 955 513 964 q 500 938 504 946 q 258 469 372 703 q 15 0 143 235 l -6 0 q 258 508 133 256 q 522 1017 383 761 q 661 508 599 761 q 800 0 724 256 l 779 0 z "},"ï":{"ha":228,"x_min":11,"x_max":297,"o":"m 78 0 l 58 0 l 122 521 l 142 521 l 78 0 m 240 692 q 250 713 240 704 q 272 722 260 722 q 290 715 283 722 q 297 697 297 708 q 288 676 297 685 q 265 667 278 667 q 247 674 254 667 q 240 692 240 681 m 11 692 q 21 713 11 704 q 43 722 31 722 q 61 715 54 722 q 68 697 68 708 q 58 676 68 685 q 36 667 49 667 q 18 674 25 667 q 11 692 11 681 z "},"ý":{"ha":557,"x_min":49,"x_max":543,"o":"m 114 -250 l 88 -250 q 120 -190 107 -217 q 147 -137 133 -164 q 177 -78 161 -110 q 217 -1 193 -46 q 173 129 193 64 q 133 260 153 194 q 94 390 114 325 q 49 521 74 456 l 69 521 q 113 394 93 458 q 151 267 132 331 q 190 139 169 203 q 233 11 210 75 q 378 266 313 139 q 522 521 443 393 l 543 521 l 114 -250 m 332 665 q 406 758 368 711 q 479 850 443 804 l 501 850 q 428 758 465 804 q 354 665 390 711 l 332 665 z "},"ÿ":{"ha":557,"x_min":49,"x_max":543,"o":"m 114 -250 l 88 -250 q 120 -190 107 -217 q 147 -137 133 -164 q 177 -78 161 -110 q 217 -1 193 -46 q 173 129 193 64 q 133 260 153 194 q 94 390 114 325 q 49 521 74 456 l 69 521 q 113 394 93 458 q 151 267 132 331 q 190 139 169 203 q 233 11 210 75 q 378 266 313 139 q 522 521 443 393 l 543 521 l 114 -250 m 442 692 q 451 713 442 704 q 474 722 461 722 q 491 715 485 722 q 497 697 497 708 q 488 676 497 685 q 467 667 479 667 q 449 674 456 667 q 442 692 442 681 m 213 692 q 222 713 213 704 q 244 722 232 722 q 262 715 256 722 q 268 697 268 708 q 259 676 268 685 q 238 667 250 667 q 219 674 226 667 q 213 692 213 681 z "},"B":{"ha":782,"x_min":119,"x_max":681,"o":"m 256 953 l 200 497 l 404 497 q 513 517 465 497 q 594 574 561 538 q 645 658 628 610 q 663 765 663 707 q 601 909 663 865 q 440 953 540 953 l 256 953 m 197 478 l 142 19 l 347 19 q 463 35 407 19 q 560 81 518 50 q 628 160 603 113 q 653 269 653 207 q 630 363 653 324 q 569 428 607 403 q 481 465 531 453 q 376 478 431 478 l 197 478 m 119 0 l 239 972 l 426 972 q 611 923 542 972 q 681 761 681 874 q 670 674 681 717 q 637 594 660 631 q 577 531 614 558 q 486 489 540 503 q 558 463 524 481 q 617 419 592 446 q 658 356 643 392 q 672 275 672 321 q 644 157 672 208 q 571 71 617 106 q 466 18 525 36 q 346 0 407 0 l 119 0 z "},"D":{"ha":988,"x_min":119,"x_max":918,"o":"m 239 972 l 438 972 q 663 933 571 972 q 811 832 754 894 q 893 692 868 769 q 918 538 918 614 q 872 317 918 417 q 749 147 826 218 q 573 38 672 76 q 365 0 474 0 l 119 0 l 239 972 m 376 19 q 572 56 478 19 q 740 160 667 93 q 856 323 813 228 q 900 535 900 418 q 876 683 900 608 q 799 817 853 757 q 658 914 744 876 q 447 951 572 951 l 256 951 q 199 485 228 717 q 142 19 169 254 l 376 19 z "},"E":{"ha":842,"x_min":119,"x_max":815,"o":"m 119 0 l 239 972 l 815 972 l 813 953 l 256 953 l 200 500 l 703 500 l 700 481 l 197 481 l 142 19 l 718 19 l 715 0 l 119 0 z "},"H":{"ha":1017,"x_min":119,"x_max":928,"o":"m 119 0 l 239 972 l 258 972 l 200 500 l 844 500 l 903 972 l 928 972 q 865 486 896 728 q 803 0 835 244 l 783 0 l 842 481 l 197 481 l 139 0 l 119 0 z "},"I":{"ha":350,"x_min":119,"x_max":258,"o":"m 239 972 l 258 972 l 139 0 l 119 0 l 239 972 z "},"J":{"ha":356,"x_min":-135,"x_max":265,"o":"m -135 -197 l -132 -178 q -35 -153 -81 -175 q 48 -92 11 -132 q 110 3 85 -53 q 143 129 135 58 l 247 972 l 265 972 l 161 125 q 124 -12 151 47 q 56 -111 96 -71 q -33 -174 17 -151 q -135 -197 -82 -196 z "},"K":{"ha":814,"x_min":119,"x_max":819,"o":"m 735 0 q 544 288 639 144 q 353 575 449 431 q 272 507 313 540 q 192 439 232 474 q 165 219 178 329 q 139 0 153 110 l 119 0 l 239 972 l 258 972 l 200 500 q 197 480 199 489 q 194 460 196 471 q 208 474 201 467 q 221 488 214 481 q 505 730 364 610 q 789 972 646 850 l 819 972 l 369 589 q 566 294 469 442 q 763 0 663 147 l 735 0 z "},"M":{"ha":1236,"x_min":119,"x_max":1150,"o":"m 244 1017 q 344 835 297 919 q 435 673 390 751 q 524 517 479 594 q 617 357 568 440 q 708 474 651 401 q 836 635 765 547 q 988 822 907 724 q 1150 1017 1068 921 l 1025 0 l 1006 0 l 1115 896 q 1120 927 1118 911 q 1125 958 1122 943 q 857 628 983 789 q 611 317 731 467 q 552 413 585 357 q 485 533 519 469 q 415 660 450 596 q 349 783 379 725 q 294 886 318 840 q 256 958 269 932 q 252 927 253 943 q 249 896 251 911 l 139 0 l 119 0 l 244 1017 z "},"N":{"ha":1124,"x_min":119,"x_max":1032,"o":"m 1032 972 l 907 -44 q 583 447 739 204 q 275 931 426 689 q 264 949 269 940 q 253 967 258 957 l 253 922 l 139 0 l 119 0 l 244 1017 q 408 767 329 890 q 563 523 486 644 q 717 281 640 401 q 875 39 794 161 q 886 21 881 29 q 897 3 892 13 q 899 25 899 14 q 899 47 899 36 l 1013 972 l 1032 972 z "},"P":{"ha":711,"x_min":119,"x_max":682,"o":"m 196 465 l 356 465 q 503 495 444 465 q 598 567 563 525 q 648 658 633 610 q 663 744 663 707 q 644 831 663 792 q 594 897 626 869 q 516 938 561 924 q 417 953 471 953 l 256 953 l 196 465 m 119 0 l 239 972 l 433 972 q 515 960 471 972 q 595 922 558 949 q 657 852 632 896 q 682 746 682 808 q 662 637 682 690 q 601 541 642 583 q 497 472 560 499 q 349 446 433 446 l 193 446 l 139 0 l 119 0 z "},"R":{"ha":786,"x_min":119,"x_max":694,"o":"m 471 468 l 694 0 l 669 0 l 449 468 l 471 468 m 196 465 l 356 465 q 503 496 444 465 q 598 570 563 526 q 648 662 633 614 q 663 746 663 710 q 644 830 663 792 q 594 895 626 868 q 516 938 561 922 q 417 953 471 953 l 256 953 l 196 465 m 119 0 l 239 972 l 433 972 q 515 960 471 972 q 595 922 558 949 q 657 852 632 896 q 682 746 682 808 q 662 637 682 690 q 601 541 642 583 q 497 472 560 499 q 349 446 433 446 l 193 446 l 139 0 l 119 0 z "},"U":{"ha":928,"x_min":135,"x_max":850,"o":"m 417 -11 q 295 10 350 -11 q 203 72 240 31 q 151 174 167 113 q 144 314 135 235 l 225 972 l 244 972 l 164 318 q 169 185 154 243 q 218 88 183 128 q 304 28 253 49 q 419 8 356 8 q 538 28 482 8 q 638 88 594 49 q 711 185 682 128 q 750 318 740 243 l 831 972 l 850 972 l 769 314 q 728 174 760 235 q 649 72 696 113 q 543 10 603 31 q 417 -11 483 -11 z "},"Y":{"ha":826,"x_min":113,"x_max":861,"o":"m 422 364 l 378 0 l 358 0 l 403 364 q 258 668 329 517 q 113 972 186 819 l 136 972 q 270 694 203 832 q 403 414 338 556 l 415 378 q 426 396 422 388 q 436 414 431 404 q 637 693 536 554 q 838 972 738 832 l 861 972 l 422 364 z "},"~":{"ha":649,"x_min":163,"x_max":565,"o":"m 351 690 q 317 724 332 715 q 282 732 301 732 q 256 728 271 732 q 226 717 240 725 q 199 694 211 708 q 181 656 186 679 q 172 657 176 657 q 163 658 167 657 q 210 731 172 710 q 288 751 249 751 q 336 737 315 751 q 376 699 357 722 q 412 665 396 674 q 447 657 428 657 q 474 660 458 657 q 503 672 489 664 q 531 695 518 681 q 549 733 543 710 q 558 732 553 732 q 565 731 563 732 q 517 658 556 679 q 440 638 479 638 q 392 652 413 638 q 351 690 371 667 z "},"ñ":{"ha":607,"x_min":58,"x_max":553,"o":"m 122 521 l 136 521 l 121 385 q 223 490 157 450 q 368 531 289 531 q 479 488 442 531 q 510 375 517 444 l 464 0 l 444 0 l 492 385 q 466 472 496 435 q 375 511 436 508 q 283 496 328 511 q 203 453 239 481 q 144 388 168 426 q 115 306 121 350 l 78 0 l 58 0 l 122 521 m 339 674 q 303 707 319 699 q 268 715 288 715 q 242 712 257 715 q 212 700 226 708 q 185 677 197 692 q 167 639 172 663 q 159 640 164 640 q 150 642 154 640 q 198 714 160 693 q 275 735 236 735 q 324 720 303 735 q 364 682 344 706 q 399 649 383 657 q 435 640 415 640 q 461 644 446 640 q 491 656 476 647 q 517 678 506 664 q 535 717 529 693 q 544 715 539 715 q 553 714 549 715 q 505 642 543 663 q 428 621 467 621 q 379 635 400 621 q 339 674 358 650 z "},"F":{"ha":763,"x_min":119,"x_max":760,"o":"m 119 0 l 239 972 l 760 972 l 757 953 l 256 953 l 199 486 l 646 486 l 643 467 l 196 467 l 139 0 l 119 0 z "},"L":{"ha":758,"x_min":119,"x_max":704,"o":"m 119 0 l 239 972 l 258 972 l 142 19 l 704 19 l 701 0 l 119 0 z "},"C":{"ha":899,"x_min":94,"x_max":901,"o":"m 796 58 q 670 8 736 26 q 529 -11 604 -11 q 347 24 428 -11 q 210 118 267 58 q 124 258 154 178 q 94 428 94 338 q 141 644 94 543 q 265 821 188 746 q 443 940 342 896 q 656 983 544 983 q 788 965 726 983 q 901 914 849 947 l 889 897 q 781 947 840 929 q 654 964 721 964 q 450 922 547 964 q 278 806 353 879 q 158 636 203 733 q 114 428 114 539 q 142 266 114 342 q 223 133 169 190 q 353 42 276 75 q 526 8 429 8 q 663 26 599 8 q 785 75 726 43 l 796 58 z "},"Q":{"ha":1168,"x_min":94,"x_max":1097,"o":"m 94 435 q 141 647 94 547 q 265 821 188 746 q 443 940 342 896 q 656 983 544 983 q 832 949 751 983 q 972 853 913 914 q 1064 710 1031 792 q 1097 535 1097 628 q 1067 365 1097 446 q 985 217 1038 285 q 863 99 933 150 q 710 19 792 49 l 1067 19 l 1064 0 l 638 0 q 533 -11 582 -11 q 358 24 439 -11 q 219 119 278 58 q 128 260 161 179 q 94 435 94 342 m 114 435 q 145 268 114 346 q 233 133 176 190 q 365 42 289 75 q 532 8 442 8 q 736 50 638 8 q 910 163 835 92 q 1031 330 986 235 q 1076 532 1076 425 q 1044 700 1076 621 q 956 838 1013 779 q 822 930 899 896 q 653 964 744 964 q 450 922 547 964 q 278 807 353 879 q 158 638 203 735 q 114 435 114 542 z "},"T":{"ha":688,"x_min":125,"x_max":703,"o":"m 703 972 l 700 953 l 422 953 l 306 0 l 286 0 l 403 953 l 125 953 l 128 972 l 703 972 z "},"‹":{"ha":399,"x_min":65,"x_max":331,"o":"m 275 107 l 65 332 q 198 444 132 389 q 331 556 264 499 l 328 532 q 217 432 272 482 q 106 332 161 382 q 192 231 149 281 q 278 129 235 181 l 275 107 z "},">":{"ha":779,"x_min":71,"x_max":722,"o":"m 71 -21 l 74 1 l 686 331 q 420 495 553 414 q 154 660 288 576 l 157 682 q 440 506 300 594 q 722 331 579 418 q 397 155 558 243 q 71 -21 235 67 z "},"<":{"ha":775,"x_min":46,"x_max":697,"o":"m 614 1 l 611 -21 q 328 155 468 67 q 46 331 189 243 q 372 506 210 418 q 697 682 533 594 l 694 660 l 82 331 q 348 166 215 247 q 614 1 481 85 z "},"=":{"ha":931,"x_min":92,"x_max":831,"o":"m 797 228 l 794 208 l 92 208 l 94 228 l 797 228 m 831 497 l 828 478 l 125 478 l 128 497 l 831 497 z "},"@":{"ha":1281,"x_min":64,"x_max":1171,"o":"m 829 18 l 957 18 q 1099 93 1046 18 q 1151 315 1151 168 q 1116 502 1151 415 q 1018 653 1081 589 q 869 756 956 718 q 682 793 783 793 q 456 747 564 793 q 265 620 347 700 q 133 433 182 540 q 83 207 83 326 q 118 21 83 107 q 215 -130 153 -65 q 364 -231 278 -194 q 551 -268 450 -268 q 717 -242 638 -268 q 868 -171 797 -215 q 873 -178 871 -175 q 878 -186 875 -182 q 722 -260 803 -233 q 549 -287 640 -287 q 354 -249 443 -287 q 201 -144 265 -211 q 100 13 136 -78 q 64 207 64 103 q 115 441 64 331 q 252 634 167 551 q 450 765 338 717 q 685 813 563 813 q 879 774 790 813 q 1033 669 968 736 q 1134 511 1097 601 q 1171 317 1171 421 q 1151 156 1171 218 q 1099 60 1131 94 q 1026 13 1067 25 q 946 0 986 0 l 828 0 l 829 18 m 344 236 q 361 148 344 189 q 407 76 378 107 q 476 28 436 46 q 565 11 517 11 q 672 33 621 11 q 763 92 724 54 q 826 179 803 129 q 849 286 849 229 q 832 375 849 333 q 786 447 815 417 q 716 495 757 478 q 626 513 675 513 q 519 490 569 513 q 429 431 468 468 q 367 342 390 393 q 344 236 344 292 m 324 233 q 349 349 324 294 q 416 444 374 403 q 513 508 458 485 q 629 532 568 532 q 777 484 715 532 q 860 361 839 436 q 871 441 864 401 q 885 521 878 481 l 899 521 l 835 0 l 814 0 l 824 75 q 830 119 826 97 q 836 163 833 140 q 788 94 817 125 q 723 40 758 63 q 647 4 688 17 q 563 -8 606 -8 q 466 10 510 -8 q 391 62 422 29 q 342 138 360 94 q 324 233 324 182 z "},"?":{"ha":668,"x_min":110,"x_max":629,"o":"m 126 828 q 117 830 122 829 q 110 832 113 831 q 157 906 128 872 q 223 965 186 940 q 302 1003 260 989 q 389 1017 344 1017 q 486 998 442 1017 q 563 946 531 979 q 612 868 594 913 q 629 774 629 824 q 585 626 629 689 q 464 514 540 564 q 410 481 435 494 q 365 451 385 468 q 333 408 346 435 q 314 336 319 382 l 300 228 l 281 228 l 297 363 q 322 431 303 406 q 368 477 340 457 q 431 517 396 497 q 504 567 467 538 q 585 663 560 611 q 610 774 610 714 q 593 863 610 822 q 547 934 576 904 q 476 981 517 964 q 386 997 435 997 q 306 985 344 997 q 232 950 267 972 q 170 897 197 928 q 126 828 143 865 m 267 35 q 251 42 258 35 q 243 60 243 49 q 253 82 243 74 q 274 90 263 90 q 291 83 283 90 q 299 65 299 76 q 288 44 299 53 q 267 35 278 35 z "},"!":{"ha":313,"x_min":92,"x_max":247,"o":"m 117 50 q 99 58 107 50 q 93 78 92 67 q 103 98 94 90 q 122 106 113 106 q 141 98 133 106 q 147 78 149 90 q 137 58 146 67 q 117 50 128 50 m 228 1042 l 247 1042 l 147 231 l 128 231 l 228 1042 z "},":":{"ha":254,"x_min":57,"x_max":156,"o":"m 100 372 q 110 394 100 385 q 132 403 119 403 q 149 396 143 403 q 156 378 156 389 q 147 356 156 365 q 125 347 138 347 q 107 354 114 347 q 100 372 100 361 m 57 25 q 67 47 57 38 q 89 56 76 56 q 107 49 100 56 q 114 31 114 42 q 104 9 114 18 q 82 0 94 0 q 64 7 71 0 q 57 25 57 14 z "},";":{"ha":315,"x_min":-15,"x_max":213,"o":"m 157 372 q 166 394 157 385 q 188 403 175 403 q 206 396 199 403 q 213 378 213 389 q 203 356 213 365 q 181 347 193 347 q 163 354 169 347 q 157 372 157 361 m 158 119 q 81 -24 119 47 q 4 -167 43 -94 l -15 -167 q 56 -24 21 -94 q 126 119 90 47 l 158 119 z "},"\"":{"ha":433,"x_min":147,"x_max":399,"o":"m 332 656 l 374 1000 l 399 1000 q 375 828 388 913 q 351 656 363 743 l 332 656 m 147 656 l 189 1000 l 214 1000 q 190 828 203 913 q 167 656 178 743 l 147 656 z "},"#":{"ha":799,"x_min":61,"x_max":754,"o":"m 304 565 q 276 449 289 507 q 249 332 264 390 l 485 332 q 513 449 500 390 q 540 565 525 507 l 304 565 m 404 0 q 442 156 424 79 q 479 313 460 233 l 243 313 q 206 156 224 233 q 168 0 188 79 l 149 0 q 186 156 168 79 q 224 313 204 233 l 61 313 q 63 322 63 318 q 65 332 64 326 l 229 332 q 257 449 244 390 q 285 565 269 507 l 124 565 q 126 575 125 571 q 128 585 126 579 l 290 585 l 365 893 l 385 893 l 310 585 l 546 585 l 621 893 l 640 893 l 565 585 l 754 585 q 752 575 753 579 q 750 565 751 571 l 560 565 q 532 449 544 507 q 504 332 519 390 l 692 332 q 690 322 690 326 q 688 313 689 318 l 499 313 q 461 156 479 233 q 424 0 443 79 l 404 0 z "},"%":{"ha":869,"x_min":93,"x_max":776,"o":"m 488 143 q 521 59 488 93 q 606 25 554 25 q 662 36 635 25 q 710 67 689 47 q 743 113 731 88 q 756 168 756 139 q 722 253 756 218 q 638 288 689 288 q 581 276 608 288 q 533 244 554 264 q 500 199 513 225 q 488 143 488 172 m 603 6 q 506 44 544 6 q 468 142 468 83 q 483 206 468 175 q 521 258 497 236 q 576 294 544 281 q 640 307 607 307 q 738 268 699 307 q 776 171 776 229 q 762 107 776 138 q 723 54 747 76 q 667 19 699 32 q 603 6 636 6 m 113 526 q 146 442 113 476 q 231 408 179 408 q 287 419 260 408 q 335 451 314 431 q 368 497 356 471 q 381 551 381 522 q 347 636 381 601 q 263 671 314 671 q 206 659 233 671 q 158 628 179 647 q 125 582 138 608 q 113 526 113 556 m 228 389 q 131 428 169 389 q 93 525 93 467 q 108 589 93 558 q 146 642 122 619 q 201 677 169 664 q 265 690 232 690 q 363 651 324 690 q 401 554 401 613 q 387 490 401 521 q 348 438 372 460 q 292 402 324 415 q 228 389 261 389 m 167 0 q 417 347 293 175 q 665 694 540 519 l 688 694 q 439 347 563 519 q 189 0 315 175 l 167 0 z "},"’":{"ha":261,"x_min":147,"x_max":246,"o":"m 153 794 q 151 807 151 801 q 147 819 150 813 q 199 888 181 847 q 213 978 217 929 q 226 983 219 981 q 240 988 233 985 q 222 881 246 932 q 153 794 199 831 z "},"(":{"ha":351,"x_min":71,"x_max":386,"o":"m 71 303 q 99 535 71 425 q 172 740 126 646 q 273 909 217 833 q 386 1038 329 985 l 386 1006 q 281 881 333 953 q 186 721 228 810 q 118 528 144 632 q 92 308 92 425 q 103 153 92 228 q 136 15 115 79 q 183 -103 157 -50 q 239 -194 210 -156 q 235 -210 236 -203 q 231 -226 233 -218 q 169 -132 199 -187 q 118 -8 140 -76 q 83 138 96 60 q 71 303 71 217 z "},")":{"ha":350,"x_min":-28,"x_max":288,"o":"m 288 508 q 260 276 288 386 q 187 72 232 165 q 85 -98 142 -22 q -28 -226 29 -174 l -28 -194 q 78 -70 25 -142 q 172 90 131 1 q 240 283 214 179 q 267 503 267 386 q 255 658 267 583 q 222 797 243 732 q 175 914 201 861 q 119 1006 149 967 q 124 1022 122 1014 q 128 1038 125 1029 q 189 943 160 999 q 240 819 218 888 q 274 672 261 751 q 288 508 288 593 z "},"*":{"ha":588,"x_min":154,"x_max":532,"o":"m 364 799 q 436 754 400 776 q 508 710 472 732 q 501 699 504 704 q 493 689 497 694 q 422 735 457 713 q 350 781 386 757 q 338 692 343 736 q 325 603 332 647 l 306 603 l 328 779 q 246 735 286 757 q 164 692 206 714 q 159 702 161 697 q 154 713 157 707 q 237 756 196 735 q 319 800 278 778 q 248 846 283 824 q 176 892 213 868 q 182 900 179 896 q 188 908 185 904 q 260 863 224 885 q 332 818 296 842 l 354 1000 l 379 1000 q 367 909 372 954 q 354 818 361 864 q 440 863 397 840 q 524 907 482 885 l 532 890 q 447 844 489 867 q 364 799 406 822 z "},"+":{"ha":663,"x_min":74,"x_max":576,"o":"m 285 71 l 314 313 l 74 313 l 76 332 l 317 332 l 346 571 l 365 571 l 336 332 l 576 332 l 574 313 l 333 313 l 304 71 l 285 71 z "},"|":{"ha":306,"x_min":58,"x_max":236,"o":"m 58 -322 l 217 972 l 236 972 l 78 -322 l 58 -322 z "},"{":{"ha":375,"x_min":53,"x_max":413,"o":"m 53 399 l 57 432 q 115 452 92 433 q 154 499 139 471 q 178 559 169 526 q 190 619 186 592 l 221 872 q 243 969 229 935 q 276 1017 257 1003 q 317 1034 294 1032 q 361 1036 339 1036 l 413 1036 l 410 1017 l 331 1017 q 269 981 288 1017 q 239 861 250 944 l 214 653 q 193 546 206 588 q 165 478 181 504 q 131 439 149 453 q 93 415 113 425 q 124 390 110 404 q 149 350 139 376 q 161 283 158 324 q 156 178 164 242 l 129 -31 q 129 -150 118 -114 q 183 -186 140 -186 l 263 -186 l 260 -206 l 208 -206 q 159 -203 181 -206 q 124 -181 138 -200 q 108 -117 111 -161 q 115 8 106 -74 l 140 211 q 144 272 144 239 q 134 332 143 304 q 106 378 125 360 q 53 399 86 397 z "},"}":{"ha":374,"x_min":-26,"x_max":332,"o":"m 332 432 l 328 399 q 258 367 283 396 q 217 301 232 339 q 197 224 203 263 q 189 161 192 185 l 164 -42 q 142 -140 156 -106 q 109 -188 128 -174 q 69 -204 90 -203 q 25 -206 47 -206 l -26 -206 l -24 -186 l 56 -186 q 117 -150 99 -186 q 146 -31 135 -114 l 178 229 q 197 308 183 276 q 226 362 210 340 q 261 396 243 383 q 293 415 279 408 q 261 439 276 425 q 237 478 246 453 q 225 546 228 504 q 231 653 222 588 l 256 861 q 256 981 267 944 q 203 1017 246 1017 l 124 1017 l 126 1036 l 178 1036 q 222 1034 200 1036 q 258 1017 243 1032 q 278 969 272 1003 q 276 872 285 936 l 251 669 q 244 606 249 646 q 245 528 240 567 q 269 462 250 490 q 332 432 289 433 z "},"-":{"ha":454,"x_min":85,"x_max":343,"o":"m 85 256 l 88 275 l 343 275 l 340 256 l 85 256 z "},"/":{"ha":540,"x_min":18,"x_max":553,"o":"m 18 -26 q 276 498 149 238 q 533 1022 403 758 l 553 1022 q 295 498 422 758 q 38 -26 168 238 l 18 -26 z "},"\\":{"ha":529,"x_min":142,"x_max":418,"o":"m 161 1022 q 290 498 226 758 q 418 -26 353 238 l 399 -26 q 270 498 333 238 q 142 1022 207 758 l 161 1022 z "},"G":{"ha":942,"x_min":94,"x_max":901,"o":"m 839 417 l 794 58 q 670 8 736 26 q 533 -11 604 -11 q 349 23 431 -11 q 210 117 267 57 q 124 257 154 176 q 94 429 94 338 q 141 644 94 543 q 265 820 188 744 q 443 940 342 896 q 656 983 544 983 q 788 965 726 983 q 901 914 849 947 l 889 897 q 653 964 786 964 q 450 922 547 964 q 278 806 353 879 q 158 636 203 733 q 114 429 114 539 q 142 265 114 342 q 224 131 171 188 q 356 41 278 74 q 532 8 433 8 q 658 24 597 8 q 776 71 719 40 l 817 397 l 578 397 l 581 417 l 839 417 z "},"V":{"ha":883,"x_min":113,"x_max":918,"o":"m 133 972 q 260 503 203 738 q 388 35 318 269 q 392 17 390 26 q 396 0 393 8 q 404 17 400 8 q 413 35 408 26 q 654 503 539 269 q 897 972 769 738 l 918 972 q 654 464 779 717 q 390 -44 529 211 q 251 464 314 211 q 113 972 189 717 l 133 972 z "},"S":{"ha":742,"x_min":38,"x_max":681,"o":"m 681 926 l 671 911 q 575 944 635 928 q 454 960 515 960 q 342 942 393 960 q 256 894 292 924 q 200 824 219 864 q 181 740 181 783 q 215 649 181 683 q 303 590 250 615 q 416 544 356 565 q 529 491 476 522 q 617 413 582 460 q 651 292 651 367 q 625 166 651 222 q 553 70 599 110 q 447 10 508 31 q 314 -11 385 -11 q 211 1 257 -11 q 130 31 165 14 q 72 64 94 47 q 38 88 49 81 l 51 106 q 98 74 69 90 q 162 42 126 57 q 238 18 197 28 q 321 8 278 8 q 432 26 376 8 q 532 78 488 43 q 604 165 576 113 q 632 288 632 217 q 597 404 632 360 q 510 478 563 449 q 397 528 457 507 q 283 576 336 550 q 196 638 231 601 q 161 735 161 674 q 184 831 161 786 q 247 908 207 875 q 338 959 286 940 q 449 978 390 978 q 504 974 474 978 q 566 964 535 971 q 627 947 597 957 q 681 926 657 938 z "},"Z":{"ha":865,"x_min":-14,"x_max":860,"o":"m 200 972 l 860 972 l 24 19 l 789 19 l 786 0 l -14 0 q 403 484 194 250 q 818 953 611 718 l 217 953 q 156 964 174 953 q 142 1015 139 975 l 142 1021 l 164 1021 l 163 1004 q 169 982 161 992 q 200 972 176 972 z "},"W":{"ha":1289,"x_min":114,"x_max":1325,"o":"m 1325 972 q 1249 831 1290 908 q 1165 669 1208 753 q 1076 501 1121 586 q 992 336 1032 415 q 797 -44 896 149 l 660 510 l 654 539 l 640 510 q 547 301 593 403 q 507 212 528 258 q 465 119 486 165 q 426 32 444 74 q 392 -44 407 -10 q 253 464 315 211 q 114 972 190 717 l 135 972 q 172 842 151 914 q 213 694 192 771 q 255 538 233 617 q 296 386 276 460 q 389 35 342 214 l 397 0 l 411 35 l 649 567 l 547 972 l 568 972 q 657 617 614 789 q 694 464 675 543 q 732 308 714 385 q 766 162 750 232 q 794 35 782 92 q 799 17 797 26 q 803 0 800 8 q 808 10 806 4 q 813 21 810 15 q 819 35 815 26 q 997 386 910 214 q 1075 538 1035 460 q 1156 694 1115 617 q 1234 842 1196 771 q 1304 972 1272 914 l 1325 972 z "},"X":{"ha":749,"x_min":-3,"x_max":764,"o":"m 378 500 q 254 736 315 618 q 131 972 193 854 l 153 972 q 270 751 211 861 q 388 529 329 640 q 392 520 390 525 q 396 511 393 515 q 403 520 400 515 q 410 529 406 525 q 578 751 494 640 q 747 972 663 861 l 764 972 q 583 735 672 851 q 403 499 494 619 q 535 249 468 374 q 667 0 601 125 l 643 0 l 436 388 q 412 438 424 411 q 385 488 400 465 q 378 478 382 483 q 372 469 375 474 q 193 235 283 351 q 14 0 103 118 l -3 0 q 188 250 93 126 q 378 500 282 374 z "},"Æ":{"ha":863,"x_min":-4,"x_max":854,"o":"m 242 461 l 449 461 l 446 442 l 239 442 l 242 461 m 518 972 q 510 955 514 964 q 501 938 506 946 q 378 703 438 821 q 259 469 318 586 q 140 234 200 351 q 17 0 81 117 l -4 0 q 126 247 65 126 q 248 485 188 367 q 369 724 308 604 q 500 972 431 844 l 518 972 m 381 0 l 500 972 l 854 972 l 851 953 l 517 953 l 461 500 l 742 500 l 739 481 l 458 481 l 403 19 l 757 19 l 754 0 l 381 0 z "},"Ñ":{"ha":1122,"x_min":118,"x_max":1031,"o":"m 1031 972 l 906 -44 q 581 447 738 204 q 274 931 425 689 q 263 949 268 940 q 251 967 257 957 l 251 922 l 138 0 l 118 0 l 243 1017 q 406 767 328 890 q 562 523 485 644 q 716 281 639 401 q 874 39 793 161 q 885 21 879 29 q 896 3 890 13 q 897 25 897 14 q 897 47 897 36 l 1011 972 l 1031 972 m 658 1097 q 624 1131 639 1122 q 589 1139 608 1139 q 563 1135 578 1139 q 533 1124 547 1132 q 506 1101 518 1115 q 488 1063 493 1086 q 478 1064 483 1064 q 469 1065 474 1064 q 517 1138 479 1117 q 594 1158 556 1158 q 644 1144 622 1158 q 685 1106 665 1129 q 719 1072 704 1081 q 754 1064 735 1064 q 781 1067 765 1064 q 810 1079 796 1071 q 838 1102 825 1088 q 856 1140 850 1117 q 865 1139 860 1139 q 874 1138 869 1139 q 825 1065 864 1086 q 747 1044 786 1044 q 699 1059 719 1044 q 658 1097 678 1074 z "},"Å":{"ha":886,"x_min":-6,"x_max":800,"o":"m 472 1153 q 490 1109 472 1128 q 532 1090 507 1090 q 585 1113 561 1090 q 610 1164 610 1135 q 592 1208 610 1189 q 549 1226 574 1226 q 496 1204 519 1226 q 472 1153 472 1182 m 453 1149 q 482 1217 453 1189 q 551 1246 511 1246 q 608 1224 586 1246 q 629 1168 629 1201 q 600 1099 629 1128 q 531 1071 571 1071 q 474 1093 496 1071 q 453 1149 453 1115 m 238 442 l 667 442 l 669 461 l 240 461 l 238 442 m 779 0 q 652 469 710 235 q 525 938 594 703 q 521 955 522 946 q 517 972 519 964 q 508 955 513 964 q 500 938 504 946 q 258 469 372 703 q 15 0 143 235 l -6 0 q 258 508 133 256 q 522 1017 383 761 q 661 508 599 761 q 800 0 724 256 l 779 0 z "},"Á":{"ha":886,"x_min":-6,"x_max":800,"o":"m 238 442 l 667 442 l 669 461 l 240 461 l 238 442 m 800 0 q 661 508 724 256 q 522 1017 599 761 q 258 508 383 761 q -6 0 133 256 l 15 0 q 258 469 143 235 q 500 938 372 703 q 508 955 504 946 q 517 972 513 964 q 521 955 519 964 q 525 938 522 946 q 652 469 594 703 q 779 0 710 235 l 800 0 m 514 1042 q 588 1134 550 1088 q 661 1226 625 1181 l 683 1226 q 610 1134 647 1181 q 536 1042 572 1088 l 514 1042 z "},"É":{"ha":842,"x_min":119,"x_max":815,"o":"m 119 0 l 239 972 l 815 972 l 813 953 l 256 953 l 200 500 l 703 500 l 700 481 l 197 481 l 142 19 l 718 19 l 715 0 l 119 0 m 521 1042 q 594 1134 557 1088 q 668 1226 632 1181 l 690 1226 q 617 1134 654 1181 q 543 1042 579 1088 l 521 1042 z "},"Í":{"ha":350,"x_min":119,"x_max":396,"o":"m 239 972 l 258 972 l 139 0 l 119 0 l 239 972 m 226 1042 q 300 1134 263 1088 q 374 1226 338 1181 l 396 1226 q 322 1134 360 1181 q 249 1042 285 1088 l 226 1042 z "},"Ó":{"ha":1163,"x_min":85,"x_max":1096,"o":"m 97 485 q 160 678 110 588 q 285 837 210 769 q 456 944 361 904 q 654 983 551 983 q 831 949 750 983 q 970 853 911 914 q 1063 710 1029 792 q 1096 535 1096 628 q 1049 324 1096 424 q 925 151 1003 225 q 745 33 847 76 q 532 -11 643 -11 q 344 28 429 -11 q 199 134 258 67 q 113 292 140 201 q 97 485 85 382 m 117 483 q 131 299 104 385 q 215 148 158 213 q 352 46 271 83 q 531 8 433 8 q 735 50 636 8 q 909 163 833 92 q 1030 330 985 235 q 1075 532 1075 425 q 1043 700 1075 621 q 954 838 1011 779 q 820 930 897 896 q 651 964 743 964 q 462 926 553 964 q 298 822 371 888 q 177 669 225 757 q 117 483 129 582 m 622 1042 q 696 1134 658 1088 q 769 1226 733 1181 l 792 1226 q 718 1134 756 1181 q 644 1042 681 1088 l 622 1042 z "},"Ú":{"ha":928,"x_min":135,"x_max":850,"o":"m 417 -11 q 295 10 350 -11 q 203 72 240 31 q 151 174 167 113 q 144 314 135 235 l 225 972 l 244 972 l 164 318 q 169 185 154 243 q 218 88 183 128 q 304 28 253 49 q 419 8 356 8 q 538 28 482 8 q 638 88 594 49 q 711 185 682 128 q 750 318 740 243 l 831 972 l 850 972 l 769 314 q 728 174 760 235 q 649 72 696 113 q 543 10 603 31 q 417 -11 483 -11 m 522 1042 q 597 1134 560 1088 q 669 1226 633 1181 l 692 1226 q 619 1134 656 1181 q 544 1042 582 1088 l 522 1042 z "},"Ä":{"ha":886,"x_min":-6,"x_max":800,"o":"m 238 442 l 667 442 l 669 461 l 240 461 l 238 442 m 800 0 q 661 508 724 256 q 522 1017 599 761 q 258 508 383 761 q -6 0 133 256 l 15 0 q 258 469 143 235 q 500 938 372 703 q 508 955 504 946 q 517 972 513 964 q 521 955 519 964 q 525 938 522 946 q 652 469 594 703 q 779 0 710 235 l 800 0 m 621 1094 q 631 1116 621 1107 q 651 1125 640 1125 q 669 1118 663 1125 q 676 1100 676 1111 q 667 1078 676 1088 q 646 1069 658 1069 q 628 1076 635 1069 q 621 1094 621 1083 m 392 1094 q 401 1116 392 1107 q 422 1125 411 1125 q 440 1118 433 1125 q 447 1100 447 1111 q 438 1078 447 1088 q 417 1069 428 1069 q 399 1076 406 1069 q 392 1094 392 1083 z "},"Ë":{"ha":842,"x_min":119,"x_max":815,"o":"m 119 0 l 239 972 l 815 972 l 813 953 l 256 953 l 200 500 l 703 500 l 700 481 l 197 481 l 142 19 l 718 19 l 715 0 l 119 0 m 642 1094 q 651 1116 642 1107 q 672 1125 661 1125 q 690 1118 683 1125 q 697 1100 697 1111 q 688 1078 697 1088 q 667 1069 678 1069 q 649 1076 656 1069 q 642 1094 642 1083 m 413 1094 q 422 1116 413 1107 q 443 1125 432 1125 q 461 1118 454 1125 q 468 1100 468 1111 q 458 1078 468 1088 q 438 1069 449 1069 q 419 1076 426 1069 q 413 1094 413 1083 z "},"Ï":{"ha":350,"x_min":119,"x_max":407,"o":"m 239 972 l 258 972 l 139 0 l 119 0 l 239 972 m 351 1094 q 361 1116 351 1107 q 382 1125 371 1125 q 400 1118 393 1125 q 407 1100 407 1111 q 397 1078 407 1088 q 376 1069 388 1069 q 358 1076 365 1069 q 351 1094 351 1083 m 122 1094 q 132 1116 122 1107 q 153 1125 142 1125 q 171 1118 164 1125 q 178 1100 178 1111 q 168 1078 178 1088 q 147 1069 158 1069 q 129 1076 136 1069 q 122 1094 122 1083 z "},"Ö":{"ha":1163,"x_min":85,"x_max":1096,"o":"m 97 485 q 160 678 110 588 q 285 837 210 769 q 456 944 361 904 q 654 983 551 983 q 831 949 750 983 q 970 853 911 914 q 1063 710 1029 792 q 1096 535 1096 628 q 1049 324 1096 424 q 925 151 1003 225 q 745 33 847 76 q 532 -11 643 -11 q 344 28 429 -11 q 199 134 258 67 q 113 292 140 201 q 97 485 85 382 m 117 483 q 131 299 104 385 q 215 148 158 213 q 352 46 271 83 q 531 8 433 8 q 735 50 636 8 q 909 163 833 92 q 1030 330 985 235 q 1075 532 1075 425 q 1043 700 1075 621 q 954 838 1011 779 q 820 930 897 896 q 651 964 743 964 q 462 926 553 964 q 298 822 371 888 q 177 669 225 757 q 117 483 129 582 m 743 1094 q 753 1116 743 1107 q 774 1125 763 1125 q 792 1118 785 1125 q 799 1100 799 1111 q 789 1078 799 1088 q 768 1069 779 1069 q 750 1076 757 1069 q 743 1094 743 1083 m 514 1094 q 524 1116 514 1107 q 544 1125 533 1125 q 563 1118 556 1125 q 569 1100 569 1111 q 560 1078 569 1088 q 539 1069 550 1069 q 521 1076 528 1069 q 514 1094 514 1083 z "},"Ü":{"ha":928,"x_min":135,"x_max":850,"o":"m 417 -11 q 295 10 350 -11 q 203 72 240 31 q 151 174 167 113 q 144 314 135 235 l 225 972 l 244 972 l 164 318 q 169 185 154 243 q 218 88 183 128 q 304 28 253 49 q 419 8 356 8 q 538 28 482 8 q 638 88 594 49 q 711 185 682 128 q 750 318 740 243 l 831 972 l 850 972 l 769 314 q 728 174 760 235 q 649 72 696 113 q 543 10 603 31 q 417 -11 483 -11 m 657 1094 q 667 1116 657 1107 q 688 1125 676 1125 q 706 1118 699 1125 q 713 1100 713 1111 q 703 1078 713 1088 q 682 1069 693 1069 q 664 1076 671 1069 q 657 1094 657 1083 m 428 1094 q 438 1116 428 1107 q 458 1125 447 1125 q 476 1118 469 1125 q 483 1100 483 1111 q 474 1078 483 1088 q 453 1069 464 1069 q 435 1076 442 1069 q 428 1094 428 1083 z "},"À":{"ha":886,"x_min":-6,"x_max":800,"o":"m 238 442 l 667 442 l 669 461 l 240 461 l 238 442 m 800 0 q 661 508 724 256 q 522 1017 599 761 q 258 508 383 761 q -6 0 133 256 l 15 0 q 258 469 143 235 q 500 938 372 703 q 508 955 504 946 q 517 972 513 964 q 521 955 519 964 q 525 938 522 946 q 652 469 594 703 q 779 0 710 235 l 800 0 m 433 1226 q 485 1134 460 1181 q 536 1042 510 1088 l 514 1042 q 463 1134 488 1088 q 411 1226 438 1181 l 433 1226 z "},"È":{"ha":842,"x_min":119,"x_max":815,"o":"m 119 0 l 239 972 l 815 972 l 813 953 l 256 953 l 200 500 l 703 500 l 700 481 l 197 481 l 142 19 l 718 19 l 715 0 l 119 0 m 499 1226 q 550 1134 525 1181 q 601 1042 575 1088 l 579 1042 q 528 1134 553 1088 q 476 1226 503 1181 l 499 1226 z "},"Ì":{"ha":350,"x_min":119,"x_max":286,"o":"m 239 972 l 258 972 l 139 0 l 119 0 l 239 972 m 183 1226 q 235 1134 210 1181 q 286 1042 260 1088 l 264 1042 q 213 1134 238 1088 q 161 1226 188 1181 l 183 1226 z "},"Ò":{"ha":1163,"x_min":85,"x_max":1096,"o":"m 97 485 q 160 678 110 588 q 285 837 210 769 q 456 944 361 904 q 654 983 551 983 q 831 949 750 983 q 970 853 911 914 q 1063 710 1029 792 q 1096 535 1096 628 q 1049 324 1096 424 q 925 151 1003 225 q 745 33 847 76 q 532 -11 643 -11 q 344 28 429 -11 q 199 134 258 67 q 113 292 140 201 q 97 485 85 382 m 117 483 q 131 299 104 385 q 215 148 158 213 q 352 46 271 83 q 531 8 433 8 q 735 50 636 8 q 909 163 833 92 q 1030 330 985 235 q 1075 532 1075 425 q 1043 700 1075 621 q 954 838 1011 779 q 820 930 897 896 q 651 964 743 964 q 462 926 553 964 q 298 822 371 888 q 177 669 225 757 q 117 483 129 582 m 567 1226 q 618 1134 593 1181 q 669 1042 643 1088 l 647 1042 q 596 1134 621 1088 q 544 1226 571 1181 l 567 1226 z "},"Ù":{"ha":928,"x_min":135,"x_max":850,"o":"m 417 -11 q 295 10 350 -11 q 203 72 240 31 q 151 174 167 113 q 144 314 135 235 l 225 972 l 244 972 l 164 318 q 169 185 154 243 q 218 88 183 128 q 304 28 253 49 q 419 8 356 8 q 538 28 482 8 q 638 88 594 49 q 711 185 682 128 q 750 318 740 243 l 831 972 l 850 972 l 769 314 q 728 174 760 235 q 649 72 696 113 q 543 10 603 31 q 417 -11 483 -11 m 474 1226 q 526 1134 500 1181 q 576 1042 551 1088 l 554 1042 q 503 1134 529 1088 q 451 1226 478 1181 l 474 1226 z "},"Ý":{"ha":826,"x_min":113,"x_max":861,"o":"m 422 364 l 378 0 l 358 0 l 403 364 q 258 668 329 517 q 113 972 186 819 l 136 972 q 270 694 203 832 q 403 414 338 556 l 415 378 q 426 396 422 388 q 436 414 431 404 q 637 693 536 554 q 838 972 738 832 l 861 972 l 422 364 m 488 1042 q 562 1134 525 1088 q 635 1226 599 1181 l 657 1226 q 584 1134 621 1181 q 510 1042 547 1088 l 488 1042 z "},"¡":{"ha":308,"x_min":63,"x_max":219,"o":"m 194 700 q 213 692 206 700 q 218 672 219 683 q 208 652 217 660 q 188 644 199 644 q 170 652 178 644 q 164 672 163 660 q 175 692 165 683 q 194 700 185 700 m 163 519 l 182 519 l 82 -292 l 63 -292 l 163 519 z "},"Ø":{"ha":1161,"x_min":144,"x_max":1156,"o":"m 157 11 q 289 149 213 69 q 451 317 365 228 q 628 502 538 407 q 806 687 719 597 q 968 856 892 776 q 1100 994 1044 936 l 1110 983 q 978 846 1054 925 q 815 676 901 767 q 638 492 729 586 q 461 307 547 397 q 299 138 375 217 q 167 0 222 58 l 157 11 m 157 485 q 219 678 169 588 q 345 837 269 769 q 516 944 421 904 q 714 983 611 983 q 890 949 810 983 q 1030 853 971 914 q 1122 710 1089 792 q 1156 535 1156 628 q 1109 324 1156 424 q 985 151 1063 225 q 805 33 907 76 q 592 -11 703 -11 q 403 28 489 -11 q 259 134 318 67 q 172 292 200 201 q 157 485 144 382 m 176 483 q 191 299 164 385 q 274 148 218 213 q 412 46 331 83 q 590 8 493 8 q 794 50 696 8 q 969 163 893 92 q 1090 330 1044 235 q 1135 532 1135 425 q 1103 700 1135 621 q 1014 838 1071 779 q 880 930 957 896 q 711 964 803 964 q 522 926 613 964 q 358 822 431 888 q 237 669 285 757 q 176 483 189 582 z "},"¿":{"ha":671,"x_min":42,"x_max":563,"o":"m 544 -79 q 553 -81 549 -81 q 563 -83 558 -82 q 514 -158 543 -124 q 449 -216 485 -192 q 370 -254 413 -240 q 283 -268 328 -268 q 186 -249 231 -268 q 110 -197 142 -231 q 60 -119 78 -164 q 42 -25 42 -75 q 87 122 42 60 q 208 235 132 185 q 263 267 238 254 q 307 297 288 281 q 340 340 326 314 q 358 413 353 367 l 372 521 l 390 521 l 374 386 q 349 317 368 343 q 302 272 331 292 q 239 231 274 251 q 167 182 204 211 q 86 86 111 138 q 61 -25 61 35 q 78 -115 61 -74 q 124 -185 94 -156 q 195 -232 154 -215 q 285 -249 236 -249 q 365 -236 326 -249 q 439 -201 404 -224 q 501 -148 474 -179 q 544 -79 528 -117 m 404 714 q 421 707 414 714 q 428 689 428 700 q 418 667 428 675 q 397 658 408 658 q 381 665 388 658 q 374 683 374 672 q 383 705 374 696 q 404 714 393 714 z "},"Ã":{"ha":886,"x_min":-6,"x_max":800,"o":"m 238 442 l 667 442 l 669 461 l 240 461 l 238 442 m 800 0 q 661 508 724 256 q 522 1017 599 761 q 258 508 383 761 q -6 0 133 256 l 15 0 q 258 469 143 235 q 500 938 372 703 q 508 955 504 946 q 517 972 513 964 q 521 955 519 964 q 525 938 522 946 q 652 469 594 703 q 779 0 710 235 l 800 0 m 519 1090 q 485 1124 500 1115 q 450 1132 469 1132 q 424 1128 439 1132 q 394 1117 408 1125 q 367 1094 379 1108 q 349 1056 354 1079 q 340 1057 344 1057 q 332 1058 335 1057 q 380 1131 342 1110 q 457 1151 418 1151 q 506 1137 485 1151 q 546 1099 526 1122 q 581 1065 565 1074 q 615 1057 596 1057 q 642 1060 626 1057 q 672 1072 657 1064 q 699 1095 686 1081 q 717 1133 711 1110 q 726 1132 721 1132 q 735 1131 731 1132 q 687 1058 725 1079 q 610 1038 649 1038 q 560 1052 582 1038 q 519 1090 539 1067 z "},"Õ":{"ha":1163,"x_min":85,"x_max":1096,"o":"m 97 485 q 160 678 110 588 q 285 837 210 769 q 456 944 361 904 q 654 983 551 983 q 831 949 750 983 q 970 853 911 914 q 1063 710 1029 792 q 1096 535 1096 628 q 1049 324 1096 424 q 925 151 1003 225 q 745 33 847 76 q 532 -11 643 -11 q 344 28 429 -11 q 199 134 258 67 q 113 292 140 201 q 97 485 85 382 m 117 483 q 131 299 104 385 q 215 148 158 213 q 352 46 271 83 q 531 8 433 8 q 735 50 636 8 q 909 163 833 92 q 1030 330 985 235 q 1075 532 1075 425 q 1043 700 1075 621 q 954 838 1011 779 q 820 930 897 896 q 651 964 743 964 q 462 926 553 964 q 298 822 371 888 q 177 669 225 757 q 117 483 129 582 m 643 1144 q 608 1178 624 1169 q 574 1186 593 1186 q 547 1183 563 1186 q 517 1171 532 1179 q 490 1148 503 1163 q 472 1110 478 1133 q 463 1111 468 1111 q 454 1113 458 1111 q 503 1185 464 1164 q 581 1206 542 1206 q 629 1191 608 1206 q 669 1153 650 1176 q 704 1119 689 1128 q 739 1111 719 1111 q 765 1115 750 1111 q 795 1126 781 1118 q 822 1149 810 1135 q 840 1188 835 1164 q 849 1186 844 1186 q 858 1185 854 1186 q 810 1113 849 1133 q 733 1092 772 1092 q 684 1106 706 1092 q 643 1144 663 1121 z "},"â":{"ha":706,"x_min":46,"x_max":619,"o":"m 65 236 q 82 148 65 189 q 128 76 99 107 q 197 28 157 46 q 286 11 238 11 q 393 33 342 11 q 484 92 444 54 q 547 179 524 129 q 569 286 569 229 q 553 375 569 333 q 506 447 536 417 q 435 495 476 478 q 347 513 394 513 q 240 490 290 513 q 150 431 189 468 q 88 342 111 393 q 65 236 65 292 m 46 233 q 71 349 46 294 q 138 444 96 403 q 234 508 179 485 q 350 532 289 532 q 498 484 436 532 q 581 361 560 436 q 592 441 586 401 q 606 521 599 481 l 619 521 l 556 0 l 536 0 l 546 75 q 551 119 549 97 q 557 163 554 140 q 509 94 538 125 q 444 40 481 63 q 367 4 408 17 q 283 -8 326 -8 q 188 10 232 -8 q 113 62 144 29 q 64 138 82 94 q 46 233 46 182 m 449 915 q 517 790 483 853 q 585 664 550 726 l 563 664 q 503 771 532 717 q 444 878 474 825 q 358 771 400 825 q 274 664 317 717 l 251 664 q 350 790 300 726 q 449 915 400 853 z "},"ê":{"ha":603,"x_min":46,"x_max":564,"o":"m 479 64 q 389 11 439 31 q 285 -8 339 -8 q 188 10 232 -8 q 113 62 144 29 q 64 138 82 94 q 46 233 46 182 q 71 349 46 294 q 138 444 96 403 q 235 509 181 485 q 351 533 290 533 q 490 484 438 533 q 564 360 543 435 q 447 315 510 339 q 319 265 383 290 q 191 216 254 240 q 72 169 128 192 q 149 55 92 99 q 286 11 206 11 q 383 28 336 11 q 465 78 429 46 l 479 64 m 539 369 q 470 472 517 432 q 349 513 424 513 q 241 490 292 513 q 151 430 190 468 q 88 340 111 392 q 65 231 65 289 q 65 209 65 221 q 68 188 65 197 q 182 232 122 208 q 303 278 242 256 q 424 325 364 301 q 539 369 485 349 m 400 917 q 469 791 435 854 q 536 665 503 728 l 514 665 q 456 772 485 718 q 396 879 426 826 q 311 772 353 826 q 225 665 269 718 l 203 665 q 302 791 253 728 q 400 917 351 854 z "},"î":{"ha":228,"x_min":-15,"x_max":318,"o":"m 78 0 l 58 0 l 122 521 l 142 521 l 78 0 m 182 917 q 250 791 217 854 q 318 665 283 728 l 296 665 q 237 772 265 718 q 178 879 208 826 q 92 772 135 826 q 7 665 50 718 l -15 665 q 83 791 33 728 q 182 917 133 854 z "},"ô":{"ha":664,"x_min":40,"x_max":592,"o":"m 47 261 q 81 367 54 317 q 149 453 108 417 q 242 512 190 490 q 350 533 293 533 q 446 515 401 533 q 523 463 490 496 q 574 385 556 429 q 592 289 592 340 q 566 174 592 228 q 498 79 540 119 q 399 15 456 39 q 283 -8 343 -8 q 181 13 226 -8 q 103 70 135 33 q 56 156 71 107 q 47 261 40 204 m 67 261 q 74 163 60 208 q 118 84 89 118 q 190 31 147 50 q 286 11 233 11 q 393 33 342 11 q 484 92 444 54 q 547 179 524 129 q 569 286 569 229 q 553 375 569 333 q 506 447 536 417 q 435 495 476 478 q 347 513 394 513 q 247 493 294 513 q 161 439 199 474 q 98 358 124 404 q 67 261 72 313 m 397 917 q 465 791 432 854 q 533 665 499 728 l 511 665 q 451 772 481 718 q 393 879 422 826 q 307 772 349 826 q 222 665 265 718 l 200 665 q 299 791 249 728 q 397 917 349 854 z "},"û":{"ha":607,"x_min":63,"x_max":586,"o":"m 457 0 l 443 0 l 458 136 q 356 30 422 69 q 211 -10 289 -10 q 100 33 138 -10 q 69 146 63 76 l 115 521 l 135 521 l 88 136 q 113 49 83 86 q 204 10 143 13 q 296 25 251 10 q 376 67 340 40 q 435 133 411 94 q 464 215 458 171 l 501 521 l 521 521 l 457 0 m 450 917 q 518 791 485 854 q 586 665 551 728 l 564 665 q 505 772 533 718 q 446 879 476 826 q 360 772 403 826 q 275 665 318 718 l 253 665 q 351 791 301 728 q 450 917 401 854 z "},"ã":{"ha":706,"x_min":46,"x_max":633,"o":"m 65 236 q 82 148 65 189 q 128 76 99 107 q 197 28 157 46 q 286 11 238 11 q 393 33 342 11 q 484 92 444 54 q 547 179 524 129 q 569 286 569 229 q 553 375 569 333 q 506 447 536 417 q 435 495 476 478 q 347 513 394 513 q 240 490 290 513 q 150 431 189 468 q 88 342 111 393 q 65 236 65 292 m 46 233 q 71 349 46 294 q 138 444 96 403 q 234 508 179 485 q 350 532 289 532 q 498 484 436 532 q 581 361 560 436 q 592 441 586 401 q 606 521 599 481 l 619 521 l 556 0 l 536 0 l 546 75 q 551 119 549 97 q 557 163 554 140 q 509 94 538 125 q 444 40 481 63 q 367 4 408 17 q 283 -8 326 -8 q 188 10 232 -8 q 113 62 144 29 q 64 138 82 94 q 46 233 46 182 m 418 690 q 383 724 399 715 q 349 732 368 732 q 322 728 338 732 q 292 717 307 725 q 265 694 278 708 q 247 656 253 679 q 238 657 243 657 q 229 658 233 657 q 277 731 239 710 q 354 751 315 751 q 403 737 382 751 q 444 699 425 722 q 479 665 464 674 q 514 657 494 657 q 540 660 525 657 q 570 672 556 664 q 597 695 585 681 q 615 733 610 710 q 624 732 619 732 q 633 731 629 732 q 585 658 624 679 q 507 638 546 638 q 458 652 479 638 q 418 690 438 667 z "},"`":{"ha":278,"x_min":85,"x_max":210,"o":"m 107 850 q 158 758 133 804 q 210 665 183 711 l 188 665 q 136 758 161 711 q 85 850 111 804 l 107 850 z "},"^":{"ha":569,"x_min":156,"x_max":489,"o":"m 353 917 q 421 791 388 854 q 489 665 454 728 l 467 665 q 408 772 436 718 q 349 879 379 826 q 263 772 306 826 q 178 665 221 718 l 156 665 q 254 791 204 728 q 353 917 304 854 z "},"õ":{"ha":664,"x_min":40,"x_max":592,"o":"m 47 261 q 81 367 54 317 q 149 453 108 417 q 242 512 190 490 q 350 533 293 533 q 446 515 401 533 q 523 463 490 496 q 574 385 556 429 q 592 289 592 340 q 566 174 592 228 q 498 79 540 119 q 399 15 456 39 q 283 -8 343 -8 q 181 13 226 -8 q 103 70 135 33 q 56 156 71 107 q 47 261 40 204 m 67 261 q 74 163 60 208 q 118 84 89 118 q 190 31 147 50 q 286 11 233 11 q 393 33 342 11 q 484 92 444 54 q 547 179 524 129 q 569 286 569 229 q 553 375 569 333 q 506 447 536 417 q 435 495 476 478 q 347 513 394 513 q 247 493 294 513 q 161 439 199 474 q 98 358 124 404 q 67 261 72 313 m 361 690 q 326 724 342 715 q 292 732 311 732 q 265 728 281 732 q 235 717 250 725 q 208 694 221 708 q 190 656 196 679 q 181 657 186 657 q 172 658 176 657 q 220 731 182 710 q 297 751 258 751 q 347 737 325 751 q 388 699 368 722 q 422 665 407 674 q 457 657 438 657 q 483 660 468 657 q 513 672 499 664 q 540 695 528 681 q 558 733 553 710 q 567 732 563 732 q 576 731 572 732 q 528 658 567 679 q 450 638 489 638 q 401 652 422 638 q 361 690 381 667 z "},"'":{"ha":249,"x_min":147,"x_max":214,"o":"m 147 656 l 189 1000 l 214 1000 q 190 828 203 913 q 167 656 178 743 l 147 656 z "},"_":{"ha":760,"x_min":60,"x_max":618,"o":"m 615 0 l 60 0 l 63 19 l 618 19 l 615 0 z "},"[":{"ha":413,"x_min":72,"x_max":451,"o":"m 72 -207 l 225 1036 l 451 1036 l 449 1017 l 244 1017 l 97 -187 l 301 -187 l 299 -207 l 72 -207 z "},"]":{"ha":413,"x_min":-29,"x_max":350,"o":"m 350 1036 l 197 -207 l -29 -207 l -26 -187 l 178 -187 l 325 1017 l 121 1017 l 124 1036 l 350 1036 z "},"°":{"ha":399,"x_min":140,"x_max":354,"o":"m 238 692 q 306 719 276 692 q 335 786 335 746 q 313 842 335 819 q 258 864 290 864 q 189 837 218 864 q 160 769 160 810 q 182 714 160 736 q 238 692 204 692 m 140 765 q 176 849 140 815 q 261 883 211 883 q 328 856 303 883 q 354 789 354 829 q 319 706 354 739 q 235 672 283 672 q 166 699 192 672 q 140 765 140 725 z "},"ç":{"ha":556,"x_min":46,"x_max":514,"o":"m 450 65 q 456 58 453 63 q 463 51 460 54 q 378 8 424 24 q 285 -8 333 -8 q 188 10 232 -8 q 113 62 144 29 q 64 138 82 94 q 46 233 46 182 q 71 349 46 294 q 138 444 96 403 q 234 508 179 485 q 350 532 289 532 q 440 516 399 532 q 514 472 482 500 q 506 465 511 468 q 499 457 501 461 q 431 498 469 483 q 349 513 393 513 q 241 490 292 513 q 151 431 190 468 q 88 342 111 393 q 65 236 65 292 q 82 148 65 189 q 128 76 99 107 q 197 28 157 46 q 286 11 238 11 q 372 26 331 11 q 450 65 414 40 m 261 0 l 282 0 l 281 -8 q 281 -39 278 -26 q 292 -60 285 -51 q 310 -74 300 -68 q 328 -85 319 -79 q 365 -128 354 -104 q 375 -169 375 -151 q 364 -231 375 -206 q 334 -275 353 -257 q 291 -301 315 -293 q 242 -310 267 -310 q 176 -290 206 -310 q 139 -229 147 -269 q 150 -226 144 -228 q 161 -224 156 -225 q 188 -272 165 -253 q 244 -290 210 -290 q 322 -258 290 -290 q 354 -178 354 -226 q 338 -126 354 -144 q 303 -92 322 -107 q 270 -63 285 -78 q 258 -22 256 -49 l 261 0 z "},"Ç":{"ha":899,"x_min":94,"x_max":901,"o":"m 796 58 q 670 8 736 26 q 529 -11 604 -11 q 347 24 428 -11 q 210 118 267 58 q 124 258 154 178 q 94 428 94 338 q 141 644 94 543 q 265 821 188 746 q 443 940 342 896 q 656 983 544 983 q 788 965 726 983 q 901 914 849 947 l 889 897 q 781 947 840 929 q 654 964 721 964 q 450 922 547 964 q 278 806 353 879 q 158 636 203 733 q 114 428 114 539 q 142 266 114 342 q 223 133 169 190 q 353 42 276 75 q 526 8 429 8 q 663 26 599 8 q 785 75 726 43 l 796 58 m 515 0 l 536 0 l 535 -8 q 535 -39 532 -26 q 547 -60 539 -51 q 564 -74 554 -68 q 582 -85 574 -79 q 619 -128 608 -104 q 629 -169 629 -151 q 618 -231 629 -206 q 588 -275 607 -257 q 545 -301 569 -293 q 496 -310 521 -310 q 431 -290 460 -310 q 393 -229 401 -269 q 404 -226 399 -228 q 415 -224 410 -225 q 442 -272 419 -253 q 499 -290 464 -290 q 576 -258 544 -290 q 608 -178 608 -226 q 592 -126 608 -144 q 558 -92 576 -107 q 524 -63 539 -78 q 513 -22 510 -49 l 515 0 z "},"–":{"ha":603,"x_min":76,"x_max":497,"o":"m 76 249 l 79 268 l 497 268 l 494 249 l 76 249 z "},"—":{"ha":882,"x_min":76,"x_max":776,"o":"m 76 249 l 79 268 l 776 268 l 774 249 l 76 249 z "},"¸":{"ha":628,"x_min":146,"x_max":382,"o":"m 268 0 l 289 0 l 288 -8 q 288 -39 285 -26 q 299 -60 292 -51 q 317 -74 307 -68 q 335 -85 326 -79 q 372 -128 361 -104 q 382 -169 382 -151 q 371 -231 382 -206 q 341 -275 360 -257 q 298 -301 322 -293 q 249 -310 274 -310 q 183 -290 213 -310 q 146 -229 154 -269 q 156 -226 151 -228 q 167 -224 161 -225 q 194 -272 172 -253 q 251 -290 217 -290 q 329 -258 297 -290 q 361 -178 361 -226 q 345 -126 361 -144 q 310 -92 329 -107 q 277 -63 292 -78 q 265 -22 263 -49 l 268 0 z "},"´":{"ha":303,"x_min":221,"x_max":390,"o":"m 221 665 q 294 758 257 711 q 368 850 332 804 l 390 850 q 317 758 354 804 q 243 665 279 711 l 221 665 z "},"¨":{"ha":514,"x_min":199,"x_max":485,"o":"m 428 692 q 438 713 428 704 q 460 722 447 722 q 478 715 471 722 q 485 697 485 708 q 475 676 485 685 q 453 667 465 667 q 435 674 442 667 q 428 692 428 681 m 199 692 q 208 713 199 704 q 231 722 218 722 q 249 715 242 722 q 256 697 256 708 q 246 676 256 685 q 224 667 236 667 q 206 674 213 667 q 199 692 199 681 z "},"Ð":{"ha":996,"x_min":107,"x_max":926,"o":"m 110 500 l 500 500 l 497 481 l 107 481 l 110 500 m 247 972 l 446 972 q 671 933 579 972 q 819 832 763 894 q 901 692 876 769 q 926 538 926 614 q 881 317 926 417 q 758 147 835 218 q 582 38 682 76 q 375 0 482 0 l 129 0 l 247 972 m 385 19 q 581 56 486 19 q 748 160 675 93 q 865 323 821 228 q 908 535 908 418 q 885 683 908 608 q 808 817 861 757 q 668 914 754 876 q 457 951 582 951 l 265 951 q 208 485 236 717 q 150 19 179 254 l 385 19 z "},"þ":{"ha":707,"x_min":28,"x_max":633,"o":"m 614 288 q 597 376 614 335 q 551 447 581 417 q 480 495 521 478 q 392 513 439 513 q 284 490 335 513 q 194 431 233 468 q 131 342 154 393 q 108 236 108 292 q 125 148 108 189 q 172 76 142 107 q 242 28 201 46 q 331 11 282 11 q 438 33 386 11 q 528 93 489 56 q 591 181 568 131 q 614 288 614 231 m 633 289 q 608 174 633 228 q 542 79 583 119 q 444 15 500 39 q 328 -8 389 -8 q 178 40 240 -8 q 96 163 117 88 l 88 75 l 47 -250 l 28 -250 l 186 1042 l 206 1042 q 167 721 183 865 q 152 599 160 660 q 138 490 144 539 q 128 406 132 440 q 122 361 124 371 q 235 484 163 436 q 394 532 308 532 q 490 513 446 532 q 566 462 535 494 q 615 385 597 429 q 633 289 633 340 z "},"ð":{"ha":672,"x_min":40,"x_max":596,"o":"m 243 760 q 303 817 272 788 q 363 874 333 846 q 308 937 336 906 q 247 996 279 968 q 252 1002 250 999 q 257 1008 254 1006 q 318 951 289 982 q 375 885 347 921 q 431 938 403 913 q 486 992 458 964 q 491 987 489 989 q 496 982 493 985 l 383 874 q 467 744 428 813 q 534 602 506 675 q 579 456 563 529 q 596 313 596 382 q 592 247 596 256 q 585 259 589 238 q 575 323 581 281 q 565 410 569 365 q 549 499 561 449 q 513 608 536 550 q 456 731 490 667 q 371 861 421 794 q 312 805 342 833 q 253 749 282 776 q 243 760 250 753 m 47 261 q 81 367 54 317 q 149 453 108 417 q 242 512 190 490 q 350 533 293 533 q 446 515 401 533 q 523 463 490 496 q 574 385 556 429 q 592 289 592 340 q 566 174 592 228 q 498 79 540 119 q 399 15 456 39 q 283 -8 343 -8 q 181 13 226 -8 q 103 70 135 33 q 56 156 71 107 q 47 261 40 204 m 67 261 q 74 163 60 208 q 118 84 89 118 q 190 31 147 50 q 286 11 233 11 q 393 33 342 11 q 484 92 444 54 q 547 179 524 129 q 569 286 569 229 q 553 375 569 333 q 506 447 536 417 q 435 495 476 478 q 347 513 394 513 q 247 493 294 513 q 161 439 199 474 q 98 358 124 404 q 67 261 72 313 z "},"Þ":{"ha":694,"x_min":119,"x_max":654,"o":"m 119 0 l 239 972 l 258 972 l 231 743 l 406 743 q 487 731 443 743 q 567 693 531 719 q 629 623 604 667 q 654 517 654 579 q 634 408 654 461 q 572 312 614 354 q 468 243 531 269 q 321 217 406 217 l 165 217 l 139 0 l 119 0 m 168 236 l 328 236 q 476 266 417 236 q 570 338 535 296 q 620 429 606 381 q 635 515 635 478 q 617 601 635 563 q 566 667 599 640 q 488 709 533 694 q 389 724 443 724 l 228 724 l 168 236 z "},"Â":{"ha":886,"x_min":-6,"x_max":800,"o":"m 238 442 l 667 442 l 669 461 l 240 461 l 238 442 m 800 0 q 661 508 724 256 q 522 1017 599 761 q 258 508 383 761 q -6 0 133 256 l 15 0 q 258 469 143 235 q 500 938 372 703 q 508 955 504 946 q 517 972 513 964 q 521 955 519 964 q 525 938 522 946 q 652 469 594 703 q 779 0 710 235 l 800 0 m 613 1293 q 681 1167 647 1231 q 749 1042 714 1104 l 726 1042 q 667 1149 696 1094 q 608 1256 639 1203 q 523 1149 565 1203 q 438 1042 481 1094 l 415 1042 q 514 1167 464 1104 q 613 1293 564 1231 z "},"Ê":{"ha":842,"x_min":119,"x_max":815,"o":"m 119 0 l 239 972 l 815 972 l 813 953 l 256 953 l 200 500 l 703 500 l 700 481 l 197 481 l 142 19 l 718 19 l 715 0 l 119 0 m 569 1293 q 638 1167 604 1231 q 706 1042 671 1104 l 683 1042 q 624 1149 653 1094 q 565 1256 596 1203 q 480 1149 522 1203 q 394 1042 438 1094 l 372 1042 q 471 1167 421 1104 q 569 1293 521 1231 z "},"Î":{"ha":350,"x_min":92,"x_max":425,"o":"m 239 972 l 258 972 l 139 0 l 119 0 l 239 972 m 289 1293 q 357 1167 324 1231 q 425 1042 390 1104 l 403 1042 q 344 1149 372 1094 q 285 1256 315 1203 q 199 1149 242 1203 q 114 1042 157 1094 l 92 1042 q 190 1167 140 1104 q 289 1293 240 1231 z "},"Ô":{"ha":1163,"x_min":85,"x_max":1096,"o":"m 97 485 q 160 678 110 588 q 285 837 210 769 q 456 944 361 904 q 654 983 551 983 q 831 949 750 983 q 970 853 911 914 q 1063 710 1029 792 q 1096 535 1096 628 q 1049 324 1096 424 q 925 151 1003 225 q 745 33 847 76 q 532 -11 643 -11 q 344 28 429 -11 q 199 134 258 67 q 113 292 140 201 q 97 485 85 382 m 117 483 q 131 299 104 385 q 215 148 158 213 q 352 46 271 83 q 531 8 433 8 q 735 50 636 8 q 909 163 833 92 q 1030 330 985 235 q 1075 532 1075 425 q 1043 700 1075 621 q 954 838 1011 779 q 820 930 897 896 q 651 964 743 964 q 462 926 553 964 q 298 822 371 888 q 177 669 225 757 q 117 483 129 582 m 675 1293 q 743 1167 710 1231 q 811 1042 776 1104 l 789 1042 q 730 1149 758 1094 q 671 1256 701 1203 q 585 1149 628 1203 q 500 1042 543 1094 l 478 1042 q 576 1167 526 1104 q 675 1293 626 1231 z "},"Û":{"ha":928,"x_min":135,"x_max":850,"o":"m 417 -11 q 295 10 350 -11 q 203 72 240 31 q 151 174 167 113 q 144 314 135 235 l 225 972 l 244 972 l 164 318 q 169 185 154 243 q 218 88 183 128 q 304 28 253 49 q 419 8 356 8 q 538 28 482 8 q 638 88 594 49 q 711 185 682 128 q 750 318 740 243 l 831 972 l 850 972 l 769 314 q 728 174 760 235 q 649 72 696 113 q 543 10 603 31 q 417 -11 483 -11 m 589 1293 q 657 1167 624 1231 q 725 1042 690 1104 l 703 1042 q 644 1149 672 1094 q 585 1256 615 1203 q 499 1149 542 1203 q 414 1042 457 1094 l 392 1042 q 490 1167 440 1104 q 589 1293 540 1231 z "},"±":{"ha":785,"x_min":124,"x_max":668,"o":"m 376 293 l 407 535 l 167 535 l 168 554 l 408 554 l 438 793 l 457 793 l 428 554 l 668 554 l 667 535 l 426 535 l 396 293 l 376 293 m 624 189 l 124 189 l 126 208 l 626 208 l 624 189 z "},"$":{"ha":724,"x_min":26,"x_max":669,"o":"m 443 1061 l 301 -94 l 282 -94 l 424 1061 l 443 1061 m 669 926 l 660 911 q 564 944 624 928 q 443 960 504 960 q 331 942 382 960 q 244 894 281 924 q 189 824 208 864 q 169 740 169 783 q 204 649 169 683 q 292 590 239 615 q 405 544 344 565 q 518 491 465 522 q 606 413 571 460 q 640 292 640 367 q 614 166 640 222 q 542 70 588 110 q 435 10 497 31 q 303 -11 374 -11 q 200 1 246 -11 q 119 31 154 14 q 60 64 83 47 q 26 88 38 81 l 40 106 q 87 74 58 90 q 151 42 115 57 q 226 18 186 28 q 310 8 267 8 q 421 26 365 8 q 521 78 476 43 q 593 165 565 113 q 621 288 621 217 q 586 404 621 360 q 499 478 551 449 q 385 528 446 507 q 272 576 325 550 q 185 638 219 601 q 150 735 150 674 q 173 831 150 786 q 235 908 196 875 q 327 959 275 940 q 438 978 379 978 q 493 974 463 978 q 555 964 524 971 q 616 947 586 957 q 669 926 646 938 z "},"¢":{"ha":589,"x_min":53,"x_max":521,"o":"m 260 -94 l 346 608 l 365 608 l 279 -94 l 260 -94 m 457 65 q 463 58 460 63 q 469 51 467 54 q 385 8 431 24 q 292 -8 340 -8 q 195 10 239 -8 q 120 62 151 29 q 71 138 89 94 q 53 233 53 182 q 78 349 53 294 q 144 444 103 403 q 241 508 186 485 q 357 532 296 532 q 447 516 406 532 q 521 472 489 500 q 513 465 518 468 q 506 457 508 461 q 438 498 476 483 q 356 513 400 513 q 248 490 299 513 q 158 431 197 468 q 95 342 118 393 q 72 236 72 292 q 89 148 72 189 q 135 76 106 107 q 204 28 164 46 q 293 11 244 11 q 379 26 338 11 q 457 65 421 40 z "},"•":{"ha":468,"x_min":146,"x_max":329,"o":"m 146 407 q 177 478 146 449 q 249 508 208 508 q 307 485 285 508 q 329 426 329 461 q 299 356 329 385 q 226 326 268 326 q 169 350 192 326 q 146 407 146 374 z "},"“":{"ha":399,"x_min":147,"x_max":361,"o":"m 361 819 q 356 807 358 813 q 350 794 353 801 q 303 881 314 831 q 310 988 292 932 q 323 983 317 985 q 335 978 329 981 q 328 888 319 929 q 361 819 336 847 m 217 819 q 211 807 214 813 q 206 794 208 801 q 158 881 169 831 q 165 988 147 932 q 178 983 172 985 q 190 978 185 981 q 183 888 175 929 q 217 819 192 847 z "},"”":{"ha":403,"x_min":146,"x_max":389,"o":"m 151 794 q 149 807 150 801 q 146 819 149 813 q 197 888 179 847 q 211 978 215 929 q 225 983 218 981 q 239 988 232 985 q 221 881 244 932 q 151 794 197 831 m 296 794 q 294 807 294 801 q 290 819 293 813 q 342 888 324 847 q 356 978 360 929 q 369 983 363 981 q 383 988 376 985 q 365 881 389 932 q 296 794 342 831 z "},"‘":{"ha":254,"x_min":147,"x_max":217,"o":"m 217 819 q 211 807 214 813 q 206 794 208 801 q 158 881 169 831 q 165 988 147 932 q 178 983 172 985 q 190 978 185 981 q 183 888 175 929 q 217 819 192 847 z "},"„":{"ha":440,"x_min":46,"x_max":288,"o":"m 51 -65 q 49 -53 50 -58 q 46 -40 47 -47 q 96 28 78 -12 q 111 118 114 69 q 125 123 118 121 q 139 128 132 125 q 119 22 143 72 q 51 -65 96 -29 m 196 -65 q 193 -53 194 -58 q 190 -40 192 -47 q 240 28 222 -12 q 256 118 258 69 q 269 123 263 121 q 283 128 276 125 q 264 22 288 72 q 196 -65 240 -29 z "},"‚":{"ha":296,"x_min":46,"x_max":143,"o":"m 51 -65 q 49 -53 50 -58 q 46 -40 47 -47 q 96 28 78 -12 q 111 118 114 69 q 125 123 118 121 q 139 128 132 125 q 119 22 143 72 q 51 -65 96 -29 z "},"›":{"ha":399,"x_min":57,"x_max":322,"o":"m 60 129 q 171 231 115 181 q 282 332 226 281 q 196 432 239 382 q 110 532 153 482 l 113 556 q 217 444 165 499 q 322 332 269 389 l 57 107 l 60 129 z "},"«":{"ha":636,"x_min":65,"x_max":568,"o":"m 513 107 l 303 332 q 435 444 369 389 q 568 556 501 499 l 565 532 q 454 432 510 482 q 343 332 399 382 q 429 231 386 281 q 515 129 472 181 l 513 107 m 275 107 l 65 332 q 198 444 132 389 q 331 556 264 499 l 328 532 q 217 432 272 482 q 106 332 161 382 q 192 231 149 281 q 278 129 235 181 l 275 107 z "},"»":{"ha":636,"x_min":57,"x_max":560,"o":"m 60 129 q 171 231 115 181 q 282 332 226 281 q 196 432 239 382 q 110 532 153 482 l 113 556 q 217 444 165 499 q 322 332 269 389 l 57 107 l 60 129 m 297 129 q 408 231 353 181 q 519 332 464 281 q 433 432 476 382 q 347 532 390 482 l 350 556 q 455 444 403 499 q 560 332 507 389 l 294 107 l 297 129 z "},"¥":{"ha":853,"x_min":121,"x_max":869,"o":"m 432 385 l 664 385 l 661 365 l 426 365 l 432 385 m 396 158 l 636 158 l 633 139 l 393 139 l 396 158 m 414 365 l 199 365 l 201 385 l 410 385 l 414 365 m 388 139 l 171 139 l 174 158 l 390 158 l 388 139 m 431 364 l 386 0 l 367 0 l 411 364 q 266 668 338 517 q 121 972 194 819 l 144 972 q 278 694 211 832 q 411 414 346 556 l 424 378 q 435 396 431 388 q 444 414 439 404 q 645 693 544 554 q 846 972 746 832 l 869 972 l 431 364 z "},"©":{"ha":921,"x_min":121,"x_max":835,"o":"m 436 183 q 579 212 511 183 q 700 290 647 240 q 784 406 753 339 q 815 551 815 474 q 793 672 815 617 q 731 767 771 728 q 637 829 692 807 q 518 851 582 851 q 376 823 444 851 q 256 745 308 794 q 172 628 203 696 q 140 481 140 560 q 163 363 140 417 q 226 269 186 308 q 319 206 265 229 q 436 183 374 183 m 435 164 q 308 188 365 164 q 208 253 250 211 q 144 352 167 294 q 121 478 121 410 q 153 633 121 561 q 240 758 185 706 q 367 841 294 811 q 521 871 440 871 q 648 847 590 871 q 747 782 706 824 q 812 682 789 740 q 835 556 835 624 q 803 401 835 472 q 716 276 771 329 q 588 194 661 224 q 435 164 515 164 m 581 328 q 525 304 554 313 q 463 296 496 296 q 380 312 417 296 q 318 355 343 328 q 279 418 293 382 q 265 496 265 454 q 286 593 265 547 q 342 673 307 639 q 422 726 376 707 q 518 746 468 746 q 631 715 578 746 q 624 707 626 713 q 518 738 578 738 q 426 718 469 738 q 348 666 382 699 q 294 589 314 633 q 274 494 274 544 q 286 422 274 456 q 323 362 299 388 q 381 321 347 336 q 460 306 415 306 q 521 313 492 306 q 576 335 550 321 l 581 328 z "},"®":{"ha":921,"x_min":121,"x_max":835,"o":"m 436 183 q 579 212 511 183 q 700 290 647 240 q 784 406 753 339 q 815 551 815 474 q 793 672 815 617 q 731 767 771 728 q 637 829 692 807 q 518 851 582 851 q 376 823 444 851 q 256 745 308 794 q 172 628 203 696 q 140 481 140 560 q 163 363 140 417 q 226 269 186 308 q 319 206 265 229 q 436 183 374 183 m 435 164 q 308 188 365 164 q 208 253 250 211 q 144 352 167 294 q 121 478 121 410 q 153 633 121 561 q 240 758 185 706 q 367 841 294 811 q 521 871 440 871 q 648 847 590 871 q 747 782 706 824 q 812 682 789 740 q 835 556 835 624 q 803 401 835 472 q 716 276 771 329 q 588 194 661 224 q 435 164 515 164 m 528 513 l 633 292 l 621 292 l 518 513 l 528 513 m 399 511 l 474 511 q 543 526 515 511 q 588 561 571 540 q 611 605 604 582 q 618 644 618 628 q 585 715 618 689 q 503 742 553 742 l 426 742 l 399 511 m 361 292 l 418 751 l 511 751 q 549 746 528 751 q 587 728 569 740 q 616 694 604 715 q 628 644 628 674 q 618 593 628 618 q 589 548 608 568 q 540 515 569 528 q 471 503 510 503 l 397 503 l 371 292 l 361 292 z "},"÷":{"ha":725,"x_min":103,"x_max":606,"o":"m 603 292 l 103 292 l 106 311 l 606 311 l 603 292 m 351 471 q 361 492 351 483 q 383 501 371 501 q 401 494 394 501 q 407 476 407 488 q 398 455 407 464 q 376 446 389 446 q 358 453 365 446 q 351 471 351 460 m 308 124 q 318 145 308 136 q 340 154 328 154 q 358 147 351 154 q 365 129 365 140 q 356 108 365 117 q 333 99 346 99 q 315 106 322 99 q 308 124 308 113 z "},"½":{"ha":1149,"x_min":122,"x_max":1060,"o":"m 122 951 l 124 965 l 249 965 l 171 325 l 157 325 l 233 951 l 122 951 m 694 14 l 1047 14 l 1046 0 l 657 0 q 801 126 731 64 q 925 247 871 188 q 1012 363 979 306 q 1044 474 1044 419 q 1031 550 1044 519 q 998 599 1018 581 q 953 624 978 617 q 907 632 929 632 q 817 611 853 632 q 760 560 781 590 q 731 497 739 531 q 722 439 722 464 q 751 349 722 382 q 740 340 746 346 q 717 383 725 360 q 708 438 708 407 q 722 518 708 481 q 762 584 736 556 q 824 629 788 613 q 908 646 861 646 q 1019 599 979 646 q 1060 481 1060 553 q 1025 358 1060 418 q 938 241 990 299 q 819 126 885 183 q 694 14 754 69 m 244 -26 q 501 497 375 238 q 758 1021 628 757 l 778 1021 q 521 497 647 757 q 264 -26 394 238 l 244 -26 z "},"¼":{"ha":1093,"x_min":124,"x_max":1014,"o":"m 222 -26 q 479 497 353 238 q 736 1021 606 757 l 756 1021 q 499 497 625 757 q 242 -26 372 238 l 222 -26 m 953 638 q 760 421 857 529 q 568 204 664 313 l 900 204 l 953 638 m 535 189 q 754 435 644 313 q 972 681 864 557 l 914 204 l 1014 204 l 1013 189 l 913 189 l 889 0 l 875 0 l 899 189 l 535 189 m 124 951 l 125 965 l 250 965 l 172 325 l 158 325 l 235 951 l 124 951 z "},"ª":{"ha":590,"x_min":111,"x_max":525,"o":"m 125 594 q 137 531 125 561 q 170 480 149 501 q 221 446 192 458 q 285 433 250 433 q 362 449 325 433 q 427 491 399 464 q 472 554 456 518 q 489 632 489 590 q 477 695 489 665 q 444 747 465 725 q 393 782 422 769 q 329 794 364 794 q 251 778 289 794 q 186 735 214 763 q 142 672 158 708 q 125 594 125 636 m 111 594 q 129 676 111 638 q 178 744 147 715 q 248 791 208 774 q 331 808 288 808 q 438 774 393 808 q 497 686 482 739 q 505 743 500 714 q 515 800 510 772 l 525 800 l 479 425 l 464 425 l 471 479 q 476 510 474 494 q 481 542 478 526 q 399 453 453 488 q 283 419 346 419 q 214 433 246 419 q 159 469 182 446 q 124 525 136 493 q 111 594 111 557 z "},"£":{"ha":779,"x_min":17,"x_max":681,"o":"m 140 19 l 426 19 l 483 19 q 604 34 567 19 q 647 92 642 49 l 657 171 l 678 171 l 671 119 q 663 76 668 97 q 642 38 658 54 q 590 10 625 21 q 492 0 556 0 l 17 0 l 19 19 l 81 19 q 121 30 106 19 q 147 64 136 40 q 164 128 157 88 q 178 228 171 168 l 203 432 l 113 432 l 115 451 l 206 451 l 235 694 q 313 836 246 792 q 479 881 381 881 q 558 872 525 881 q 615 847 592 863 q 654 808 639 831 q 681 757 669 785 q 673 753 678 754 q 665 749 668 751 q 636 803 651 782 q 599 838 621 825 q 547 856 576 850 q 476 861 518 861 q 377 848 418 861 q 310 813 336 835 q 272 761 285 790 q 256 700 260 732 l 225 451 l 404 451 l 401 432 l 222 432 l 194 207 l 188 151 q 172 75 182 111 q 140 19 163 39 z "},"¹":{"ha":256,"x_min":133,"x_max":215,"o":"m 133 964 l 135 972 l 215 972 l 164 557 l 154 557 l 204 964 l 133 964 z "},"¾":{"ha":1368,"x_min":72,"x_max":1292,"o":"m 203 674 q 335 821 269 749 q 467 968 400 893 l 158 968 l 160 983 l 501 983 l 256 713 q 340 701 301 715 q 408 662 379 688 q 453 599 436 636 q 469 518 469 561 q 449 424 469 468 q 394 348 429 381 q 315 297 360 315 q 222 278 271 278 q 135 297 174 278 q 72 349 97 317 q 78 356 75 351 q 83 363 81 360 q 142 312 107 331 q 221 293 176 293 q 308 311 267 293 q 383 360 350 329 q 435 431 415 390 q 454 515 454 471 q 440 588 454 554 q 401 645 426 621 q 343 683 376 669 q 271 697 310 697 q 203 674 235 697 m 451 -26 q 709 498 582 238 q 967 1022 836 758 l 986 1022 q 728 498 856 758 q 471 -26 601 238 l 451 -26 m 1231 638 l 843 204 l 1176 204 l 1231 638 m 811 189 q 1029 435 919 313 q 1249 681 1139 557 l 1190 204 l 1292 204 l 1290 189 l 1189 189 l 1165 0 l 1151 0 l 1175 189 l 811 189 z "},"²":{"ha":476,"x_min":125,"x_max":407,"o":"m 151 531 l 399 531 l 397 521 l 125 521 q 226 608 176 565 q 313 693 275 651 q 374 774 351 735 q 397 851 397 814 q 388 905 397 883 q 365 939 379 926 q 333 957 350 951 q 300 963 315 963 q 238 948 263 963 q 198 913 213 933 q 178 869 183 892 q 172 828 172 846 q 192 764 172 785 q 183 758 188 763 q 163 826 163 785 q 199 929 163 886 q 301 972 235 972 q 378 939 350 972 q 407 856 407 906 q 383 772 407 813 q 322 690 360 731 q 240 609 285 649 q 151 531 194 569 z "},"¶":{"ha":701,"x_min":110,"x_max":611,"o":"m 257 0 l 238 0 l 310 588 q 229 603 265 588 q 166 647 193 619 q 124 710 139 674 q 110 790 110 747 q 131 888 110 842 q 187 967 151 933 q 268 1022 222 1001 q 365 1042 314 1042 l 611 1042 l 483 0 l 464 0 l 590 1022 l 383 1022 l 257 0 z "},"¬":{"ha":767,"x_min":147,"x_max":650,"o":"m 614 206 l 628 315 l 147 315 l 150 335 l 650 335 l 633 206 l 614 206 z "},"³":{"ha":418,"x_min":114,"x_max":389,"o":"m 199 775 l 365 963 l 169 963 l 171 972 l 389 972 q 310 886 349 929 q 232 800 271 843 q 329 768 290 803 q 368 675 368 733 q 355 615 368 643 q 319 567 342 588 q 269 534 297 546 q 210 522 240 522 q 155 535 179 522 q 114 568 131 547 q 117 572 115 571 q 122 576 119 574 q 160 544 138 557 q 210 532 182 532 q 266 544 239 532 q 313 575 293 556 q 346 620 333 594 q 358 674 358 646 q 325 756 358 722 q 242 790 292 790 q 199 775 218 790 z "},"¦":{"ha":308,"x_min":58,"x_max":238,"o":"m 78 -324 l 58 -324 l 118 163 l 138 163 l 78 -324 m 178 486 l 158 486 l 218 972 l 238 972 l 178 486 z "},"&":{"ha":888,"x_min":58,"x_max":854,"o":"m 756 0 l 731 0 l 282 690 q 262 742 271 714 q 253 806 253 769 q 273 901 253 858 q 327 975 293 944 q 405 1022 361 1006 q 497 1039 449 1039 q 597 1020 551 1039 q 674 981 642 1001 q 669 974 671 976 q 664 968 667 972 q 583 1007 625 992 q 497 1022 542 1022 q 413 1007 453 1022 q 342 963 372 992 q 293 897 311 935 q 275 813 275 858 q 278 768 275 789 q 288 732 282 747 q 300 700 293 714 l 756 0 m 657 143 q 601 82 635 110 q 526 34 568 54 q 438 3 485 14 q 340 -8 390 -8 q 224 10 276 -8 q 135 63 172 29 q 78 140 99 96 q 58 233 58 183 q 88 351 58 297 q 166 445 118 406 q 275 508 214 485 q 399 533 336 531 l 401 513 q 294 492 350 513 q 190 435 238 472 q 113 347 143 399 q 82 232 82 296 q 102 142 82 182 q 158 72 122 101 q 240 27 193 43 q 342 11 288 11 q 438 24 390 11 q 526 57 485 36 q 598 106 567 78 q 647 164 629 133 l 657 143 m 647 164 l 831 533 l 854 533 l 658 144 l 647 164 z "},"ß":{"ha":731,"x_min":56,"x_max":658,"o":"m 194 31 q 200 38 197 35 q 206 46 203 42 q 336 7 260 7 q 451 31 396 7 q 547 94 506 54 q 614 186 589 133 q 639 296 639 239 q 622 386 639 343 q 573 460 604 429 q 499 510 542 492 q 404 529 456 529 q 406 539 406 532 l 407 550 q 482 563 446 550 q 545 600 518 576 q 588 658 572 624 q 604 735 604 693 q 594 794 604 765 q 564 846 585 824 q 511 881 543 868 q 436 894 479 894 q 258 813 325 894 q 175 597 192 732 l 101 0 l 83 0 l 146 514 l 56 514 l 58 533 l 149 533 l 156 592 q 247 828 175 747 q 424 914 318 910 q 521 898 482 913 q 583 860 560 883 q 615 808 606 838 q 625 747 625 778 q 583 616 625 667 q 472 540 542 565 q 548 508 514 531 q 606 454 582 486 q 644 383 631 422 q 658 299 658 343 q 632 180 658 236 q 560 81 606 124 q 458 14 515 39 q 338 -11 400 -11 q 261 0 297 -11 q 194 31 225 11 z "},"¤":{"ha":638,"x_min":121,"x_max":549,"o":"m 169 485 q 181 426 169 453 q 211 379 192 399 q 257 348 231 360 q 315 336 283 336 q 385 351 351 336 q 444 390 418 365 q 485 447 469 414 q 500 518 500 481 q 459 624 500 581 q 356 667 418 667 q 285 652 319 667 q 226 613 251 638 q 185 556 200 589 q 169 485 169 522 m 150 482 q 167 558 150 522 q 211 622 183 593 q 188 649 200 636 q 165 675 176 661 l 181 689 l 226 636 q 288 673 254 660 q 358 686 322 686 q 425 672 394 686 q 476 635 456 658 l 536 688 l 549 674 l 489 621 q 519 519 519 579 q 501 441 519 476 q 454 376 483 406 l 504 319 l 489 306 q 464 334 476 321 q 439 363 451 347 q 313 317 382 317 q 197 361 242 317 l 133 304 l 121 318 l 185 375 q 150 482 150 418 z "},"§":{"ha":496,"x_min":107,"x_max":419,"o":"m 139 432 q 190 378 156 394 q 265 364 225 361 q 319 381 294 367 q 363 417 344 396 q 392 464 382 438 q 401 515 401 490 q 389 569 401 546 q 357 609 376 593 q 313 632 338 625 q 263 638 288 639 q 193 612 222 633 q 147 560 164 590 q 128 496 131 531 q 139 432 125 461 m 217 214 l 121 422 q 108 481 108 450 q 118 542 107 513 q 151 596 129 571 q 201 638 172 621 q 283 656 242 658 q 358 633 325 654 q 323 709 339 671 q 290 786 307 747 q 260 889 260 854 q 276 946 260 924 q 326 985 293 968 q 385 1014 360 1001 q 388 1006 386 1010 q 392 997 390 1001 q 355 977 372 986 q 318 957 338 968 q 279 897 279 936 q 313 786 279 858 q 360 681 336 733 q 407 576 383 629 q 419 518 419 549 q 408 458 419 488 q 376 405 397 429 q 325 364 354 381 q 243 343 285 342 q 168 367 201 344 q 204 290 186 328 q 239 214 222 253 q 269 111 269 146 q 253 54 268 76 q 231 33 244 43 q 203 14 218 22 q 172 -1 188 6 q 144 -14 157 -8 l 136 3 q 174 23 156 14 q 211 43 192 32 q 250 103 250 64 q 217 214 250 142 z "},"·":{"ha":258,"x_min":100,"x_max":157,"o":"m 100 386 q 110 408 100 399 q 132 417 119 417 q 150 410 143 417 q 157 392 157 403 q 147 370 157 379 q 125 361 138 361 q 107 368 114 361 q 100 386 100 375 z "},"º":{"ha":556,"x_min":107,"x_max":503,"o":"m 111 614 q 136 690 117 654 q 185 752 156 725 q 253 794 215 779 q 331 810 290 810 q 399 796 368 810 q 453 758 431 782 q 490 701 476 733 q 503 633 503 669 q 485 550 503 589 q 436 482 467 511 q 365 436 406 453 q 282 419 325 419 q 208 435 242 419 q 151 476 174 450 q 117 538 128 503 q 111 614 107 574 m 125 614 q 131 543 121 576 q 162 485 140 510 q 215 447 183 461 q 283 433 246 433 q 360 449 324 433 q 426 491 397 464 q 471 554 454 518 q 488 632 488 590 q 476 695 488 665 q 442 747 464 725 q 392 782 421 769 q 328 794 363 794 q 256 781 290 794 q 194 742 221 767 q 148 684 167 717 q 125 614 129 651 z "},"¯":{"ha":554,"x_min":201,"x_max":524,"o":"m 201 683 l 204 703 l 524 703 l 521 683 l 201 683 z "},"µ":{"ha":693,"x_min":58,"x_max":561,"o":"m 129 150 l 76 -279 l 58 -279 l 111 150 l 129 150 m 497 0 l 483 0 l 499 136 q 396 30 463 69 q 251 -10 329 -10 q 140 33 178 -10 q 110 146 103 76 l 156 521 l 175 521 l 128 136 q 153 49 124 86 q 244 10 183 13 q 336 25 292 10 q 416 67 381 40 q 475 133 451 94 q 504 215 499 171 l 542 521 l 561 521 l 497 0 z "},"×":{"ha":589,"x_min":65,"x_max":475,"o":"m 418 0 l 268 171 q 173 85 219 128 q 78 0 126 43 q 72 7 75 3 q 65 14 68 11 q 160 99 114 57 q 256 185 207 142 l 108 353 l 124 367 l 271 199 q 367 283 319 242 q 463 368 414 325 q 469 361 465 365 q 475 354 472 357 q 379 269 426 311 q 283 185 332 228 l 433 14 l 418 0 z "},"O":{"ha":1163,"x_min":85,"x_max":1096,"o":"m 97 485 q 160 678 110 588 q 285 837 210 769 q 456 944 361 904 q 654 983 551 983 q 831 949 750 983 q 970 853 911 914 q 1063 710 1029 792 q 1096 535 1096 628 q 1049 324 1096 424 q 925 151 1003 225 q 745 33 847 76 q 532 -11 643 -11 q 344 28 429 -11 q 199 134 258 67 q 113 292 140 201 q 97 485 85 382 m 117 483 q 131 299 104 385 q 215 148 158 213 q 352 46 271 83 q 531 8 433 8 q 735 50 636 8 q 909 163 833 92 q 1030 330 985 235 q 1075 532 1075 425 q 1043 700 1075 621 q 954 838 1011 779 q 820 930 897 896 q 651 964 743 964 q 462 926 553 964 q 298 822 371 888 q 177 669 225 757 q 117 483 129 582 z "},"g":{"ha":706,"x_min":35,"x_max":619,"o":"m 46 233 q 71 349 46 294 q 138 444 96 403 q 234 508 179 485 q 350 532 289 532 q 498 484 436 532 q 581 361 560 436 q 592 441 586 401 q 606 521 599 481 l 619 521 l 554 -11 q 531 -99 549 -56 q 479 -175 514 -142 q 390 -229 444 -208 q 256 -250 336 -250 q 205 -247 231 -250 q 152 -231 179 -243 q 95 -199 125 -219 q 35 -143 65 -178 l 50 -129 q 109 -183 81 -162 q 163 -213 138 -203 q 213 -227 189 -224 q 257 -231 236 -231 q 381 -212 331 -231 q 463 -162 431 -194 q 511 -87 494 -131 q 536 8 528 -43 q 538 19 538 15 q 539 28 538 22 q 542 45 540 35 q 546 75 543 56 q 548 90 546 76 q 552 118 550 103 q 556 147 554 133 q 557 163 557 160 q 509 94 538 125 q 444 40 481 63 q 367 4 408 17 q 283 -8 326 -8 q 188 10 232 -8 q 113 62 144 29 q 64 138 82 94 q 46 233 46 182 m 65 236 q 82 148 65 189 q 128 76 99 107 q 197 28 157 46 q 286 11 238 11 q 393 33 342 11 q 484 92 444 54 q 547 179 524 129 q 569 286 569 229 q 553 375 569 333 q 506 447 536 417 q 435 495 476 478 q 347 513 394 513 q 240 490 290 513 q 150 431 189 468 q 88 342 111 393 q 65 236 65 292 z "},"d":{"ha":706,"x_min":46,"x_max":683,"o":"m 65 236 q 82 148 65 189 q 128 76 99 107 q 197 28 157 46 q 286 11 238 11 q 393 33 342 11 q 484 92 444 54 q 547 179 524 129 q 569 286 569 229 q 553 375 569 333 q 506 447 536 417 q 435 495 476 478 q 347 513 394 513 q 240 490 290 513 q 150 431 189 468 q 88 342 111 393 q 65 236 65 292 m 46 233 q 71 349 46 294 q 138 444 96 403 q 234 508 179 485 q 350 532 289 532 q 498 484 436 532 q 581 361 560 436 q 586 406 582 371 q 597 490 590 440 q 610 599 603 539 q 625 721 618 660 q 664 1042 642 865 l 683 1042 l 556 0 l 536 0 l 546 75 q 551 119 549 97 q 557 163 554 140 q 509 94 538 125 q 444 40 481 63 q 367 4 408 17 q 283 -8 326 -8 q 188 10 232 -8 q 113 62 144 29 q 64 138 82 94 q 46 233 46 182 z "},"a":{"ha":706,"x_min":46,"x_max":619,"o":"m 65 236 q 82 148 65 189 q 128 76 99 107 q 197 28 157 46 q 286 11 238 11 q 393 33 342 11 q 484 92 444 54 q 547 179 524 129 q 569 286 569 229 q 553 375 569 333 q 506 447 536 417 q 435 495 476 478 q 347 513 394 513 q 240 490 290 513 q 150 431 189 468 q 88 342 111 393 q 65 236 65 292 m 46 233 q 71 349 46 294 q 138 444 96 403 q 234 508 179 485 q 350 532 289 532 q 498 484 436 532 q 581 361 560 436 q 592 441 586 401 q 606 521 599 481 l 619 521 l 556 0 l 536 0 l 546 75 q 551 119 549 97 q 557 163 554 140 q 509 94 538 125 q 444 40 481 63 q 367 4 408 17 q 283 -8 326 -8 q 188 10 232 -8 q 113 62 144 29 q 64 138 82 94 q 46 233 46 182 z "},"n":{"ha":607,"x_min":58,"x_max":517,"o":"m 122 521 l 136 521 l 121 385 q 223 490 157 450 q 368 531 289 531 q 479 488 442 531 q 510 375 517 444 l 464 0 l 444 0 l 492 385 q 466 472 496 435 q 375 511 436 508 q 283 496 328 511 q 203 453 239 481 q 144 388 168 426 q 115 306 121 350 l 78 0 l 58 0 l 122 521 z "},"˛":{"ha":1157,"x_min":150,"x_max":375,"o":"m 306 -22 q 280 -67 301 -51 q 233 -98 258 -82 q 188 -136 208 -114 q 168 -201 168 -158 q 192 -265 168 -240 q 254 -290 215 -290 q 316 -272 289 -290 q 354 -224 343 -253 q 365 -226 360 -225 q 375 -229 369 -228 q 322 -290 356 -269 q 251 -310 288 -310 q 181 -283 211 -310 q 150 -197 150 -257 q 167 -137 150 -167 q 221 -85 185 -108 q 260 -59 240 -74 q 288 -8 281 -44 l 289 0 l 308 0 l 306 -22 z "},"ˇ":{"ha":618,"x_min":268,"x_max":601,"o":"m 404 665 q 336 791 369 728 q 268 917 303 854 l 290 917 q 349 810 321 864 q 408 703 378 756 q 494 810 451 756 q 579 917 536 864 l 601 917 q 503 791 553 854 q 404 665 453 728 z "},"˝":{"ha":606,"x_min":221,"x_max":693,"o":"m 221 665 q 294 758 257 711 q 368 850 332 804 l 390 850 q 317 758 354 804 q 243 665 279 711 l 221 665 m 524 665 q 597 758 560 711 q 671 850 635 804 l 693 850 q 619 758 657 804 q 546 665 582 711 l 524 665 z "},"˙":{"ha":257,"x_min":178,"x_max":235,"o":"m 178 692 q 188 713 178 704 q 210 722 197 722 q 228 715 221 722 q 235 697 235 708 q 225 676 235 685 q 203 667 215 667 q 185 674 192 667 q 178 692 178 681 z "},"˘":{"ha":707,"x_min":247,"x_max":701,"o":"m 451 694 q 367 711 406 694 q 301 757 328 728 q 260 826 274 786 q 251 913 247 867 l 272 913 q 280 837 268 872 q 315 774 292 801 q 374 730 339 746 q 453 714 408 714 q 536 730 497 714 q 605 774 575 746 q 654 837 635 801 q 679 913 674 872 l 701 913 q 673 826 696 867 q 616 757 650 786 q 540 711 582 728 q 451 694 497 694 z "},"Ą":{"ha":886,"x_min":-6,"x_max":865,"o":"m 238 442 l 667 442 l 669 461 l 240 461 l 238 442 m 779 0 q 652 469 710 235 q 525 938 594 703 q 521 955 522 946 q 517 972 519 964 q 508 955 513 964 q 500 938 504 946 q 258 469 372 703 q 15 0 143 235 l -6 0 q 258 508 133 256 q 522 1017 383 761 q 661 508 599 761 q 800 0 724 256 l 779 0 m 796 -22 q 770 -67 792 -51 q 724 -98 749 -82 q 680 -136 700 -114 q 660 -201 660 -158 q 683 -265 660 -240 q 744 -290 706 -290 q 806 -272 779 -290 q 844 -224 833 -253 q 855 -226 850 -225 q 865 -229 860 -228 q 813 -290 846 -269 q 743 -310 779 -310 q 671 -283 701 -310 q 640 -197 640 -257 q 658 -137 640 -167 q 713 -85 676 -108 q 751 -59 732 -74 q 778 -8 771 -44 l 779 0 l 799 0 l 796 -22 z "},"Ł":{"ha":767,"x_min":83,"x_max":713,"o":"m 83 388 l 86 407 l 542 567 l 539 547 l 83 388 m 129 0 l 249 972 l 268 972 l 150 19 l 713 19 l 711 0 l 129 0 z "},"Ľ":{"ha":758,"x_min":119,"x_max":704,"o":"m 119 0 l 239 972 l 258 972 l 142 19 l 704 19 l 701 0 l 119 0 m 438 794 q 435 807 436 801 q 432 819 435 813 q 483 888 465 847 q 497 978 501 929 q 511 983 504 981 q 525 988 518 985 q 507 881 531 932 q 438 794 483 831 z "},"Ś":{"ha":742,"x_min":38,"x_max":681,"o":"m 681 926 l 671 911 q 575 944 635 928 q 454 960 515 960 q 342 942 393 960 q 256 894 292 924 q 200 824 219 864 q 181 740 181 783 q 215 649 181 683 q 303 590 250 615 q 416 544 356 565 q 529 491 476 522 q 617 413 582 460 q 651 292 651 367 q 625 166 651 222 q 553 70 599 110 q 447 10 508 31 q 314 -11 385 -11 q 211 1 257 -11 q 130 31 165 14 q 72 64 94 47 q 38 88 49 81 l 51 106 q 98 74 69 90 q 162 42 126 57 q 238 18 197 28 q 321 8 278 8 q 432 26 376 8 q 532 78 488 43 q 604 165 576 113 q 632 288 632 217 q 597 404 632 360 q 510 478 563 449 q 397 528 457 507 q 283 576 336 550 q 196 638 231 601 q 161 735 161 674 q 184 831 161 786 q 247 908 207 875 q 338 959 286 940 q 449 978 390 978 q 504 974 474 978 q 566 964 535 971 q 627 947 597 957 q 681 926 657 938 m 401 1042 q 476 1134 439 1088 q 550 1226 513 1181 l 572 1226 q 498 1134 535 1181 q 424 1042 461 1088 l 401 1042 z "},"Š":{"ha":742,"x_min":38,"x_max":681,"o":"m 681 926 l 671 911 q 575 944 635 928 q 454 960 515 960 q 342 942 393 960 q 256 894 292 924 q 200 824 219 864 q 181 740 181 783 q 215 649 181 683 q 303 590 250 615 q 416 544 356 565 q 529 491 476 522 q 617 413 582 460 q 651 292 651 367 q 625 166 651 222 q 553 70 599 110 q 447 10 508 31 q 314 -11 385 -11 q 211 1 257 -11 q 130 31 165 14 q 72 64 94 47 q 38 88 49 81 l 51 106 q 98 74 69 90 q 162 42 126 57 q 238 18 197 28 q 321 8 278 8 q 432 26 376 8 q 532 78 488 43 q 604 165 576 113 q 632 288 632 217 q 597 404 632 360 q 510 478 563 449 q 397 528 457 507 q 283 576 336 550 q 196 638 231 601 q 161 735 161 674 q 184 831 161 786 q 247 908 207 875 q 338 959 286 940 q 449 978 390 978 q 504 974 474 978 q 566 964 535 971 q 627 947 597 957 q 681 926 657 938 m 447 1013 q 379 1138 413 1075 q 311 1264 346 1201 l 333 1264 q 392 1157 364 1211 q 451 1050 421 1103 q 537 1157 494 1103 q 622 1264 579 1211 l 644 1264 q 546 1138 596 1201 q 447 1013 496 1075 z "},"Ş":{"ha":742,"x_min":38,"x_max":681,"o":"m 681 926 l 671 911 q 575 944 635 928 q 454 960 515 960 q 342 942 393 960 q 256 894 292 924 q 200 824 219 864 q 181 740 181 783 q 215 649 181 683 q 303 590 250 615 q 416 544 356 565 q 529 491 476 522 q 617 413 582 460 q 651 292 651 367 q 625 166 651 222 q 553 70 599 110 q 447 10 508 31 q 314 -11 385 -11 q 211 1 257 -11 q 130 31 165 14 q 72 64 94 47 q 38 88 49 81 l 51 106 q 98 74 69 90 q 162 42 126 57 q 238 18 197 28 q 321 8 278 8 q 432 26 376 8 q 532 78 488 43 q 604 165 576 113 q 632 288 632 217 q 597 404 632 360 q 510 478 563 449 q 397 528 457 507 q 283 576 336 550 q 196 638 231 601 q 161 735 161 674 q 184 831 161 786 q 247 908 207 875 q 338 959 286 940 q 449 978 390 978 q 504 974 474 978 q 566 964 535 971 q 627 947 597 957 q 681 926 657 938 m 303 0 l 324 0 l 322 -8 q 323 -39 319 -26 q 334 -60 326 -51 q 351 -74 342 -68 q 369 -85 361 -79 q 406 -128 396 -104 q 417 -169 417 -151 q 406 -231 417 -206 q 376 -275 394 -257 q 333 -301 357 -293 q 283 -310 308 -310 q 218 -290 247 -310 q 181 -229 189 -269 q 191 -226 186 -228 q 201 -224 196 -225 q 229 -272 207 -253 q 286 -290 251 -290 q 365 -258 333 -290 q 396 -178 396 -226 q 380 -126 396 -144 q 345 -92 364 -107 q 312 -63 326 -78 q 300 -22 297 -49 l 303 0 z "},"Ť":{"ha":688,"x_min":125,"x_max":703,"o":"m 703 972 l 700 953 l 422 953 l 306 0 l 286 0 l 403 953 l 125 953 l 128 972 l 703 972 m 418 1013 q 517 1138 468 1075 q 617 1264 567 1201 l 594 1264 q 508 1157 550 1211 q 424 1050 467 1103 q 364 1157 393 1103 q 306 1264 335 1211 l 283 1264 q 351 1138 317 1201 q 418 1013 385 1075 z "},"Ź":{"ha":865,"x_min":-14,"x_max":860,"o":"m 200 972 l 860 972 l 24 19 l 789 19 l 786 0 l -14 0 q 403 484 194 250 q 818 953 611 718 l 217 953 q 156 964 174 953 q 142 1015 139 975 l 142 1021 l 164 1021 l 163 1004 q 169 982 161 992 q 200 972 176 972 m 513 1042 q 586 1134 549 1088 q 660 1226 624 1181 l 682 1226 q 608 1134 646 1181 q 535 1042 571 1088 l 513 1042 z "},"Ž":{"ha":865,"x_min":-14,"x_max":860,"o":"m 200 972 l 860 972 l 24 19 l 789 19 l 786 0 l -14 0 q 403 484 194 250 q 818 953 611 718 l 217 953 q 156 964 174 953 q 142 1015 139 975 l 142 1021 l 164 1021 l 163 1004 q 169 982 161 992 q 200 972 176 972 m 517 1013 q 448 1138 482 1075 q 381 1264 414 1201 l 403 1264 q 461 1157 432 1211 q 521 1050 490 1103 q 606 1157 564 1103 q 692 1264 647 1211 l 714 1264 q 615 1138 664 1201 q 517 1013 565 1075 z "},"Ż":{"ha":865,"x_min":-14,"x_max":860,"o":"m 200 972 l 860 972 l 24 19 l 789 19 l 786 0 l -14 0 q 403 484 194 250 q 818 953 611 718 l 217 953 q 156 964 174 953 q 142 1015 139 975 l 142 1021 l 164 1021 l 163 1004 q 169 982 161 992 q 200 972 176 972 m 499 1049 q 508 1070 499 1061 q 529 1079 518 1079 q 547 1072 540 1079 q 554 1054 554 1065 q 544 1033 554 1042 q 522 1024 535 1024 q 505 1031 511 1024 q 499 1049 499 1038 z "},"ą":{"ha":706,"x_min":46,"x_max":624,"o":"m 65 236 q 82 148 65 189 q 128 76 99 107 q 197 28 157 46 q 286 11 238 11 q 393 33 342 11 q 484 92 444 54 q 547 179 524 129 q 569 286 569 229 q 553 375 569 333 q 506 447 536 417 q 435 495 476 478 q 347 513 394 513 q 240 490 290 513 q 150 431 189 468 q 88 342 111 393 q 65 236 65 292 m 46 233 q 71 349 46 294 q 138 444 96 403 q 234 508 179 485 q 350 532 289 532 q 498 484 436 532 q 581 361 560 436 q 592 441 586 401 q 606 521 599 481 l 619 521 l 556 0 l 536 0 l 546 75 q 551 119 549 97 q 557 163 554 140 q 509 94 538 125 q 444 40 481 63 q 367 4 408 17 q 283 -8 326 -8 q 188 10 232 -8 q 113 62 144 29 q 64 138 82 94 q 46 233 46 182 m 557 0 l 538 0 l 536 -8 q 510 -59 529 -44 q 471 -85 490 -74 q 417 -137 435 -108 q 399 -197 399 -167 q 429 -283 399 -257 q 501 -310 460 -310 q 571 -290 538 -310 q 624 -229 604 -269 q 613 -226 618 -228 q 603 -224 608 -225 q 565 -272 592 -253 q 503 -290 538 -290 q 441 -265 464 -290 q 418 -201 418 -240 q 438 -136 418 -158 q 483 -98 458 -114 q 528 -67 507 -82 q 554 -22 550 -51 l 557 0 z "},"ł":{"ha":261,"x_min":40,"x_max":263,"o":"m 40 388 l 43 407 l 263 485 l 260 465 l 40 388 m 92 0 l 72 0 l 200 1042 l 219 1042 l 92 0 z "},"ľ":{"ha":239,"x_min":64,"x_max":367,"o":"m 83 0 l 64 0 l 192 1042 l 211 1042 l 83 0 m 274 794 q 272 807 272 801 q 268 819 271 813 q 319 888 301 847 q 333 978 338 929 q 347 983 340 981 q 361 988 354 985 q 343 881 367 932 q 274 794 319 831 z "},"ś":{"ha":436,"x_min":18,"x_max":419,"o":"m 365 467 q 358 460 363 464 q 350 453 354 456 q 326 477 340 467 q 296 494 313 488 q 263 503 279 500 q 232 507 246 507 q 190 501 213 507 q 147 480 167 494 q 113 442 126 465 q 99 388 99 419 q 117 334 99 354 q 163 300 136 314 q 223 276 190 286 q 283 251 256 265 q 328 213 310 236 q 347 153 347 190 q 335 92 347 122 q 301 40 324 63 q 244 3 278 17 q 168 -11 211 -11 q 87 3 131 -11 q 18 54 43 18 l 35 67 q 58 43 42 54 q 94 24 75 32 q 135 13 114 17 q 172 8 156 8 q 217 15 190 8 q 268 38 243 22 q 310 79 293 53 q 328 146 328 106 q 309 203 328 182 q 263 238 290 224 q 203 263 236 251 q 144 288 171 274 q 98 324 117 301 q 79 383 79 346 q 93 447 79 419 q 129 491 107 474 q 179 517 151 508 q 235 526 207 526 q 303 513 265 526 q 365 467 340 500 m 250 665 q 324 758 286 711 q 397 850 361 804 l 419 850 q 346 758 383 804 q 272 665 308 711 l 250 665 z "},"š":{"ha":436,"x_min":18,"x_max":450,"o":"m 365 467 q 358 460 363 464 q 350 453 354 456 q 326 477 340 467 q 296 494 313 488 q 263 503 279 500 q 232 507 246 507 q 190 501 213 507 q 147 480 167 494 q 113 442 126 465 q 99 388 99 419 q 117 334 99 354 q 163 300 136 314 q 223 276 190 286 q 283 251 256 265 q 328 213 310 236 q 347 153 347 190 q 335 92 347 122 q 301 40 324 63 q 244 3 278 17 q 168 -11 211 -11 q 87 3 131 -11 q 18 54 43 18 l 35 67 q 58 43 42 54 q 94 24 75 32 q 135 13 114 17 q 172 8 156 8 q 217 15 190 8 q 268 38 243 22 q 310 79 293 53 q 328 146 328 106 q 309 203 328 182 q 263 238 290 224 q 203 263 236 251 q 144 288 171 274 q 98 324 117 301 q 79 383 79 346 q 93 447 79 419 q 129 491 107 474 q 179 517 151 508 q 235 526 207 526 q 303 513 265 526 q 365 467 340 500 m 253 665 q 351 791 301 728 q 450 917 401 854 l 428 917 q 343 810 385 864 q 257 703 301 756 q 199 810 228 756 q 139 917 169 864 l 117 917 q 185 791 151 854 q 253 665 218 728 z "},"ş":{"ha":436,"x_min":18,"x_max":365,"o":"m 365 467 q 358 460 363 464 q 350 453 354 456 q 326 477 340 467 q 296 494 313 488 q 263 503 279 500 q 232 507 246 507 q 190 501 213 507 q 147 480 167 494 q 113 442 126 465 q 99 388 99 419 q 117 334 99 354 q 163 300 136 314 q 223 276 190 286 q 283 251 256 265 q 328 213 310 236 q 347 153 347 190 q 335 92 347 122 q 301 40 324 63 q 244 3 278 17 q 168 -11 211 -11 q 87 3 131 -11 q 18 54 43 18 l 35 67 q 58 43 42 54 q 94 24 75 32 q 135 13 114 17 q 172 8 156 8 q 217 15 190 8 q 268 38 243 22 q 310 79 293 53 q 328 146 328 106 q 309 203 328 182 q 263 238 290 224 q 203 263 236 251 q 144 288 171 274 q 98 324 117 301 q 79 383 79 346 q 93 447 79 419 q 129 491 107 474 q 179 517 151 508 q 235 526 207 526 q 303 513 265 526 q 365 467 340 500 m 150 0 l 169 0 l 168 -8 q 169 -39 165 -26 q 181 -60 174 -51 q 199 -74 189 -68 q 217 -85 208 -79 q 253 -128 243 -104 q 264 -169 264 -151 q 253 -231 264 -206 q 223 -275 242 -257 q 180 -301 204 -293 q 131 -310 156 -310 q 65 -290 94 -310 q 28 -229 36 -269 q 38 -226 33 -228 q 49 -224 43 -225 q 76 -272 54 -253 q 133 -290 99 -290 q 211 -258 179 -290 q 243 -178 243 -226 q 227 -126 243 -144 q 192 -92 211 -107 q 159 -63 174 -78 q 147 -22 144 -49 l 150 0 z "},"ť":{"ha":363,"x_min":38,"x_max":426,"o":"m 193 749 l 213 749 l 183 510 l 360 510 l 357 490 l 181 490 l 121 0 l 101 0 l 161 490 l 38 490 l 40 510 l 164 510 l 193 749 m 335 794 q 332 807 333 801 q 329 819 331 813 q 379 888 361 847 q 394 978 397 929 q 408 983 401 981 q 422 988 415 985 q 403 881 426 932 q 335 794 379 831 z "},"ź":{"ha":485,"x_min":1,"x_max":460,"o":"m 389 0 l 1 0 l 424 501 l 136 501 q 76 513 93 501 q 61 564 58 524 l 61 569 l 79 569 l 78 553 q 86 531 76 540 q 119 521 96 521 l 460 521 l 38 19 l 392 19 l 389 0 m 242 665 q 315 758 278 711 q 389 850 353 804 l 411 850 q 338 758 375 804 q 264 665 300 711 l 242 665 z "},"ž":{"ha":485,"x_min":1,"x_max":485,"o":"m 389 0 l 1 0 l 424 501 l 136 501 q 76 513 93 501 q 61 564 58 524 l 61 569 l 79 569 l 78 553 q 86 531 76 540 q 119 521 96 521 l 460 521 l 38 19 l 392 19 l 389 0 m 288 665 q 219 791 253 728 q 151 917 186 854 l 174 917 q 233 810 204 864 q 292 703 261 756 q 377 810 335 756 q 463 917 419 864 l 485 917 q 386 791 436 854 q 288 665 336 728 z "},"ż":{"ha":485,"x_min":1,"x_max":460,"o":"m 389 0 l 1 0 l 424 501 l 136 501 q 76 513 93 501 q 61 564 58 524 l 61 569 l 79 569 l 78 553 q 86 531 76 540 q 119 521 96 521 l 460 521 l 38 19 l 392 19 l 389 0 m 235 692 q 244 713 235 704 q 267 722 254 722 q 285 715 278 722 q 292 697 292 708 q 282 676 292 685 q 260 667 272 667 q 242 674 249 667 q 235 692 235 681 z "},"Ŕ":{"ha":786,"x_min":119,"x_max":694,"o":"m 471 468 l 694 0 l 669 0 l 449 468 l 471 468 m 196 465 l 356 465 q 503 496 444 465 q 598 570 563 526 q 648 662 633 614 q 663 746 663 710 q 644 830 663 792 q 594 895 626 868 q 516 938 561 922 q 417 953 471 953 l 256 953 l 196 465 m 119 0 l 239 972 l 433 972 q 515 960 471 972 q 595 922 558 949 q 657 852 632 896 q 682 746 682 808 q 662 637 682 690 q 601 541 642 583 q 497 472 560 499 q 349 446 433 446 l 193 446 l 139 0 l 119 0 m 458 1042 q 532 1134 494 1088 q 606 1226 569 1181 l 628 1226 q 554 1134 592 1181 q 481 1042 517 1088 l 458 1042 z "},"Ă":{"ha":886,"x_min":-6,"x_max":800,"o":"m 238 442 l 667 442 l 669 461 l 240 461 l 238 442 m 800 0 q 661 508 724 256 q 522 1017 599 761 q 258 508 383 761 q -6 0 133 256 l 15 0 q 258 469 143 235 q 500 938 372 703 q 508 955 504 946 q 517 972 513 964 q 521 955 519 964 q 525 938 522 946 q 652 469 594 703 q 779 0 710 235 l 800 0 m 526 1042 q 442 1058 481 1042 q 376 1104 403 1075 q 335 1174 349 1133 q 326 1260 322 1214 l 347 1260 q 355 1184 343 1219 q 391 1121 367 1149 q 450 1077 415 1093 q 529 1061 485 1061 q 612 1077 574 1061 q 680 1121 650 1093 q 729 1184 710 1149 q 754 1260 749 1219 l 776 1260 q 748 1174 771 1214 q 691 1104 725 1133 q 615 1058 657 1075 q 526 1042 572 1042 z "},"Ĺ":{"ha":758,"x_min":119,"x_max":704,"o":"m 119 0 l 239 972 l 258 972 l 142 19 l 704 19 l 701 0 l 119 0 m 472 1042 q 546 1134 508 1088 q 619 1226 583 1181 l 642 1226 q 568 1134 606 1181 q 494 1042 531 1088 l 472 1042 z "},"Ć":{"ha":899,"x_min":94,"x_max":901,"o":"m 796 58 q 670 8 736 26 q 529 -11 604 -11 q 347 24 428 -11 q 210 118 267 58 q 124 258 154 178 q 94 428 94 338 q 141 644 94 543 q 265 821 188 746 q 443 940 342 896 q 656 983 544 983 q 788 965 726 983 q 901 914 849 947 l 889 897 q 781 947 840 929 q 654 964 721 964 q 450 922 547 964 q 278 806 353 879 q 158 636 203 733 q 114 428 114 539 q 142 266 114 342 q 223 133 169 190 q 353 42 276 75 q 526 8 429 8 q 663 26 599 8 q 785 75 726 43 l 796 58 m 586 1042 q 660 1134 624 1088 q 735 1226 697 1181 l 757 1226 q 683 1134 719 1181 q 608 1042 646 1088 l 586 1042 z "},"Č":{"ha":899,"x_min":94,"x_max":901,"o":"m 796 58 q 670 8 736 26 q 529 -11 604 -11 q 347 24 428 -11 q 210 118 267 58 q 124 258 154 178 q 94 428 94 338 q 141 644 94 543 q 265 821 188 746 q 443 940 342 896 q 656 983 544 983 q 788 965 726 983 q 901 914 849 947 l 889 897 q 781 947 840 929 q 654 964 721 964 q 450 922 547 964 q 278 806 353 879 q 158 636 203 733 q 114 428 114 539 q 142 266 114 342 q 223 133 169 190 q 353 42 276 75 q 526 8 429 8 q 663 26 599 8 q 785 75 726 43 l 796 58 m 647 1013 q 746 1138 696 1075 q 844 1264 796 1201 l 822 1264 q 737 1157 779 1211 q 651 1050 694 1103 q 592 1157 621 1103 q 533 1264 564 1211 l 511 1264 q 579 1138 546 1201 q 647 1013 613 1075 z "},"Ę":{"ha":842,"x_min":119,"x_max":815,"o":"m 119 0 l 239 972 l 815 972 l 813 953 l 256 953 l 200 500 l 703 500 l 700 481 l 197 481 l 142 19 l 718 19 l 715 0 l 119 0 m 714 0 l 694 0 l 693 -8 q 667 -59 686 -44 q 628 -85 647 -74 q 574 -137 592 -108 q 556 -197 556 -167 q 586 -283 556 -257 q 658 -310 617 -310 q 728 -290 694 -310 q 781 -229 761 -269 q 770 -226 775 -228 q 760 -224 765 -225 q 722 -272 749 -253 q 660 -290 694 -290 q 598 -265 621 -290 q 575 -201 575 -240 q 595 -136 575 -158 q 640 -98 615 -114 q 685 -67 664 -82 q 711 -22 707 -51 l 714 0 z "},"Ě":{"ha":842,"x_min":119,"x_max":815,"o":"m 119 0 l 239 972 l 815 972 l 813 953 l 256 953 l 200 500 l 703 500 l 700 481 l 197 481 l 142 19 l 718 19 l 715 0 l 119 0 m 588 1013 q 519 1138 553 1075 q 451 1264 485 1201 l 474 1264 q 532 1157 503 1211 q 592 1050 561 1103 q 676 1157 635 1103 q 763 1264 718 1211 l 785 1264 q 685 1138 735 1201 q 588 1013 636 1075 z "},"Ď":{"ha":988,"x_min":119,"x_max":918,"o":"m 239 972 l 438 972 q 663 933 571 972 q 811 832 754 894 q 893 692 868 769 q 918 538 918 614 q 872 317 918 417 q 749 147 826 218 q 573 38 672 76 q 365 0 474 0 l 119 0 l 239 972 m 376 19 q 572 56 478 19 q 740 160 667 93 q 856 323 813 228 q 900 535 900 418 q 876 683 900 608 q 799 817 853 757 q 658 914 744 876 q 447 951 572 951 l 256 951 q 199 485 228 717 q 142 19 169 254 l 376 19 m 533 1013 q 465 1138 499 1075 q 397 1264 431 1201 l 419 1264 q 478 1157 449 1211 q 538 1050 507 1103 q 622 1157 581 1103 q 708 1264 664 1211 l 731 1264 q 631 1138 681 1201 q 533 1013 582 1075 z "},"Đ":{"ha":996,"x_min":114,"x_max":926,"o":"m 117 556 l 507 556 l 504 536 l 114 536 l 117 556 m 249 972 l 447 972 q 672 933 581 972 q 819 832 763 894 q 901 692 876 769 q 926 538 926 614 q 881 317 926 417 q 758 147 835 218 q 583 38 682 76 q 375 0 483 0 l 129 0 l 249 972 m 385 19 q 581 56 486 19 q 749 160 676 93 q 865 323 821 228 q 908 535 908 418 q 885 683 908 608 q 808 817 861 757 q 668 914 754 876 q 457 951 582 951 l 265 951 q 208 485 236 717 q 150 19 179 254 l 385 19 z "},"Ń":{"ha":1122,"x_min":118,"x_max":1031,"o":"m 1031 972 l 906 -44 q 581 447 738 204 q 274 931 425 689 q 263 949 268 940 q 251 967 257 957 l 251 922 l 138 0 l 118 0 l 243 1017 q 406 767 328 890 q 562 523 485 644 q 716 281 639 401 q 874 39 793 161 q 885 21 879 29 q 896 3 890 13 q 897 25 897 14 q 897 47 897 36 l 1011 972 l 1031 972 m 636 1042 q 710 1134 672 1088 q 783 1226 747 1181 l 806 1226 q 732 1134 769 1181 q 658 1042 694 1088 l 636 1042 z "},"Ň":{"ha":1122,"x_min":118,"x_max":1031,"o":"m 1031 972 l 906 -44 q 581 447 738 204 q 274 931 425 689 q 263 949 268 940 q 251 967 257 957 l 251 922 l 138 0 l 118 0 l 243 1017 q 406 767 328 890 q 562 523 485 644 q 716 281 639 401 q 874 39 793 161 q 885 21 879 29 q 896 3 890 13 q 897 25 897 14 q 897 47 897 36 l 1011 972 l 1031 972 m 654 1013 q 752 1138 703 1075 q 851 1264 801 1201 l 829 1264 q 743 1157 785 1211 q 658 1050 701 1103 q 599 1157 628 1103 q 540 1264 569 1211 l 518 1264 q 585 1138 551 1201 q 654 1013 619 1075 z "},"Ő":{"ha":1163,"x_min":85,"x_max":1096,"o":"m 97 485 q 160 678 110 588 q 285 837 210 769 q 456 944 361 904 q 654 983 551 983 q 831 949 750 983 q 970 853 911 914 q 1063 710 1029 792 q 1096 535 1096 628 q 1049 324 1096 424 q 925 151 1003 225 q 745 33 847 76 q 532 -11 643 -11 q 344 28 429 -11 q 199 134 258 67 q 113 292 140 201 q 97 485 85 382 m 117 483 q 131 299 104 385 q 215 148 158 213 q 352 46 271 83 q 531 8 433 8 q 735 50 636 8 q 909 163 833 92 q 1030 330 985 235 q 1075 532 1075 425 q 1043 700 1075 621 q 954 838 1011 779 q 820 930 897 896 q 651 964 743 964 q 462 926 553 964 q 298 822 371 888 q 177 669 225 757 q 117 483 129 582 m 493 1042 q 567 1134 529 1088 q 640 1226 604 1181 l 663 1226 q 589 1134 626 1181 q 515 1042 551 1088 l 493 1042 m 796 1042 q 869 1134 832 1088 q 943 1226 907 1181 l 965 1226 q 892 1134 929 1181 q 818 1042 854 1088 l 796 1042 z "},"Ř":{"ha":786,"x_min":119,"x_max":694,"o":"m 471 468 l 694 0 l 669 0 l 449 468 l 471 468 m 196 465 l 356 465 q 503 496 444 465 q 598 570 563 526 q 648 662 633 614 q 663 746 663 710 q 644 830 663 792 q 594 895 626 868 q 516 938 561 922 q 417 953 471 953 l 256 953 l 196 465 m 119 0 l 239 972 l 433 972 q 515 960 471 972 q 595 922 558 949 q 657 852 632 896 q 682 746 682 808 q 662 637 682 690 q 601 541 642 583 q 497 472 560 499 q 349 446 433 446 l 193 446 l 139 0 l 119 0 m 463 1013 q 394 1138 428 1075 q 326 1264 360 1201 l 349 1264 q 407 1157 378 1211 q 467 1050 436 1103 q 551 1157 510 1103 q 638 1264 593 1211 l 660 1264 q 560 1138 610 1201 q 463 1013 511 1075 z "},"Ů":{"ha":928,"x_min":135,"x_max":850,"o":"m 497 1124 q 515 1080 497 1099 q 557 1061 532 1061 q 610 1083 586 1061 q 633 1135 633 1106 q 616 1178 633 1160 q 574 1197 599 1197 q 521 1175 544 1197 q 497 1124 497 1153 m 476 1119 q 506 1188 476 1160 q 576 1217 536 1217 q 632 1194 611 1217 q 653 1139 653 1172 q 624 1070 653 1099 q 554 1042 594 1042 q 498 1064 519 1042 q 476 1119 476 1086 m 417 -11 q 295 10 350 -11 q 203 72 240 31 q 151 174 167 113 q 144 314 135 235 l 225 972 l 244 972 l 164 318 q 169 185 154 243 q 218 88 183 128 q 304 28 253 49 q 419 8 356 8 q 538 28 482 8 q 638 88 594 49 q 711 185 682 128 q 750 318 740 243 l 831 972 l 850 972 l 769 314 q 728 174 760 235 q 649 72 696 113 q 543 10 603 31 q 417 -11 483 -11 z "},"Ű":{"ha":928,"x_min":135,"x_max":850,"o":"m 417 -11 q 295 10 350 -11 q 203 72 240 31 q 151 174 167 113 q 144 314 135 235 l 225 972 l 244 972 l 164 318 q 169 185 154 243 q 218 88 183 128 q 304 28 253 49 q 419 8 356 8 q 538 28 482 8 q 638 88 594 49 q 711 185 682 128 q 750 318 740 243 l 831 972 l 850 972 l 769 314 q 728 174 760 235 q 649 72 696 113 q 543 10 603 31 q 417 -11 483 -11 m 367 1042 q 441 1134 404 1088 q 514 1226 478 1181 l 536 1226 q 463 1134 500 1181 q 389 1042 426 1088 l 367 1042 m 669 1042 q 744 1134 707 1088 q 817 1226 781 1181 l 839 1226 q 766 1134 803 1181 q 692 1042 729 1088 l 669 1042 z "},"Ţ":{"ha":688,"x_min":125,"x_max":703,"o":"m 703 972 l 700 953 l 422 953 l 306 0 l 286 0 l 403 953 l 125 953 l 128 972 l 703 972 m 304 -29 q 227 -172 265 -101 q 150 -315 189 -243 l 131 -315 q 201 -172 167 -243 q 272 -29 236 -101 l 304 -29 z "},"ŕ":{"ha":361,"x_min":58,"x_max":396,"o":"m 367 511 q 278 494 321 510 q 201 451 235 478 q 144 386 167 424 q 115 306 121 349 l 78 0 l 58 0 l 122 521 l 136 521 l 121 385 q 224 490 158 451 q 369 531 290 528 l 367 511 m 226 665 q 300 758 263 711 q 374 850 338 804 l 396 850 q 322 758 360 804 q 249 665 285 711 l 226 665 z "},"ă":{"ha":706,"x_min":46,"x_max":658,"o":"m 65 236 q 82 148 65 189 q 128 76 99 107 q 197 28 157 46 q 286 11 238 11 q 393 33 342 11 q 484 92 444 54 q 547 179 524 129 q 569 286 569 229 q 553 375 569 333 q 506 447 536 417 q 435 495 476 478 q 347 513 394 513 q 240 490 290 513 q 150 431 189 468 q 88 342 111 393 q 65 236 65 292 m 46 233 q 71 349 46 294 q 138 444 96 403 q 234 508 179 485 q 350 532 289 532 q 498 484 436 532 q 581 361 560 436 q 592 441 586 401 q 606 521 599 481 l 619 521 l 556 0 l 536 0 l 546 75 q 551 119 549 97 q 557 163 554 140 q 509 94 538 125 q 444 40 481 63 q 367 4 408 17 q 283 -8 326 -8 q 188 10 232 -8 q 113 62 144 29 q 64 138 82 94 q 46 233 46 182 m 407 694 q 323 711 361 694 q 258 757 285 728 q 217 826 231 786 q 208 913 204 867 l 229 913 q 236 837 225 872 q 272 774 247 801 q 331 730 296 746 q 410 714 365 714 q 492 730 454 714 q 560 774 531 746 q 610 837 590 801 q 636 913 629 872 l 658 913 q 630 826 653 867 q 572 757 607 786 q 495 711 538 728 q 407 694 453 694 z "},"ĺ":{"ha":239,"x_min":64,"x_max":326,"o":"m 83 0 l 64 0 l 192 1042 l 211 1042 l 83 0 m 157 1069 q 230 1162 193 1115 q 304 1254 267 1208 l 326 1254 q 252 1162 289 1208 q 179 1069 215 1115 l 157 1069 z "},"ć":{"ha":556,"x_min":46,"x_max":514,"o":"m 450 65 q 456 58 453 63 q 463 51 460 54 q 378 8 424 24 q 285 -8 333 -8 q 188 10 232 -8 q 113 62 144 29 q 64 138 82 94 q 46 233 46 182 q 71 349 46 294 q 138 444 96 403 q 234 508 179 485 q 350 532 289 532 q 440 516 399 532 q 514 472 482 500 q 506 465 511 468 q 499 457 501 461 q 431 498 469 483 q 349 513 393 513 q 241 490 292 513 q 151 431 190 468 q 88 342 111 393 q 65 236 65 292 q 82 148 65 189 q 128 76 99 107 q 197 28 157 46 q 286 11 238 11 q 372 26 331 11 q 450 65 414 40 m 319 665 q 394 758 357 711 q 468 850 431 804 l 490 850 q 416 758 453 804 q 342 665 379 711 l 319 665 z "},"č":{"ha":556,"x_min":46,"x_max":564,"o":"m 450 65 q 456 58 453 63 q 463 51 460 54 q 378 8 424 24 q 285 -8 333 -8 q 188 10 232 -8 q 113 62 144 29 q 64 138 82 94 q 46 233 46 182 q 71 349 46 294 q 138 444 96 403 q 234 508 179 485 q 350 532 289 532 q 440 516 399 532 q 514 472 482 500 q 506 465 511 468 q 499 457 501 461 q 431 498 469 483 q 349 513 393 513 q 241 490 292 513 q 151 431 190 468 q 88 342 111 393 q 65 236 65 292 q 82 148 65 189 q 128 76 99 107 q 197 28 157 46 q 286 11 238 11 q 372 26 331 11 q 450 65 414 40 m 367 665 q 466 791 417 728 q 564 917 515 854 l 542 917 q 457 810 499 864 q 372 703 415 756 q 313 810 342 756 q 253 917 283 864 l 231 917 q 299 791 265 854 q 367 665 333 728 z "},"ę":{"ha":603,"x_min":46,"x_max":564,"o":"m 479 64 q 389 11 439 31 q 285 -8 339 -8 q 188 10 232 -8 q 113 62 144 29 q 64 138 82 94 q 46 233 46 182 q 71 349 46 294 q 138 444 96 403 q 235 509 181 485 q 351 533 290 533 q 490 484 438 533 q 564 360 543 435 q 447 315 510 339 q 319 265 383 290 q 191 216 254 240 q 72 169 128 192 q 149 55 92 99 q 286 11 206 11 q 383 28 336 11 q 465 78 429 46 l 479 64 m 539 369 q 470 472 517 432 q 349 513 424 513 q 241 490 292 513 q 151 430 190 468 q 88 340 111 392 q 65 231 65 289 q 65 209 65 221 q 68 188 65 197 q 182 232 122 208 q 303 278 242 256 q 424 325 364 301 q 539 369 485 349 m 300 0 l 282 0 l 281 -8 q 253 -59 274 -44 q 214 -85 233 -74 q 160 -137 178 -108 q 143 -197 143 -167 q 173 -283 143 -257 q 244 -310 203 -310 q 314 -290 281 -310 q 367 -229 347 -269 q 357 -226 361 -228 q 347 -224 353 -225 q 308 -272 335 -253 q 247 -290 282 -290 q 184 -265 207 -290 q 161 -201 161 -240 q 181 -136 161 -158 q 226 -98 201 -114 q 273 -67 251 -82 q 297 -22 294 -51 l 300 0 z "},"ě":{"ha":603,"x_min":46,"x_max":564,"o":"m 479 64 q 389 11 439 31 q 285 -8 339 -8 q 188 10 232 -8 q 113 62 144 29 q 64 138 82 94 q 46 233 46 182 q 71 349 46 294 q 138 444 96 403 q 235 509 181 485 q 351 533 290 533 q 490 484 438 533 q 564 360 543 435 q 447 315 510 339 q 319 265 383 290 q 191 216 254 240 q 72 169 128 192 q 149 55 92 99 q 286 11 206 11 q 383 28 336 11 q 465 78 429 46 l 479 64 m 539 369 q 470 472 517 432 q 349 513 424 513 q 241 490 292 513 q 151 430 190 468 q 88 340 111 392 q 65 231 65 289 q 65 209 65 221 q 68 188 65 197 q 182 232 122 208 q 303 278 242 256 q 424 325 364 301 q 539 369 485 349 m 358 665 q 291 791 325 728 q 222 917 257 854 l 244 917 q 304 810 275 864 q 364 703 333 756 q 449 810 407 756 q 533 917 490 864 l 556 917 q 458 791 507 854 q 358 665 408 728 z "},"ď":{"ha":706,"x_min":46,"x_max":838,"o":"m 65 236 q 82 148 65 189 q 128 76 99 107 q 197 28 157 46 q 286 11 238 11 q 393 33 342 11 q 484 92 444 54 q 547 179 524 129 q 569 286 569 229 q 553 375 569 333 q 506 447 536 417 q 435 495 476 478 q 347 513 394 513 q 240 490 290 513 q 150 431 189 468 q 88 342 111 393 q 65 236 65 292 m 46 233 q 71 349 46 294 q 138 444 96 403 q 234 508 179 485 q 350 532 289 532 q 498 484 436 532 q 581 361 560 436 q 586 406 582 371 q 597 490 590 440 q 610 599 603 539 q 625 721 618 660 q 664 1042 642 865 l 683 1042 l 556 0 l 536 0 l 546 75 q 551 119 549 97 q 557 163 554 140 q 509 94 538 125 q 444 40 481 63 q 367 4 408 17 q 283 -8 326 -8 q 188 10 232 -8 q 113 62 144 29 q 64 138 82 94 q 46 233 46 182 m 744 794 q 742 807 743 801 q 739 819 742 813 q 790 888 772 847 q 804 978 808 929 q 818 983 811 981 q 832 988 825 985 q 814 881 838 932 q 744 794 790 831 z "},"đ":{"ha":706,"x_min":46,"x_max":756,"o":"m 364 856 l 754 856 l 756 875 l 365 875 l 364 856 m 65 236 q 82 148 65 189 q 128 76 99 107 q 197 28 157 46 q 286 11 238 11 q 393 33 342 11 q 484 92 444 54 q 547 179 524 129 q 569 286 569 229 q 553 375 569 333 q 506 447 536 417 q 435 495 476 478 q 347 513 394 513 q 240 490 290 513 q 150 431 189 468 q 88 342 111 393 q 65 236 65 292 m 46 233 q 71 349 46 294 q 138 444 96 403 q 234 508 179 485 q 350 532 289 532 q 498 484 436 532 q 581 361 560 436 q 586 406 582 371 q 597 490 590 440 q 610 599 603 539 q 625 721 618 660 q 664 1042 642 865 l 683 1042 l 556 0 l 536 0 l 546 75 q 551 119 549 97 q 557 163 554 140 q 509 94 538 125 q 444 40 481 63 q 367 4 408 17 q 283 -8 326 -8 q 188 10 232 -8 q 113 62 144 29 q 64 138 82 94 q 46 233 46 182 z "},"ń":{"ha":607,"x_min":58,"x_max":517,"o":"m 122 521 l 136 521 l 121 385 q 223 490 157 450 q 368 531 289 531 q 479 488 442 531 q 510 375 517 444 l 464 0 l 444 0 l 492 385 q 466 472 496 435 q 375 511 436 508 q 283 496 328 511 q 203 453 239 481 q 144 388 168 426 q 115 306 121 350 l 78 0 l 58 0 l 122 521 m 311 665 q 385 758 347 711 q 458 850 422 804 l 481 850 q 407 758 444 804 q 333 665 369 711 l 311 665 z "},"ň":{"ha":607,"x_min":58,"x_max":542,"o":"m 122 521 l 136 521 l 121 385 q 223 490 157 450 q 368 531 289 531 q 479 488 442 531 q 510 375 517 444 l 464 0 l 444 0 l 492 385 q 466 472 496 435 q 375 511 436 508 q 283 496 328 511 q 203 453 239 481 q 144 388 168 426 q 115 306 121 350 l 78 0 l 58 0 l 122 521 m 344 665 q 276 791 310 728 q 208 917 243 854 l 231 917 q 290 810 261 864 q 349 703 318 756 q 434 810 392 756 q 519 917 476 864 l 542 917 q 443 791 493 854 q 344 665 393 728 z "},"ő":{"ha":664,"x_min":40,"x_max":671,"o":"m 47 261 q 81 367 54 317 q 149 453 108 417 q 242 512 190 490 q 350 533 293 533 q 446 515 401 533 q 523 463 490 496 q 574 385 556 429 q 592 289 592 340 q 566 174 592 228 q 498 79 540 119 q 399 15 456 39 q 283 -8 343 -8 q 181 13 226 -8 q 103 70 135 33 q 56 156 71 107 q 47 261 40 204 m 67 261 q 74 163 60 208 q 118 84 89 118 q 190 31 147 50 q 286 11 233 11 q 393 33 342 11 q 484 92 444 54 q 547 179 524 129 q 569 286 569 229 q 553 375 569 333 q 506 447 536 417 q 435 495 476 478 q 347 513 394 513 q 247 493 294 513 q 161 439 199 474 q 98 358 124 404 q 67 261 72 313 m 199 665 q 272 758 235 711 q 346 850 310 804 l 368 850 q 294 758 332 804 q 221 665 257 711 l 199 665 m 501 665 q 575 758 538 711 q 649 850 613 804 l 671 850 q 597 758 635 804 q 524 665 560 711 l 501 665 z "},"ř":{"ha":361,"x_min":58,"x_max":442,"o":"m 367 511 q 278 494 321 510 q 201 451 235 478 q 144 386 167 424 q 115 306 121 349 l 78 0 l 58 0 l 122 521 l 136 521 l 121 385 q 224 490 158 451 q 369 531 290 528 l 367 511 m 244 665 q 176 791 210 728 q 108 917 143 854 l 131 917 q 190 810 161 864 q 249 703 218 756 q 334 810 292 756 q 419 917 376 864 l 442 917 q 343 791 393 854 q 244 665 293 728 z "},"ů":{"ha":607,"x_min":63,"x_max":521,"o":"m 272 646 q 290 602 272 621 q 333 583 308 583 q 386 606 363 583 q 410 657 410 628 q 392 701 410 682 q 350 719 375 719 q 297 697 321 719 q 272 646 272 675 m 253 642 q 283 710 253 682 q 353 739 313 739 q 408 717 388 739 q 429 661 429 694 q 400 592 429 621 q 331 564 371 564 q 274 586 296 564 q 253 642 253 608 m 457 0 l 443 0 l 458 136 q 356 30 422 69 q 211 -10 289 -10 q 100 33 138 -10 q 69 146 63 76 l 115 521 l 135 521 l 88 136 q 113 49 83 86 q 204 10 143 13 q 296 25 251 10 q 376 67 340 40 q 435 133 411 94 q 464 215 458 171 l 501 521 l 521 521 l 457 0 z "},"ű":{"ha":607,"x_min":63,"x_max":639,"o":"m 457 0 l 443 0 l 458 136 q 356 30 422 69 q 211 -10 289 -10 q 100 33 138 -10 q 69 146 63 76 l 115 521 l 135 521 l 88 136 q 113 49 83 86 q 204 10 143 13 q 296 25 251 10 q 376 67 340 40 q 435 133 411 94 q 464 215 458 171 l 501 521 l 521 521 l 457 0 m 167 665 q 240 758 203 711 q 314 850 278 804 l 336 850 q 263 758 300 804 q 189 665 225 711 l 167 665 m 469 665 q 543 758 506 711 q 617 850 581 804 l 639 850 q 565 758 603 804 q 492 665 528 711 l 469 665 z "},"ţ":{"ha":363,"x_min":-44,"x_max":360,"o":"m 193 749 l 213 749 l 183 510 l 360 510 l 357 490 l 181 490 l 121 0 l 101 0 l 161 490 l 38 490 l 40 510 l 164 510 l 193 749 m 129 -29 q 52 -172 90 -101 q -25 -315 14 -243 l -44 -315 q 26 -172 -8 -243 q 97 -29 61 -101 l 129 -29 z "},"Ħ":{"ha":1040,"x_min":108,"x_max":1014,"o":"m 108 683 l 111 703 l 1014 703 l 1011 683 l 108 683 m 133 0 l 253 972 l 272 972 l 214 500 l 858 500 l 917 972 l 942 972 q 878 486 910 728 q 817 0 847 244 l 797 0 l 856 481 l 211 481 l 153 0 l 133 0 z "},"Ĥ":{"ha":1017,"x_min":119,"x_max":928,"o":"m 119 0 l 239 972 l 258 972 l 200 500 l 844 500 l 903 972 l 928 972 q 865 486 896 728 q 803 0 835 244 l 783 0 l 842 481 l 197 481 l 139 0 l 119 0 m 625 1293 q 693 1167 660 1231 q 761 1042 726 1104 l 739 1042 q 680 1149 708 1094 q 621 1256 651 1203 q 535 1149 578 1203 q 450 1042 493 1094 l 428 1042 q 526 1167 476 1104 q 625 1293 576 1231 z "},"İ":{"ha":350,"x_min":119,"x_max":289,"o":"m 239 972 l 258 972 l 139 0 l 119 0 l 239 972 m 232 1067 q 242 1088 232 1079 q 264 1097 251 1097 q 282 1090 275 1097 q 289 1072 289 1083 q 279 1051 289 1060 q 257 1042 269 1042 q 239 1049 246 1042 q 232 1067 232 1056 z "},"Ğ":{"ha":942,"x_min":94,"x_max":901,"o":"m 839 417 l 794 58 q 670 8 736 26 q 533 -11 604 -11 q 349 23 431 -11 q 210 117 267 57 q 124 257 154 176 q 94 429 94 338 q 141 644 94 543 q 265 820 188 744 q 443 940 342 896 q 656 983 544 983 q 788 965 726 983 q 901 914 849 947 l 889 897 q 653 964 786 964 q 450 922 547 964 q 278 806 353 879 q 158 636 203 733 q 114 429 114 539 q 142 265 114 342 q 224 131 171 188 q 356 41 278 74 q 532 8 433 8 q 658 24 597 8 q 776 71 719 40 l 817 397 l 578 397 l 581 417 l 839 417 m 631 1040 q 546 1057 585 1040 q 480 1103 507 1074 q 440 1172 453 1132 q 431 1258 426 1213 l 451 1258 q 459 1183 447 1218 q 495 1119 471 1147 q 554 1076 519 1092 q 633 1060 589 1060 q 716 1076 678 1060 q 784 1119 754 1092 q 833 1183 814 1147 q 858 1258 853 1218 l 881 1258 q 853 1172 875 1213 q 796 1103 831 1132 q 719 1057 761 1074 q 631 1040 676 1040 z "},"Ĵ":{"ha":351,"x_min":-139,"x_max":428,"o":"m -139 -197 l -136 -178 q -39 -153 -85 -175 q 44 -92 7 -132 q 106 3 81 -53 q 139 129 131 58 l 243 972 l 261 972 l 157 125 q 119 -12 147 47 q 52 -111 92 -71 q -37 -174 13 -151 q -139 -197 -86 -196 m 292 1293 q 359 1167 325 1231 q 428 1042 393 1104 l 406 1042 q 346 1149 375 1094 q 286 1256 317 1203 q 201 1149 243 1203 q 117 1042 160 1094 l 94 1042 q 192 1167 143 1104 q 292 1293 242 1231 z "},"ħ":{"ha":607,"x_min":58,"x_max":517,"o":"m 79 793 l 82 813 l 401 813 l 399 793 l 79 793 m 186 1042 l 206 1042 l 126 393 q 168 447 143 422 q 224 491 193 472 q 292 520 256 510 q 368 531 329 531 q 479 488 442 531 q 510 375 517 444 l 464 0 l 444 0 l 492 385 q 466 472 496 435 q 375 511 436 508 q 283 496 328 511 q 203 453 239 481 q 144 388 168 426 q 115 306 121 350 l 78 0 l 58 0 l 186 1042 z "},"ĥ":{"ha":607,"x_min":58,"x_max":589,"o":"m 186 1042 l 206 1042 l 126 393 q 168 447 143 422 q 224 491 193 472 q 292 520 256 510 q 368 531 329 531 q 479 488 442 531 q 510 375 517 444 l 464 0 l 444 0 l 492 385 q 466 472 496 435 q 375 511 436 508 q 283 496 328 511 q 203 453 239 481 q 144 388 168 426 q 115 306 121 350 l 78 0 l 58 0 l 186 1042 m 453 1293 q 521 1167 488 1231 q 589 1042 554 1104 l 567 1042 q 508 1149 536 1094 q 449 1256 479 1203 q 363 1149 406 1203 q 278 1042 321 1094 l 256 1042 q 354 1167 304 1104 q 453 1293 404 1231 z "},"ı":{"ha":228,"x_min":58,"x_max":142,"o":"m 78 0 l 58 0 l 122 521 l 142 521 l 78 0 z "},"ğ":{"ha":706,"x_min":35,"x_max":654,"o":"m 46 233 q 71 349 46 294 q 138 444 96 403 q 234 508 179 485 q 350 532 289 532 q 498 484 436 532 q 581 361 560 436 q 592 441 586 401 q 606 521 599 481 l 619 521 l 554 -11 q 531 -99 549 -56 q 479 -175 514 -142 q 390 -229 444 -208 q 256 -250 336 -250 q 205 -247 231 -250 q 152 -231 179 -243 q 95 -199 125 -219 q 35 -143 65 -178 l 50 -129 q 109 -183 81 -162 q 163 -213 138 -203 q 213 -227 189 -224 q 257 -231 236 -231 q 381 -212 331 -231 q 463 -162 431 -194 q 511 -87 494 -131 q 536 8 528 -43 q 538 19 538 15 q 539 28 538 22 q 542 45 540 35 q 546 75 543 56 q 548 90 546 76 q 552 118 550 103 q 556 147 554 133 q 557 163 557 160 q 509 94 538 125 q 444 40 481 63 q 367 4 408 17 q 283 -8 326 -8 q 188 10 232 -8 q 113 62 144 29 q 64 138 82 94 q 46 233 46 182 m 65 236 q 82 148 65 189 q 128 76 99 107 q 197 28 157 46 q 286 11 238 11 q 393 33 342 11 q 484 92 444 54 q 547 179 524 129 q 569 286 569 229 q 553 375 569 333 q 506 447 536 417 q 435 495 476 478 q 347 513 394 513 q 240 490 290 513 q 150 431 189 468 q 88 342 111 393 q 65 236 65 292 m 403 694 q 319 711 357 694 q 253 757 281 728 q 213 826 226 786 q 204 913 200 867 l 225 913 q 232 837 221 872 q 267 774 243 801 q 326 730 292 746 q 406 714 361 714 q 488 730 450 714 q 556 774 526 746 q 606 837 586 801 q 632 913 625 872 l 654 913 q 626 826 649 867 q 568 757 603 786 q 491 711 533 728 q 403 694 449 694 z "},"ĵ":{"ha":228,"x_min":-47,"x_max":318,"o":"m -32 -250 q -40 -244 -36 -247 q -47 -237 -43 -240 q 21 -142 -7 -199 q 57 -15 49 -86 l 122 521 l 142 521 l 76 -10 q 38 -149 67 -89 q -32 -250 10 -210 m 182 915 q 250 790 217 853 q 318 664 283 726 l 296 664 q 236 771 265 717 q 178 878 207 825 q 92 771 133 825 q 7 664 50 717 l -15 664 q 83 790 33 726 q 182 915 133 853 z "},"Ċ":{"ha":899,"x_min":94,"x_max":901,"o":"m 796 58 q 670 8 736 26 q 529 -11 604 -11 q 347 24 428 -11 q 210 118 267 58 q 124 258 154 178 q 94 428 94 338 q 141 644 94 543 q 265 821 188 746 q 443 940 342 896 q 656 983 544 983 q 788 965 726 983 q 901 914 849 947 l 889 897 q 781 947 840 929 q 654 964 721 964 q 450 922 547 964 q 278 806 353 879 q 158 636 203 733 q 114 428 114 539 q 142 266 114 342 q 223 133 169 190 q 353 42 276 75 q 526 8 429 8 q 663 26 599 8 q 785 75 726 43 l 796 58 m 611 1067 q 621 1088 611 1079 q 642 1097 631 1097 q 660 1090 653 1097 q 667 1072 667 1083 q 657 1051 667 1060 q 635 1042 647 1042 q 617 1049 624 1042 q 611 1067 611 1056 z "},"Ĉ":{"ha":899,"x_min":94,"x_max":901,"o":"m 796 58 q 670 8 736 26 q 529 -11 604 -11 q 347 24 428 -11 q 210 118 267 58 q 124 258 154 178 q 94 428 94 338 q 141 644 94 543 q 265 821 188 746 q 443 940 342 896 q 656 983 544 983 q 788 965 726 983 q 901 914 849 947 l 889 897 q 781 947 840 929 q 654 964 721 964 q 450 922 547 964 q 278 806 353 879 q 158 636 203 733 q 114 428 114 539 q 142 266 114 342 q 223 133 169 190 q 353 42 276 75 q 526 8 429 8 q 663 26 599 8 q 785 75 726 43 l 796 58 m 686 1293 q 753 1167 719 1231 q 821 1042 788 1104 l 799 1042 q 740 1149 769 1094 q 681 1256 711 1203 q 596 1149 638 1203 q 510 1042 554 1094 l 488 1042 q 587 1167 538 1104 q 686 1293 636 1231 z "},"Ġ":{"ha":942,"x_min":94,"x_max":901,"o":"m 839 417 l 794 58 q 670 8 736 26 q 533 -11 604 -11 q 349 23 431 -11 q 210 117 267 57 q 124 257 154 176 q 94 429 94 338 q 141 644 94 543 q 265 820 188 744 q 443 940 342 896 q 656 983 544 983 q 788 965 726 983 q 901 914 849 947 l 889 897 q 653 964 786 964 q 450 922 547 964 q 278 806 353 879 q 158 636 203 733 q 114 429 114 539 q 142 265 114 342 q 224 131 171 188 q 356 41 278 74 q 532 8 433 8 q 658 24 597 8 q 776 71 719 40 l 817 397 l 578 397 l 581 417 l 839 417 m 611 1067 q 620 1088 611 1079 q 642 1097 629 1097 q 660 1090 653 1097 q 667 1072 667 1083 q 657 1051 667 1060 q 635 1042 647 1042 q 617 1049 624 1042 q 611 1067 611 1056 z "},"Ĝ":{"ha":942,"x_min":94,"x_max":901,"o":"m 839 417 l 794 58 q 670 8 736 26 q 533 -11 604 -11 q 349 23 431 -11 q 210 117 267 57 q 124 257 154 176 q 94 429 94 338 q 141 644 94 543 q 265 820 188 744 q 443 940 342 896 q 656 983 544 983 q 788 965 726 983 q 901 914 849 947 l 889 897 q 653 964 786 964 q 450 922 547 964 q 278 806 353 879 q 158 636 203 733 q 114 429 114 539 q 142 265 114 342 q 224 131 171 188 q 356 41 278 74 q 532 8 433 8 q 658 24 597 8 q 776 71 719 40 l 817 397 l 578 397 l 581 417 l 839 417 m 678 1293 q 745 1167 711 1231 q 813 1042 779 1104 l 790 1042 q 732 1149 761 1094 q 672 1256 703 1203 q 588 1149 629 1203 q 501 1042 546 1094 l 479 1042 q 578 1167 529 1104 q 678 1293 628 1231 z "},"Ŭ":{"ha":928,"x_min":135,"x_max":850,"o":"m 417 -11 q 295 10 350 -11 q 203 72 240 31 q 151 174 167 113 q 144 314 135 235 l 225 972 l 244 972 l 164 318 q 169 185 154 243 q 218 88 183 128 q 304 28 253 49 q 419 8 356 8 q 538 28 482 8 q 638 88 594 49 q 711 185 682 128 q 750 318 740 243 l 831 972 l 850 972 l 769 314 q 728 174 760 235 q 649 72 696 113 q 543 10 603 31 q 417 -11 483 -11 m 558 1040 q 474 1057 513 1040 q 408 1103 435 1074 q 367 1172 381 1132 q 358 1258 354 1213 l 379 1258 q 387 1183 375 1218 q 423 1119 399 1147 q 482 1076 447 1092 q 561 1060 517 1060 q 644 1076 606 1060 q 712 1119 682 1092 q 761 1183 742 1147 q 786 1258 781 1218 l 808 1258 q 780 1172 803 1213 q 723 1103 757 1132 q 647 1057 689 1074 q 558 1040 604 1040 z "},"Ŝ":{"ha":742,"x_min":38,"x_max":681,"o":"m 681 926 l 671 911 q 575 944 635 928 q 454 960 515 960 q 342 942 393 960 q 256 894 292 924 q 200 824 219 864 q 181 740 181 783 q 215 649 181 683 q 303 590 250 615 q 416 544 356 565 q 529 491 476 522 q 617 413 582 460 q 651 292 651 367 q 625 166 651 222 q 553 70 599 110 q 447 10 508 31 q 314 -11 385 -11 q 211 1 257 -11 q 130 31 165 14 q 72 64 94 47 q 38 88 49 81 l 51 106 q 98 74 69 90 q 162 42 126 57 q 238 18 197 28 q 321 8 278 8 q 432 26 376 8 q 532 78 488 43 q 604 165 576 113 q 632 288 632 217 q 597 404 632 360 q 510 478 563 449 q 397 528 457 507 q 283 576 336 550 q 196 638 231 601 q 161 735 161 674 q 184 831 161 786 q 247 908 207 875 q 338 959 286 940 q 449 978 390 978 q 504 974 474 978 q 566 964 535 971 q 627 947 597 957 q 681 926 657 938 m 493 1293 q 560 1167 526 1231 q 628 1042 594 1104 l 606 1042 q 547 1149 576 1094 q 488 1256 518 1203 q 403 1149 444 1203 q 317 1042 361 1094 l 294 1042 q 394 1167 344 1104 q 493 1293 443 1231 z "},"ċ":{"ha":556,"x_min":46,"x_max":514,"o":"m 450 65 q 456 58 453 63 q 463 51 460 54 q 378 8 424 24 q 285 -8 333 -8 q 188 10 232 -8 q 113 62 144 29 q 64 138 82 94 q 46 233 46 182 q 71 349 46 294 q 138 444 96 403 q 234 508 179 485 q 350 532 289 532 q 440 516 399 532 q 514 472 482 500 q 506 465 511 468 q 499 457 501 461 q 431 498 469 483 q 349 513 393 513 q 241 490 292 513 q 151 431 190 468 q 88 342 111 393 q 65 236 65 292 q 82 148 65 189 q 128 76 99 107 q 197 28 157 46 q 286 11 238 11 q 372 26 331 11 q 450 65 414 40 m 342 692 q 351 713 342 704 q 372 722 360 722 q 390 715 383 722 q 397 697 397 708 q 388 676 397 685 q 365 667 378 667 q 348 674 354 667 q 342 692 342 681 z "},"ĉ":{"ha":556,"x_min":46,"x_max":521,"o":"m 450 65 q 456 58 453 63 q 463 51 460 54 q 378 8 424 24 q 285 -8 333 -8 q 188 10 232 -8 q 113 62 144 29 q 64 138 82 94 q 46 233 46 182 q 71 349 46 294 q 138 444 96 403 q 234 508 179 485 q 350 532 289 532 q 440 516 399 532 q 514 472 482 500 q 506 465 511 468 q 499 457 501 461 q 431 498 469 483 q 349 513 393 513 q 241 490 292 513 q 151 431 190 468 q 88 342 111 393 q 65 236 65 292 q 82 148 65 189 q 128 76 99 107 q 197 28 157 46 q 286 11 238 11 q 372 26 331 11 q 450 65 414 40 m 385 915 q 453 790 419 853 q 521 664 486 726 l 499 664 q 440 771 468 717 q 381 878 411 825 q 295 771 338 825 q 210 664 253 717 l 188 664 q 286 790 236 726 q 385 915 336 853 z "},"ġ":{"ha":706,"x_min":35,"x_max":619,"o":"m 46 233 q 71 349 46 294 q 138 444 96 403 q 234 508 179 485 q 350 532 289 532 q 498 484 436 532 q 581 361 560 436 q 592 441 586 401 q 606 521 599 481 l 619 521 l 554 -11 q 531 -99 549 -56 q 479 -175 514 -142 q 390 -229 444 -208 q 256 -250 336 -250 q 205 -247 231 -250 q 152 -231 179 -243 q 95 -199 125 -219 q 35 -143 65 -178 l 50 -129 q 109 -183 81 -162 q 163 -213 138 -203 q 213 -227 189 -224 q 257 -231 236 -231 q 381 -212 331 -231 q 463 -162 431 -194 q 511 -87 494 -131 q 536 8 528 -43 q 538 19 538 15 q 539 28 538 22 q 542 45 540 35 q 546 75 543 56 q 548 90 546 76 q 552 118 550 103 q 556 147 554 133 q 557 163 557 160 q 509 94 538 125 q 444 40 481 63 q 367 4 408 17 q 283 -8 326 -8 q 188 10 232 -8 q 113 62 144 29 q 64 138 82 94 q 46 233 46 182 m 65 236 q 82 148 65 189 q 128 76 99 107 q 197 28 157 46 q 286 11 238 11 q 393 33 342 11 q 484 92 444 54 q 547 179 524 129 q 569 286 569 229 q 553 375 569 333 q 506 447 536 417 q 435 495 476 478 q 347 513 394 513 q 240 490 290 513 q 150 431 189 468 q 88 342 111 393 q 65 236 65 292 m 372 692 q 382 713 372 704 q 404 722 392 722 q 422 715 415 722 q 429 697 429 708 q 419 676 429 685 q 397 667 410 667 q 379 674 386 667 q 372 692 372 681 z "},"ĝ":{"ha":706,"x_min":35,"x_max":619,"o":"m 46 233 q 71 349 46 294 q 138 444 96 403 q 234 508 179 485 q 350 532 289 532 q 498 484 436 532 q 581 361 560 436 q 592 441 586 401 q 606 521 599 481 l 619 521 l 554 -11 q 531 -99 549 -56 q 479 -175 514 -142 q 390 -229 444 -208 q 256 -250 336 -250 q 205 -247 231 -250 q 152 -231 179 -243 q 95 -199 125 -219 q 35 -143 65 -178 l 50 -129 q 109 -183 81 -162 q 163 -213 138 -203 q 213 -227 189 -224 q 257 -231 236 -231 q 381 -212 331 -231 q 463 -162 431 -194 q 511 -87 494 -131 q 536 8 528 -43 q 538 19 538 15 q 539 28 538 22 q 542 45 540 35 q 546 75 543 56 q 548 90 546 76 q 552 118 550 103 q 556 147 554 133 q 557 163 557 160 q 509 94 538 125 q 444 40 481 63 q 367 4 408 17 q 283 -8 326 -8 q 188 10 232 -8 q 113 62 144 29 q 64 138 82 94 q 46 233 46 182 m 65 236 q 82 148 65 189 q 128 76 99 107 q 197 28 157 46 q 286 11 238 11 q 393 33 342 11 q 484 92 444 54 q 547 179 524 129 q 569 286 569 229 q 553 375 569 333 q 506 447 536 417 q 435 495 476 478 q 347 513 394 513 q 240 490 290 513 q 150 431 189 468 q 88 342 111 393 q 65 236 65 292 m 425 917 q 493 791 460 854 q 561 665 526 728 l 539 665 q 479 772 508 718 q 421 879 450 826 q 335 772 376 826 q 250 665 293 718 l 228 665 q 326 791 276 728 q 425 917 376 854 z "},"ŭ":{"ha":607,"x_min":63,"x_max":592,"o":"m 457 0 l 443 0 l 458 136 q 356 30 422 69 q 211 -10 289 -10 q 100 33 138 -10 q 69 146 63 76 l 115 521 l 135 521 l 88 136 q 113 49 83 86 q 204 10 143 13 q 296 25 251 10 q 376 67 340 40 q 435 133 411 94 q 464 215 458 171 l 501 521 l 521 521 l 457 0 m 342 694 q 257 711 296 694 q 191 757 218 728 q 151 826 164 786 q 142 913 138 867 l 163 913 q 170 837 158 872 q 206 774 182 801 q 264 730 229 746 q 343 714 299 714 q 426 730 388 714 q 495 774 465 746 q 544 837 525 801 q 569 913 564 872 l 592 913 q 563 826 586 867 q 506 757 540 786 q 430 711 472 728 q 342 694 388 694 z "},"ŝ":{"ha":436,"x_min":18,"x_max":407,"o":"m 365 467 q 358 460 363 464 q 350 453 354 456 q 326 477 340 467 q 296 494 313 488 q 263 503 279 500 q 232 507 246 507 q 190 501 213 507 q 147 480 167 494 q 113 442 126 465 q 99 388 99 419 q 117 334 99 354 q 163 300 136 314 q 223 276 190 286 q 283 251 256 265 q 328 213 310 236 q 347 153 347 190 q 335 92 347 122 q 301 40 324 63 q 244 3 278 17 q 168 -11 211 -11 q 87 3 131 -11 q 18 54 43 18 l 35 67 q 58 43 42 54 q 94 24 75 32 q 135 13 114 17 q 172 8 156 8 q 217 15 190 8 q 268 38 243 22 q 310 79 293 53 q 328 146 328 106 q 309 203 328 182 q 263 238 290 224 q 203 263 236 251 q 144 288 171 274 q 98 324 117 301 q 79 383 79 346 q 93 447 79 419 q 129 491 107 474 q 179 517 151 508 q 235 526 207 526 q 303 513 265 526 q 365 467 340 500 m 271 917 q 339 791 306 854 q 407 665 372 728 l 385 665 q 326 772 354 718 q 267 879 297 826 q 181 772 224 826 q 96 665 139 718 l 74 665 q 172 791 122 728 q 271 917 222 854 z "},"œ":{"ha":908,"x_min":46,"x_max":869,"o":"m 453 44 q 373 6 415 19 q 285 -8 331 -8 q 188 10 232 -8 q 113 62 144 29 q 64 138 82 94 q 46 233 46 182 q 71 349 46 294 q 138 444 96 403 q 235 509 181 485 q 351 533 290 533 q 435 519 396 533 q 504 482 474 506 l 486 468 q 424 501 458 489 q 349 513 389 513 q 241 490 292 513 q 151 431 190 468 q 88 342 111 393 q 65 236 65 292 q 82 148 65 189 q 128 76 99 107 q 197 28 157 46 q 286 11 238 11 q 365 23 326 11 q 435 56 403 35 l 453 44 m 785 64 q 694 11 744 31 q 590 -8 644 -8 q 494 10 538 -8 q 419 62 450 29 q 369 138 388 94 q 351 233 351 182 q 376 349 351 294 q 444 444 401 403 q 541 509 486 485 q 657 533 596 533 q 796 484 743 533 q 869 360 849 435 q 752 315 815 339 q 624 265 689 290 q 497 216 560 240 q 378 169 433 192 q 454 55 397 99 q 592 11 511 11 q 688 28 642 11 q 771 78 735 46 l 785 64 m 844 369 q 776 472 822 432 q 654 513 729 513 q 547 490 597 513 q 456 430 496 468 q 394 340 417 392 q 371 231 371 289 q 371 209 371 221 q 374 188 371 197 q 488 232 428 208 q 608 278 547 256 q 730 325 669 301 q 844 369 790 349 z "},"Œ":{"ha":1311,"x_min":94,"x_max":1285,"o":"m 658 4 q 533 -11 594 -11 q 358 24 439 -11 q 219 119 278 58 q 128 260 161 179 q 94 435 94 342 q 141 647 94 547 q 265 821 188 746 q 443 940 342 896 q 656 983 544 983 q 779 967 721 983 l 756 953 q 653 964 704 964 q 450 922 547 964 q 278 807 353 879 q 158 638 203 735 q 114 435 114 542 q 145 268 114 346 q 233 133 176 190 q 365 42 289 75 q 532 8 442 8 q 640 21 586 8 l 658 4 m 631 0 l 750 972 l 1285 972 l 1282 953 l 767 953 l 711 500 l 1172 500 l 1169 481 l 708 481 l 653 19 l 1188 19 l 1185 0 l 631 0 z "},"Ÿ":{"ha":826,"x_min":113,"x_max":861,"o":"m 422 364 l 378 0 l 358 0 l 403 364 q 258 668 329 517 q 113 972 186 819 l 136 972 q 270 694 203 832 q 403 414 338 556 l 415 378 q 426 396 422 388 q 436 414 431 404 q 637 693 536 554 q 838 972 738 832 l 861 972 l 422 364 m 589 1094 q 599 1116 589 1107 q 621 1125 608 1125 q 638 1118 632 1125 q 644 1100 644 1111 q 635 1078 644 1088 q 614 1069 625 1069 q 596 1076 603 1069 q 589 1094 589 1083 m 360 1094 q 369 1116 360 1107 q 392 1125 379 1125 q 409 1118 403 1125 q 415 1100 415 1111 q 406 1078 415 1088 q 385 1069 396 1069 q 367 1076 374 1069 q 360 1094 360 1083 z "},"Ẽ":{"ha":842,"x_min":119,"x_max":815,"o":"m 119 0 l 239 972 l 815 972 l 813 953 l 256 953 l 200 500 l 703 500 l 700 481 l 197 481 l 142 19 l 718 19 l 715 0 l 119 0 m 564 1097 q 529 1131 544 1122 q 494 1139 514 1139 q 468 1135 483 1139 q 438 1124 453 1132 q 411 1101 424 1115 q 393 1063 399 1086 q 384 1064 389 1064 q 375 1065 379 1064 q 423 1138 385 1117 q 500 1158 461 1158 q 549 1144 528 1158 q 590 1106 571 1129 q 625 1072 610 1081 q 660 1064 640 1064 q 686 1067 671 1064 q 716 1079 701 1071 q 743 1102 731 1088 q 761 1140 756 1117 q 770 1139 765 1139 q 779 1138 775 1139 q 731 1065 769 1086 q 653 1044 692 1044 q 604 1059 625 1044 q 564 1097 583 1074 z "},"Ŗ":{"ha":786,"x_min":119,"x_max":694,"o":"m 471 468 l 694 0 l 669 0 l 449 468 l 471 468 m 196 465 l 356 465 q 503 496 444 465 q 598 570 563 526 q 648 662 633 614 q 663 746 663 710 q 644 830 663 792 q 594 895 626 868 q 516 938 561 922 q 417 953 471 953 l 256 953 l 196 465 m 119 0 l 239 972 l 433 972 q 515 960 471 972 q 595 922 558 949 q 657 852 632 896 q 682 746 682 808 q 662 637 682 690 q 601 541 642 583 q 497 472 560 499 q 349 446 433 446 l 193 446 l 139 0 l 119 0 m 349 -29 q 272 -172 310 -101 q 194 -315 235 -243 l 175 -315 q 246 -172 211 -243 q 317 -29 281 -101 l 349 -29 z "},"Ĩ":{"ha":350,"x_min":63,"x_max":465,"o":"m 239 972 l 258 972 l 139 0 l 119 0 l 239 972 m 251 1090 q 217 1124 232 1115 q 182 1132 201 1132 q 156 1128 171 1132 q 126 1117 140 1125 q 99 1094 111 1108 q 81 1056 86 1079 q 72 1057 76 1057 q 63 1058 67 1057 q 110 1131 72 1110 q 188 1151 149 1151 q 236 1137 215 1151 q 276 1099 257 1122 q 312 1065 296 1074 q 347 1057 328 1057 q 374 1060 358 1057 q 403 1072 389 1064 q 431 1095 418 1081 q 449 1133 443 1110 q 458 1132 453 1132 q 465 1131 463 1132 q 417 1058 456 1079 q 340 1038 379 1038 q 292 1052 313 1038 q 251 1090 271 1067 z "},"Ļ":{"ha":758,"x_min":119,"x_max":704,"o":"m 119 0 l 239 972 l 258 972 l 142 19 l 704 19 l 701 0 l 119 0 m 460 -29 q 383 -172 421 -101 q 306 -315 346 -243 l 286 -315 q 357 -172 322 -243 q 428 -29 392 -101 l 460 -29 z "},"Ē":{"ha":842,"x_min":119,"x_max":815,"o":"m 119 0 l 239 972 l 815 972 l 813 953 l 256 953 l 200 500 l 703 500 l 700 481 l 197 481 l 142 19 l 718 19 l 715 0 l 119 0 m 372 1042 l 375 1061 l 694 1061 l 692 1042 l 372 1042 z "},"Ģ":{"ha":942,"x_min":94,"x_max":901,"o":"m 839 417 l 794 58 q 670 8 736 26 q 533 -11 604 -11 q 349 23 431 -11 q 210 117 267 57 q 124 257 154 176 q 94 429 94 338 q 141 644 94 543 q 265 820 188 744 q 443 940 342 896 q 656 983 544 983 q 788 965 726 983 q 901 914 849 947 l 889 897 q 653 964 786 964 q 450 922 547 964 q 278 806 353 879 q 158 636 203 733 q 114 429 114 539 q 142 265 114 342 q 224 131 171 188 q 356 41 278 74 q 532 8 433 8 q 658 24 597 8 q 776 71 719 40 l 817 397 l 578 397 l 581 417 l 839 417 m 519 -29 q 442 -172 479 -101 q 364 -315 404 -243 l 344 -315 q 416 -172 381 -243 q 488 -29 451 -101 l 519 -29 z "},"Ŧ":{"ha":690,"x_min":125,"x_max":703,"o":"m 703 972 l 700 953 l 422 953 l 306 0 l 286 0 l 403 953 l 125 953 l 128 972 l 703 972 m 219 683 l 222 703 l 542 703 l 539 683 l 219 683 z "},"ŗ":{"ha":361,"x_min":-11,"x_max":369,"o":"m 367 511 q 278 494 321 510 q 201 451 235 478 q 144 386 167 424 q 115 306 121 349 l 78 0 l 58 0 l 122 521 l 136 521 l 121 385 q 224 490 158 451 q 369 531 290 528 l 367 511 m 163 -29 q 85 -172 124 -101 q 8 -315 47 -243 l -11 -315 q 60 -172 25 -243 q 131 -29 94 -101 l 163 -29 z "},"ē":{"ha":603,"x_min":46,"x_max":564,"o":"m 479 64 q 389 11 439 31 q 285 -8 339 -8 q 188 10 232 -8 q 113 62 144 29 q 64 138 82 94 q 46 233 46 182 q 71 349 46 294 q 138 444 96 403 q 235 509 181 485 q 351 533 290 533 q 490 484 438 533 q 564 360 543 435 q 447 315 510 339 q 319 265 383 290 q 191 216 254 240 q 72 169 128 192 q 149 55 92 99 q 286 11 206 11 q 383 28 336 11 q 465 78 429 46 l 479 64 m 539 369 q 470 472 517 432 q 349 513 424 513 q 241 490 292 513 q 151 430 190 468 q 88 340 111 392 q 65 231 65 289 q 65 209 65 221 q 68 188 65 197 q 182 232 122 208 q 303 278 242 256 q 424 325 364 301 q 539 369 485 349 m 201 683 l 204 703 l 524 703 l 521 683 l 201 683 z "},"ģ":{"ha":706,"x_min":35,"x_max":619,"o":"m 46 233 q 71 349 46 294 q 138 444 96 403 q 234 508 179 485 q 350 532 289 532 q 498 484 436 532 q 581 361 560 436 q 592 441 586 401 q 606 521 599 481 l 619 521 l 554 -11 q 531 -99 549 -56 q 479 -175 514 -142 q 390 -229 444 -208 q 256 -250 336 -250 q 205 -247 231 -250 q 152 -231 179 -243 q 95 -199 125 -219 q 35 -143 65 -178 l 50 -129 q 109 -183 81 -162 q 163 -213 138 -203 q 213 -227 189 -224 q 257 -231 236 -231 q 381 -212 331 -231 q 463 -162 431 -194 q 511 -87 494 -131 q 536 8 528 -43 q 538 19 538 15 q 539 28 538 22 q 542 45 540 35 q 546 75 543 56 q 548 90 546 76 q 552 118 550 103 q 556 147 554 133 q 557 163 557 160 q 509 94 538 125 q 444 40 481 63 q 367 4 408 17 q 283 -8 326 -8 q 188 10 232 -8 q 113 62 144 29 q 64 138 82 94 q 46 233 46 182 m 65 236 q 82 148 65 189 q 128 76 99 107 q 197 28 157 46 q 286 11 238 11 q 393 33 342 11 q 484 92 444 54 q 547 179 524 129 q 569 286 569 229 q 553 375 569 333 q 506 447 536 417 q 435 495 476 478 q 347 513 394 513 q 240 490 290 513 q 150 431 189 468 q 88 342 111 393 q 65 236 65 292 m 378 704 q 456 847 418 776 q 533 990 493 918 l 553 990 q 481 847 517 918 q 410 704 446 776 l 378 704 z "},"ŧ":{"ha":363,"x_min":38,"x_max":388,"o":"m 193 749 l 213 749 l 183 510 l 360 510 l 357 490 l 181 490 l 121 0 l 101 0 l 161 490 l 38 490 l 40 510 l 164 510 l 193 749 m 65 683 l 68 703 l 388 703 l 385 683 l 65 683 z "},"Ā":{"ha":886,"x_min":-6,"x_max":800,"o":"m 238 442 l 667 442 l 669 461 l 240 461 l 238 442 m 800 0 q 661 508 724 256 q 522 1017 599 761 q 258 508 383 761 q -6 0 133 256 l 15 0 q 258 469 143 235 q 500 938 372 703 q 508 955 504 946 q 517 972 513 964 q 521 955 519 964 q 525 938 522 946 q 652 469 594 703 q 779 0 710 235 l 800 0 m 365 1044 l 368 1064 l 688 1064 l 685 1044 l 365 1044 z "},"Į":{"ha":350,"x_min":-17,"x_max":258,"o":"m 239 972 l 258 972 l 139 0 l 119 0 l 239 972 m 142 0 l 122 0 l 121 -8 q 94 -59 114 -44 q 54 -85 74 -74 q 1 -137 18 -108 q -17 -197 -17 -167 q 14 -283 -17 -257 q 85 -310 44 -310 q 155 -290 121 -310 q 208 -229 189 -269 q 198 -226 203 -228 q 188 -224 193 -225 q 149 -272 176 -253 q 88 -290 122 -290 q 25 -265 49 -290 q 1 -201 1 -240 q 22 -136 1 -158 q 67 -98 42 -114 q 113 -67 92 -82 q 139 -22 135 -51 l 142 0 z "},"ĩ":{"ha":228,"x_min":-50,"x_max":353,"o":"m 78 0 l 58 0 l 122 521 l 142 521 l 78 0 m 139 674 q 104 707 119 699 q 69 715 89 715 q 43 712 58 715 q 13 700 28 708 q -14 677 -1 692 q -32 639 -26 663 q -41 640 -36 640 q -50 642 -46 640 q -2 714 -40 693 q 75 735 36 735 q 124 720 103 735 q 164 682 144 706 q 199 649 183 657 q 235 640 215 640 q 261 644 246 640 q 291 656 276 647 q 318 678 306 664 q 336 717 331 693 q 345 715 340 715 q 353 714 350 715 q 305 642 343 663 q 228 621 267 621 q 179 635 200 621 q 139 674 158 650 z "},"ļ":{"ha":239,"x_min":-61,"x_max":211,"o":"m 83 0 l 64 0 l 192 1042 l 211 1042 l 83 0 m 113 -29 q 35 -172 74 -101 q -42 -315 -3 -243 l -61 -315 q 10 -172 -25 -243 q 81 -29 44 -101 l 113 -29 z "},"Ė":{"ha":842,"x_min":119,"x_max":815,"o":"m 119 0 l 239 972 l 815 972 l 813 953 l 256 953 l 200 500 l 703 500 l 700 481 l 197 481 l 142 19 l 718 19 l 715 0 l 119 0 m 538 1067 q 547 1088 538 1079 q 569 1097 557 1097 q 588 1090 581 1097 q 594 1072 594 1083 q 585 1051 594 1060 q 563 1042 575 1042 q 544 1049 551 1042 q 538 1067 538 1056 z "},"Ī":{"ha":350,"x_min":99,"x_max":421,"o":"m 239 972 l 258 972 l 139 0 l 119 0 l 239 972 m 99 1044 l 101 1064 l 421 1064 l 418 1044 l 99 1044 z "},"Ņ":{"ha":1122,"x_min":119,"x_max":1032,"o":"m 1032 972 l 907 -44 q 583 447 739 204 q 275 931 426 689 q 264 949 269 940 q 253 967 258 957 l 253 922 l 139 0 l 119 0 l 244 1017 q 408 767 329 890 q 563 523 486 644 q 717 281 640 401 q 875 39 794 161 q 886 21 881 29 q 897 3 892 13 q 899 25 899 14 q 899 47 899 36 l 1013 972 l 1032 972 m 500 -29 q 424 -172 461 -101 q 346 -315 386 -243 l 326 -315 q 397 -172 363 -243 q 468 -29 432 -101 l 500 -29 z "},"Ķ":{"ha":814,"x_min":119,"x_max":819,"o":"m 735 0 q 544 288 639 144 q 353 575 449 431 q 272 507 313 540 q 192 439 232 474 q 165 219 178 329 q 139 0 153 110 l 119 0 l 239 972 l 258 972 l 200 500 q 197 480 199 489 q 194 460 196 471 q 208 474 201 467 q 221 488 214 481 q 505 730 364 610 q 789 972 646 850 l 819 972 l 369 589 q 566 294 469 442 q 763 0 663 147 l 735 0 m 436 -29 q 360 -172 397 -101 q 282 -315 322 -243 l 263 -315 q 333 -172 299 -243 q 404 -29 368 -101 l 436 -29 z "},"ņ":{"ha":607,"x_min":58,"x_max":517,"o":"m 122 521 l 136 521 l 121 385 q 223 490 157 450 q 368 531 289 531 q 479 488 442 531 q 510 375 517 444 l 464 0 l 444 0 l 492 385 q 466 472 496 435 q 375 511 436 508 q 283 496 328 511 q 203 453 239 481 q 144 388 168 426 q 115 306 121 350 l 78 0 l 58 0 l 122 521 m 288 -29 q 211 -172 249 -101 q 133 -315 174 -243 l 114 -315 q 185 -172 150 -243 q 256 -29 219 -101 l 288 -29 z "},"ķ":{"ha":504,"x_min":58,"x_max":464,"o":"m 453 533 q 458 526 456 531 q 464 519 461 522 q 351 423 404 469 q 238 326 297 376 q 337 163 286 244 q 436 0 388 82 l 411 0 q 315 156 363 79 q 219 313 267 233 q 162 264 190 289 q 104 215 133 239 l 78 0 l 58 0 l 186 1042 l 206 1042 l 108 244 q 280 389 196 319 q 453 533 364 458 m 288 -29 q 211 -172 249 -101 q 133 -315 174 -243 l 114 -315 q 185 -172 150 -243 q 256 -29 219 -101 l 288 -29 z "},"Ō":{"ha":1163,"x_min":85,"x_max":1096,"o":"m 97 485 q 160 678 110 588 q 285 837 210 769 q 456 944 361 904 q 654 983 551 983 q 831 949 750 983 q 970 853 911 914 q 1063 710 1029 792 q 1096 535 1096 628 q 1049 324 1096 424 q 925 151 1003 225 q 745 33 847 76 q 532 -11 643 -11 q 344 28 429 -11 q 199 134 258 67 q 113 292 140 201 q 97 485 85 382 m 117 483 q 131 299 104 385 q 215 148 158 213 q 352 46 271 83 q 531 8 433 8 q 735 50 636 8 q 909 163 833 92 q 1030 330 985 235 q 1075 532 1075 425 q 1043 700 1075 621 q 954 838 1011 779 q 820 930 897 896 q 651 964 743 964 q 462 926 553 964 q 298 822 371 888 q 177 669 225 757 q 117 483 129 582 m 506 1044 l 508 1064 l 828 1064 l 825 1044 l 506 1044 z "},"Ū":{"ha":928,"x_min":135,"x_max":850,"o":"m 417 -11 q 295 10 350 -11 q 203 72 240 31 q 151 174 167 113 q 144 314 135 235 l 225 972 l 244 972 l 164 318 q 169 185 154 243 q 218 88 183 128 q 304 28 253 49 q 419 8 356 8 q 538 28 482 8 q 638 88 594 49 q 711 185 682 128 q 750 318 740 243 l 831 972 l 850 972 l 769 314 q 728 174 760 235 q 649 72 696 113 q 543 10 603 31 q 417 -11 483 -11 m 407 1044 l 410 1064 l 729 1064 l 726 1044 l 407 1044 z "},"ō":{"ha":664,"x_min":40,"x_max":592,"o":"m 47 261 q 81 367 54 317 q 149 453 108 417 q 242 512 190 490 q 350 533 293 533 q 446 515 401 533 q 523 463 490 496 q 574 385 556 429 q 592 289 592 340 q 566 174 592 228 q 498 79 540 119 q 399 15 456 39 q 283 -8 343 -8 q 181 13 226 -8 q 103 70 135 33 q 56 156 71 107 q 47 261 40 204 m 67 261 q 74 163 60 208 q 118 84 89 118 q 190 31 147 50 q 286 11 233 11 q 393 33 342 11 q 484 92 444 54 q 547 179 524 129 q 569 286 569 229 q 553 375 569 333 q 506 447 536 417 q 435 495 476 478 q 347 513 394 513 q 247 493 294 513 q 161 439 199 474 q 98 358 124 404 q 67 261 72 313 m 210 683 l 213 703 l 532 703 l 529 683 l 210 683 z "},"ū":{"ha":607,"x_min":63,"x_max":521,"o":"m 457 0 l 443 0 l 458 136 q 356 30 422 69 q 211 -10 289 -10 q 100 33 138 -10 q 69 146 63 76 l 115 521 l 135 521 l 88 136 q 113 49 83 86 q 204 10 143 13 q 296 25 251 10 q 376 67 340 40 q 435 133 411 94 q 464 215 458 171 l 501 521 l 521 521 l 457 0 m 179 683 l 181 703 l 500 703 l 499 683 l 179 683 z "},"ā":{"ha":706,"x_min":46,"x_max":619,"o":"m 65 236 q 82 148 65 189 q 128 76 99 107 q 197 28 157 46 q 286 11 238 11 q 393 33 342 11 q 484 92 444 54 q 547 179 524 129 q 569 286 569 229 q 553 375 569 333 q 506 447 536 417 q 435 495 476 478 q 347 513 394 513 q 240 490 290 513 q 150 431 189 468 q 88 342 111 393 q 65 236 65 292 m 46 233 q 71 349 46 294 q 138 444 96 403 q 234 508 179 485 q 350 532 289 532 q 498 484 436 532 q 581 361 560 436 q 592 441 586 401 q 606 521 599 481 l 619 521 l 556 0 l 536 0 l 546 75 q 551 119 549 97 q 557 163 554 140 q 509 94 538 125 q 444 40 481 63 q 367 4 408 17 q 283 -8 326 -8 q 188 10 232 -8 q 113 62 144 29 q 64 138 82 94 q 46 233 46 182 m 243 683 l 246 703 l 565 703 l 563 683 l 243 683 z "},"Ų":{"ha":928,"x_min":135,"x_max":850,"o":"m 417 -11 q 295 10 350 -11 q 203 72 240 31 q 151 174 167 113 q 144 314 135 235 l 225 972 l 244 972 l 164 318 q 169 185 154 243 q 218 88 183 128 q 304 28 253 49 q 419 8 356 8 q 538 28 482 8 q 638 88 594 49 q 711 185 682 128 q 750 318 740 243 l 831 972 l 850 972 l 769 314 q 728 174 760 235 q 649 72 696 113 q 543 10 603 31 q 417 -11 483 -11 m 469 0 l 450 0 l 449 -8 q 422 -59 442 -44 q 383 -85 403 -74 q 329 -137 347 -108 q 311 -197 311 -167 q 342 -283 311 -257 q 414 -310 372 -310 q 483 -290 450 -310 q 536 -229 517 -269 q 526 -226 531 -228 q 515 -224 521 -225 q 477 -272 504 -253 q 415 -290 450 -290 q 353 -265 376 -290 q 331 -201 331 -240 q 351 -136 331 -158 q 395 -98 371 -114 q 441 -67 419 -82 q 467 -22 463 -51 l 469 0 z "},"ī":{"ha":228,"x_min":-8,"x_max":314,"o":"m 78 0 l 58 0 l 122 521 l 142 521 l 78 0 m -8 683 l -6 703 l 314 703 l 311 683 l -8 683 z "},"ų":{"ha":607,"x_min":63,"x_max":524,"o":"m 457 0 l 443 0 l 458 136 q 356 30 422 69 q 211 -10 289 -10 q 100 33 138 -10 q 69 146 63 76 l 115 521 l 135 521 l 88 136 q 113 49 83 86 q 204 10 143 13 q 296 25 251 10 q 376 67 340 40 q 435 133 411 94 q 464 215 458 171 l 501 521 l 521 521 l 457 0 m 457 0 l 438 0 l 436 -8 q 410 -59 429 -44 q 371 -85 390 -74 q 317 -137 335 -108 q 299 -197 299 -167 q 329 -283 299 -257 q 401 -310 360 -310 q 471 -290 438 -310 q 524 -229 504 -269 q 513 -226 518 -228 q 503 -224 508 -225 q 465 -272 492 -253 q 404 -290 439 -290 q 341 -265 364 -290 q 318 -201 318 -240 q 338 -136 318 -158 q 383 -98 358 -114 q 428 -67 407 -82 q 454 -22 450 -51 l 457 0 z "},"Ũ":{"ha":928,"x_min":135,"x_max":850,"o":"m 417 -11 q 295 10 350 -11 q 203 72 240 31 q 151 174 167 113 q 144 314 135 235 l 225 972 l 244 972 l 164 318 q 169 185 154 243 q 218 88 183 128 q 304 28 253 49 q 419 8 356 8 q 538 28 482 8 q 638 88 594 49 q 711 185 682 128 q 750 318 740 243 l 831 972 l 850 972 l 769 314 q 728 174 760 235 q 649 72 696 113 q 543 10 603 31 q 417 -11 483 -11 m 563 1090 q 527 1124 543 1115 q 492 1132 511 1132 q 465 1128 481 1132 q 435 1117 450 1125 q 408 1094 421 1108 q 390 1056 396 1079 q 381 1057 386 1057 q 374 1058 376 1057 q 422 1131 383 1110 q 499 1151 460 1151 q 547 1137 526 1151 q 588 1099 568 1122 q 622 1065 607 1074 q 657 1057 638 1057 q 683 1060 668 1057 q 713 1072 699 1064 q 740 1095 728 1081 q 758 1133 753 1110 q 767 1132 763 1132 q 776 1131 772 1132 q 728 1058 767 1079 q 651 1038 690 1038 q 603 1052 624 1038 q 563 1090 582 1067 z "},"ũ":{"ha":607,"x_min":63,"x_max":549,"o":"m 457 0 l 443 0 l 458 136 q 356 30 422 69 q 211 -10 289 -10 q 100 33 138 -10 q 69 146 63 76 l 115 521 l 135 521 l 88 136 q 113 49 83 86 q 204 10 143 13 q 296 25 251 10 q 376 67 340 40 q 435 133 411 94 q 464 215 458 171 l 501 521 l 521 521 l 457 0 m 335 674 q 299 707 315 699 q 264 715 283 715 q 238 712 253 715 q 208 700 222 708 q 181 677 193 692 q 164 639 169 663 q 155 640 160 640 q 146 642 150 640 q 194 714 156 693 q 271 735 232 735 q 319 720 299 735 q 360 682 340 706 q 395 649 379 657 q 431 640 411 640 q 457 644 442 640 q 487 656 472 647 q 514 678 501 664 q 532 717 526 693 q 540 715 535 715 q 549 714 544 715 q 501 642 539 663 q 424 621 463 621 q 375 635 396 621 q 335 674 354 650 z "},"ė":{"ha":603,"x_min":46,"x_max":564,"o":"m 479 64 q 389 11 439 31 q 285 -8 339 -8 q 188 10 232 -8 q 113 62 144 29 q 64 138 82 94 q 46 233 46 182 q 71 349 46 294 q 138 444 96 403 q 235 509 181 485 q 351 533 290 533 q 490 484 438 533 q 564 360 543 435 q 447 315 510 339 q 319 265 383 290 q 191 216 254 240 q 72 169 128 192 q 149 55 92 99 q 286 11 206 11 q 383 28 336 11 q 465 78 429 46 l 479 64 m 539 369 q 470 472 517 432 q 349 513 424 513 q 241 490 292 513 q 151 430 190 468 q 88 340 111 392 q 65 231 65 289 q 65 209 65 221 q 68 188 65 197 q 182 232 122 208 q 303 278 242 256 q 424 325 364 301 q 539 369 485 349 m 335 692 q 344 713 335 704 q 365 722 353 722 q 383 715 376 722 q 390 697 390 708 q 381 676 390 685 q 358 667 371 667 q 341 674 347 667 q 335 692 335 681 z "},"į":{"ha":228,"x_min":-81,"x_max":181,"o":"m 125 692 q 135 713 125 704 q 157 722 144 722 q 174 715 168 722 q 181 697 181 708 q 172 676 181 685 q 150 667 163 667 q 132 674 139 667 q 125 692 125 681 m 78 0 l 58 0 l 122 521 l 142 521 l 78 0 m 78 0 l 58 0 l 57 -8 q 30 -59 50 -44 q -10 -85 10 -74 q -63 -137 -46 -108 q -81 -197 -81 -167 q -50 -283 -81 -257 q 21 -310 -19 -310 q 91 -290 57 -310 q 144 -229 125 -269 q 134 -226 139 -228 q 124 -224 129 -225 q 85 -272 113 -253 q 24 -290 58 -290 q -40 -265 -17 -290 q -62 -201 -62 -240 q -42 -136 -62 -158 q 3 -98 -22 -114 q 49 -67 28 -82 q 75 -22 71 -51 l 78 0 z "},"…":{"ha":711,"x_min":61,"x_max":571,"o":"m 61 25 q 71 47 61 38 q 93 56 81 56 q 111 49 104 56 q 118 31 118 42 q 108 9 118 18 q 86 0 99 0 q 68 7 75 0 q 61 25 61 14 m 288 25 q 297 47 288 38 q 319 56 307 56 q 338 49 331 56 q 344 31 344 42 q 335 9 344 18 q 313 0 325 0 q 294 7 301 0 q 288 25 288 14 m 514 25 q 524 47 514 38 q 546 56 533 56 q 564 49 557 56 q 571 31 571 42 q 561 9 571 18 q 539 0 551 0 q 521 7 528 0 q 514 25 514 14 z "},"‰":{"ha":1263,"x_min":93,"x_max":1179,"o":"m 488 143 q 521 59 488 93 q 606 25 554 25 q 662 36 635 25 q 710 67 689 47 q 743 113 731 88 q 756 168 756 139 q 722 253 756 218 q 638 288 689 288 q 581 276 608 288 q 533 244 554 264 q 500 199 513 225 q 488 143 488 172 m 603 6 q 506 44 544 6 q 468 142 468 83 q 483 206 468 175 q 521 258 497 236 q 576 294 544 281 q 640 307 607 307 q 738 268 699 307 q 776 171 776 229 q 762 107 776 138 q 723 54 747 76 q 667 19 699 32 q 603 6 636 6 m 113 526 q 146 442 113 476 q 231 408 179 408 q 287 419 260 408 q 335 451 314 431 q 368 497 356 471 q 381 551 381 522 q 347 636 381 601 q 263 671 314 671 q 206 659 233 671 q 158 628 179 647 q 125 582 138 608 q 113 526 113 556 m 228 389 q 131 428 169 389 q 93 525 93 467 q 108 589 93 558 q 146 642 122 619 q 201 677 169 664 q 265 690 232 690 q 363 651 324 690 q 401 554 401 613 q 387 490 401 521 q 348 438 372 460 q 292 402 324 415 q 228 389 261 389 m 167 0 q 417 347 293 175 q 665 694 540 519 l 688 694 q 439 347 563 519 q 189 0 315 175 l 167 0 m 890 143 q 924 59 890 93 q 1008 25 957 25 q 1065 36 1038 25 q 1113 67 1092 47 q 1146 113 1133 88 q 1158 168 1158 139 q 1125 253 1158 218 q 1040 288 1092 288 q 984 276 1011 288 q 936 244 957 264 q 903 199 915 225 q 890 143 890 172 m 1006 6 q 909 44 947 6 q 871 142 871 83 q 885 206 871 175 q 924 258 900 236 q 978 294 947 281 q 1043 307 1010 307 q 1140 268 1101 307 q 1179 171 1179 229 q 1165 107 1179 138 q 1126 54 1150 76 q 1070 19 1101 32 q 1006 6 1039 6 z "},"ˆ":{"ha":625,"x_min":238,"x_max":571,"o":"m 435 917 q 503 791 469 854 q 571 665 536 728 l 549 665 q 490 772 518 718 q 431 879 461 826 q 345 772 388 826 q 260 665 303 718 l 238 665 q 336 791 286 728 q 435 917 386 854 z "},"˜":{"ha":824,"x_min":317,"x_max":719,"o":"m 506 674 q 471 707 486 699 q 436 715 456 715 q 410 712 425 715 q 380 700 394 708 q 353 677 365 692 q 335 639 340 663 q 326 640 331 640 q 317 642 321 640 q 365 714 326 693 q 442 735 403 735 q 490 720 469 735 q 531 682 511 706 q 566 649 550 657 q 601 640 582 640 q 628 644 613 640 q 658 656 643 647 q 685 678 672 664 q 703 717 697 693 q 712 715 707 715 q 719 714 717 715 q 672 642 710 663 q 594 621 633 621 q 546 635 567 621 q 506 674 525 650 z "},"ﬁ":{"ha":621,"x_min":54,"x_max":535,"o":"m 471 0 l 451 0 l 515 521 l 535 521 l 471 0 m 54 501 l 57 521 l 146 521 l 171 719 q 208 856 181 796 q 276 956 236 915 q 365 1017 315 996 q 468 1042 415 1039 l 465 1022 q 372 1001 418 1022 q 289 942 326 981 q 226 848 251 903 q 192 725 200 793 l 167 521 l 528 521 l 525 501 l 164 501 l 103 0 l 83 0 l 144 501 l 54 501 z "},"ﬂ":{"ha":626,"x_min":54,"x_max":599,"o":"m 471 0 l 451 0 l 579 1042 l 599 1042 l 471 0 m 54 497 l 57 517 l 147 517 l 172 719 q 210 856 182 796 q 277 956 238 915 q 366 1017 317 996 q 468 1042 415 1039 l 465 1022 q 372 1001 418 1022 q 289 942 326 981 q 226 848 251 903 q 192 725 200 793 l 167 517 l 347 517 l 344 497 l 164 497 l 103 0 l 83 0 l 144 497 l 54 497 m 468 1042 l 589 1042 l 586 1022 l 465 1022 l 468 1042 z "},"˚":{"ha":588,"x_min":313,"x_max":489,"o":"m 332 646 q 350 602 332 621 q 393 583 368 583 q 446 606 422 583 q 469 657 469 628 q 452 701 469 682 q 410 719 435 719 q 356 697 381 719 q 332 646 332 675 m 313 642 q 342 710 313 682 q 411 739 371 739 q 467 717 446 739 q 489 661 489 694 q 460 592 489 621 q 390 564 431 564 q 334 586 356 564 q 313 642 313 608 z "},"⁄":{"ha":439,"x_min":-29,"x_max":506,"o":"m -29 0 q 228 524 101 264 q 486 1049 356 785 l 506 1049 q 248 524 375 785 q -10 0 121 264 l -29 0 z "},"ƒ":{"ha":394,"x_min":-168,"x_max":483,"o":"m 179 497 l 128 82 q 90 -55 118 4 q 23 -154 63 -114 q -66 -217 -17 -194 q -168 -240 -115 -239 l -165 -221 q -72 -200 -118 -221 q 11 -140 -26 -179 q 74 -47 49 -101 q 108 76 100 8 l 160 497 l 69 497 l 72 517 l 163 517 l 188 719 q 225 856 197 796 q 292 956 253 915 q 381 1017 332 996 q 483 1042 431 1039 l 482 1022 q 389 1001 435 1022 q 306 942 343 981 q 242 848 268 903 q 207 725 215 793 l 182 517 l 363 517 l 360 497 l 179 497 z "},"†":{"ha":456,"x_min":126,"x_max":385,"o":"m 185 101 l 269 793 l 289 793 l 204 101 l 185 101 m 126 589 l 129 608 l 385 608 l 382 589 l 126 589 z "},"‡":{"ha":575,"x_min":81,"x_max":501,"o":"m 501 408 l 499 389 l 81 389 l 83 408 l 501 408 m 244 101 l 329 793 l 349 793 l 264 101 l 244 101 m 186 589 l 188 608 l 443 608 l 442 589 l 186 589 z "},"™":{"ha":803,"x_min":140,"x_max":757,"o":"m 353 1051 l 351 1043 l 249 1043 l 206 692 l 200 692 l 243 1043 l 140 1043 l 142 1051 l 353 1051 m 424 1067 q 494 940 463 994 q 561 824 525 885 q 596 867 575 840 q 643 926 617 894 q 699 994 669 958 q 757 1067 728 1031 l 711 692 l 704 692 l 744 1022 q 747 1034 746 1029 q 747 1044 747 1039 q 650 922 697 982 q 558 808 603 863 q 525 865 544 831 q 487 935 506 900 q 452 999 468 969 q 429 1044 436 1029 q 428 1034 429 1039 q 426 1022 428 1029 l 386 692 l 378 692 l 424 1067 z "},"−":{"ha":726,"x_min":99,"x_max":601,"o":"m 599 258 l 99 258 l 101 278 l 601 278 l 599 258 z "},"∫":{"ha":401,"x_min":-32,"x_max":443,"o":"m 251 872 q 274 969 260 935 q 306 1017 288 1003 q 347 1034 325 1032 q 392 1036 369 1036 l 443 1036 l 440 1017 l 361 1017 q 299 981 318 1017 q 269 861 281 944 l 165 8 q 142 -117 156 -74 q 110 -181 128 -161 q 69 -203 92 -200 q 19 -206 47 -206 l -32 -206 l -29 -186 l 50 -186 q 111 -150 93 -186 q 140 -31 129 -114 l 251 872 z "},"∏":{"ha":582,"x_min":114,"x_max":496,"o":"m 133 -69 l 114 -69 l 250 1042 l 496 1042 l 360 -69 l 340 -69 l 475 1022 l 268 1022 l 133 -69 z "},"π":{"ha":472,"x_min":54,"x_max":426,"o":"m 144 425 l 92 0 l 72 0 l 125 425 l 54 425 l 57 444 l 426 444 l 424 425 l 371 425 l 318 0 l 299 0 l 351 425 l 144 425 z "},"€":{"ha":768,"x_min":69,"x_max":731,"o":"m 89 546 l 543 546 l 540 526 l 86 526 l 89 546 m 72 399 l 525 399 l 522 379 l 69 379 l 72 399 m 647 38 q 475 -10 564 -10 q 336 27 399 -10 q 231 126 274 64 q 170 273 189 189 q 164 454 151 357 q 201 601 172 521 q 284 750 231 681 q 415 867 338 819 q 597 914 493 914 q 688 900 653 914 q 731 881 724 886 l 721 867 q 594 894 663 894 q 451 865 519 894 q 328 777 383 835 q 235 638 274 719 q 185 456 197 557 q 191 272 172 354 q 251 132 210 190 q 353 42 293 74 q 479 10 413 10 q 632 49 557 10 l 647 38 z "},"≤":{"ha":817,"x_min":121,"x_max":782,"o":"m 699 328 l 696 306 q 414 481 554 393 q 131 657 274 569 q 456 833 294 744 q 782 1008 618 921 l 779 986 q 474 822 626 903 q 167 657 321 740 q 433 492 301 574 q 699 328 565 411 m 621 133 l 121 133 l 124 153 l 624 153 l 621 133 z "},"≥":{"ha":801,"x_min":96,"x_max":769,"o":"m 121 328 q 428 492 275 411 q 733 657 581 574 q 468 822 600 740 q 201 986 336 903 l 204 1008 q 488 833 347 921 q 769 657 628 744 q 444 481 606 569 q 118 306 282 393 l 121 328 m 99 153 l 599 153 l 596 133 l 96 133 l 99 153 z "},"≠":{"ha":889,"x_min":58,"x_max":804,"o":"m 58 11 q 399 366 226 188 q 739 722 571 544 l 749 711 q 408 356 581 535 q 68 0 236 176 l 58 11 m 771 228 l 768 208 l 65 208 l 68 228 l 771 228 m 804 497 l 801 478 l 99 478 l 101 497 l 804 497 z "},"≈":{"ha":624,"x_min":101,"x_max":532,"o":"m 290 288 q 256 321 271 313 q 221 329 240 329 q 194 326 210 329 q 165 314 179 322 q 138 291 150 306 q 119 253 125 276 q 110 254 115 254 q 101 256 106 254 q 149 328 111 307 q 226 349 188 349 q 275 334 254 349 q 315 296 296 319 q 351 263 335 271 q 386 254 367 254 q 413 258 397 254 q 442 269 428 261 q 469 292 457 278 q 488 331 482 307 q 497 329 492 329 q 504 328 501 329 q 456 256 494 276 q 379 235 418 235 q 331 249 351 235 q 290 288 310 264 m 317 496 q 282 529 297 521 q 247 538 267 538 q 221 534 236 538 q 191 522 206 531 q 164 499 176 514 q 146 461 151 485 q 137 463 142 463 q 128 464 132 463 q 176 536 138 515 q 254 557 215 557 q 303 542 282 557 q 343 504 324 528 q 378 471 363 479 q 413 463 393 463 q 439 466 424 463 q 469 478 454 469 q 496 501 483 486 q 514 539 508 515 q 523 538 518 538 q 532 536 528 538 q 484 464 522 485 q 407 443 446 443 q 358 458 379 443 q 317 496 336 472 z "},"∑":{"ha":622,"x_min":50,"x_max":642,"o":"m 79 -58 l 488 -58 l 504 -78 l 50 -78 l 276 482 l 188 1042 l 642 1042 l 619 1022 l 211 1022 l 296 482 l 79 -58 z "},"Ω":{"ha":960,"x_min":63,"x_max":860,"o":"m 517 19 l 800 19 l 797 0 l 514 0 l 517 19 m 65 19 l 364 19 l 361 0 l 63 0 l 65 19 m 517 19 q 624 69 571 39 q 720 145 676 100 q 794 251 764 190 q 836 393 825 313 q 831 571 849 494 q 773 697 814 647 q 671 772 732 747 q 535 797 610 797 q 392 774 460 797 q 271 701 325 750 q 180 576 217 651 q 131 400 143 501 q 137 256 119 318 q 188 149 154 194 q 269 72 222 103 q 364 19 315 40 l 361 0 q 258 53 306 22 q 177 128 211 85 q 124 225 143 171 q 106 349 106 279 q 130 500 106 418 q 206 653 154 582 q 341 770 258 724 q 539 817 424 817 q 692 782 631 817 q 790 694 753 747 q 844 575 828 640 q 860 447 860 510 q 835 283 860 354 q 765 157 810 211 q 656 65 719 103 q 514 0 592 26 l 517 19 z "},"√":{"ha":767,"x_min":75,"x_max":772,"o":"m 78 521 l 215 521 l 344 151 l 750 832 l 772 832 l 336 86 l 199 501 l 75 501 l 78 521 z "},"∆":{"ha":586,"x_min":88,"x_max":510,"o":"m 375 1014 l 510 397 l 488 397 l 367 949 l 110 397 l 88 397 l 375 1014 m 106 417 l 500 417 l 497 397 l 103 397 l 106 417 z "},"◊":{"ha":578,"x_min":100,"x_max":522,"o":"m 100 550 l 368 1014 l 522 550 l 254 86 l 100 550 m 122 550 l 263 151 l 500 550 l 360 949 l 122 550 z "},"∞":{"ha":665,"x_min":118,"x_max":556,"o":"m 349 417 q 355 390 347 401 q 376 368 363 378 q 407 353 389 358 q 443 349 425 349 q 513 374 489 349 q 536 421 536 400 q 518 463 536 442 q 460 485 500 485 q 423 480 442 485 q 388 465 404 475 q 361 443 372 456 q 349 417 350 431 m 329 410 q 341 448 329 431 q 372 478 353 465 q 414 497 390 490 q 463 504 438 504 q 533 479 511 504 q 556 425 556 454 q 527 360 556 392 q 442 329 499 329 q 363 351 397 329 q 329 410 329 374 m 329 417 q 323 443 331 431 q 302 465 315 456 q 271 480 289 475 q 235 485 253 485 q 167 459 190 485 q 143 413 143 433 q 160 370 143 392 q 218 349 178 349 q 256 353 236 349 q 290 368 275 358 q 317 390 306 378 q 329 417 328 401 m 349 417 q 304 353 344 376 q 217 329 264 329 q 143 354 168 329 q 118 410 118 379 q 150 474 118 444 q 238 504 182 504 q 282 498 261 504 q 319 480 303 492 q 343 452 335 468 q 349 417 351 436 z "}}}
